<?xml version="1.0" standalone="no"?>
<!DOCTYPE svg PUBLIC "-//W3C//DTD SVG 1.1//EN" "http://www.w3.org/Graphics/SVG/1.1/DTD/svg11.dtd" >
<svg xmlns="http://www.w3.org/2000/svg">
<metadata>
This is a custom SVG webfont generated by Font Squirrel.
Copyright   : Copyright c 2007 by Kimberly Geswein All rights reserved
Designer    : Kimberly Geswein
Foundry     : Kimberly Geswein
</metadata>
<defs>
<font id="LoveYaLikeASisterRegular" horiz-adv-x="798" >
<font-face units-per-em="1024" ascent="819" descent="-205" />
<missing-glyph horiz-adv-x="443" />
<glyph unicode=" "  horiz-adv-x="443" />
<glyph unicode="&#x09;" horiz-adv-x="443" />
<glyph unicode="&#xa0;" horiz-adv-x="443" />
<glyph unicode="!" horiz-adv-x="314" d="M186 1000h9q37 0 65 -31l-2 -104v-12l9 -185q0 -90 -18 -149v-23l4 -17l-7 -27v-19q0 -26 8 -42q-4 -33 -10 -33h-2q-6 5 -12 5q-53 -33 -53 -37l2 -1q61 6 61 15h7l7 -7q0 -21 -115 -33q-7 0 -12 7q0 10 19 12h5v4q0 3 -17 10l-2 11q0 6 19 12q7 11 7 16v2q0 5 -31 8 q-7 0 -16 340q-5 53 -5 142v40q0 25 21 38l-16 23q0 8 16 11l1 1v6l-1 1q0 16 59 16zM144 969v-4l4 -3h5l3 3v4l-7 1zM219 944v-3q0 -14 7 -16h2q7 0 9 23q0 7 -7 8q-11 0 -11 -12zM195 909l-2 -2v-1l5 -6h2l4 4v3zM195 892l-2 -2l-2 -53v-33q0 -44 9 -44h2l-2 62q0 18 9 26 v3q-11 0 -11 39l-1 2h-2zM128 855l-1 -2v-10l1 -18h4v2l2 14q-2 14 -6 14zM128 809v-70l2 -12h5q4 12 6 47l-7 34l-2 1h-4zM214 732v-10l4 -4h3l2 9v7l-2 9h-2q-5 -2 -5 -11zM130 708v-7h4l5 5l-2 5h-3zM167 690v-1l3 -4h7v7l-3 4h-2zM170 624l2 -5h2q5 0 5 22v30 q-7 0 -9 -47zM225 664l-2 -9l2 -1h1l6 5v5h-7zM149 533l-3 -9l-2 -65q1 -21 5 -21q23 15 23 32v5q0 3 -10 7q-4 3 -6 39l-1 5l-2 2q0 5 -4 5zM181 479l2 -6h3l4 4v7h-4zM153 417v-1h3q7 2 7 12v3h-3q-5 0 -7 -14zM211 398v-5h1q24 0 27 19v5l-4 4h-2q-6 0 -22 -23zM184 164 q28 -10 76 -74v-3q0 -19 -77 -84v-2l22 -4v-3l-22 -4q-36 0 -90 39q-17 23 -17 42q0 58 79 86zM172 127q0 -8 30 -9h2v4q0 5 -21 8h-7zM163 95v-5h7q18 2 18 7l-4 4h-10q-11 -2 -11 -6zM120 87l5 -7l3 3v11l-3 3q-5 -2 -5 -10zM181 69v-3l3 -4h4l5 5v4l-3 3h-4z" />
<glyph unicode="&#x22;" horiz-adv-x="455" d="M183 998l2 2v-2l-14 -9v-2q0 -7 59 -10q11 -17 11 -37q-14 -56 -30 -63q-34 -40 -77 -40h-11v-2l7 -23q0 -69 -19 -129v-14l2 -2l-2 -5h-3q-33 16 -41 40l-24 138q7 51 17 79q0 36 55 70q35 9 68 9zM125 942l-2 2h-8l-6 -6v-7l6 -5h7q20 23 31 23q7 6 7 12q-16 0 -35 -19 zM211 942v-16q0 -10 -7 -17q0 -11 10 -11q7 0 11 7v23q-3 19 -9 19zM137 914q0 -8 14 -14l-1 -2v-14h7q14 9 14 25v3l-4 5q0 7 7 14v9l-5 5h-5q-27 0 -27 -31zM111 907l4 -4h1l4 4l-4 3h-1zM83 837v-4l5 -1l4 5l-4 3h-1zM368 917l2 2v-2l-14 -9v-2q0 -7 59 -10 q11 -17 11 -37q-14 -56 -30 -63q-34 -40 -77 -40h-11v-2l7 -23q0 -69 -19 -129v-14l2 -2l-2 -5h-3q-33 16 -41 40l-24 138q7 51 17 79q0 36 55 70q35 9 68 9zM310 861l-2 2h-8l-6 -6v-7l6 -5h7q20 23 31 23q7 6 7 12q-16 0 -35 -19zM396 861v-16q0 -10 -7 -17q0 -11 10 -11 q7 0 11 7v23q-3 19 -9 19zM322 833q0 -8 14 -14l-1 -2v-14h7q14 9 14 25v3l-4 5q0 7 7 14v9l-5 5h-5q-27 0 -27 -31zM296 826l4 -4h1l4 4l-4 3h-1zM268 756v-4l5 -1l4 5l-4 3h-1z" />
<glyph unicode="#" horiz-adv-x="696" d="M493 688l4 -4v-47q0 -44 7 -72l96 2q47 0 47 -16v-3q-9 0 -10 -23q-11 -28 -58 -28q-72 -5 -72 -11v-1q0 -34 11 -121h2q133 0 133 -18q-11 -10 -11 -14q24 -38 -115 -43l-4 -14v-16q0 -30 7 -61l-5 -32l5 -17q-12 -13 -31 -13q-42 6 -42 16q-8 130 -18 130 q-103 -9 -103 -14l2 -137q0 -19 -14 -19q-34 -18 -58 -18l-2 2v2q9 21 11 44l-18 82q0 33 -14 33q-110 0 -110 32v29l-4 20v3q15 4 107 7q12 0 14 26v102l-98 -5v-2q-23 0 -23 14q0 13 -17 42v5q0 14 86 14h24q26 2 26 12v13l-3 47q3 30 24 54q16 2 25 2l12 2q9 0 28 -79 q-3 -7 -3 -19v-9l5 -5h44q22 0 40 5v80q0 16 12 16h14q35 0 44 25h3zM460 628v-12q0 -11 9 -11l3 6v17l-5 5zM296 605v-3l5 -5h9l5 5v2q-2 5 -11 5h-5zM390 537v-2q0 -4 28 -7v-3q0 -6 -84 -12v-4l5 -5h4q82 4 82 14v16l-5 5h-21zM539 535q1 -5 14 -5h9v4q-2 5 -14 5h-6z M129 520v-4h14q20 0 20 5v4l-18 3q-16 -4 -16 -8zM507 523v-5l18 -2q19 0 19 5l-3 4h-25zM156 493l1 -1h2q47 3 47 8l-1 2h-2q-47 -3 -47 -9zM327 399v-47h2q105 0 105 14l2 8q-4 107 -11 107h-2l-35 2q-57 0 -57 -9q-4 -14 -4 -75zM282 460q4 -89 14 -89q8 0 10 19v44 q0 44 -12 44q-12 -5 -12 -18zM534 339v-5h28q12 0 14 5v2l-16 2zM593 336q9 0 16 -5h2v5l-6 5h-1q-11 -1 -11 -5zM348 322l2 -2q80 4 80 11l-1 1h-2q-79 -2 -79 -10zM156 322v-2l3 -3h18v3q-3 7 -16 7zM142 289v-6l5 -5h14q28 5 28 12q0 6 -23 6h-2q-22 -2 -22 -7zM213 269 v-1l4 -4h9q9 0 26 12v6h-4q-28 0 -35 -13zM471 163v-2h10v7h-5zM497 157v-1h5l4 3v4h-4zM290 145l4 -3h9l3 3v7h-9zM282 112v-7q21 5 21 16h-13z" />
<glyph unicode="$" horiz-adv-x="744" d="M513 1141v-3q-7 -19 -16 -61v-77l-7 -23q32 -38 68 -58l23 -26h4q10 87 33 84.5t28 -2.5h16q17 0 17 4q9 0 12 -23q0 -29 -12 -81v-1l11 -27q-2 -17 -11 -28v-10l-12 -119l-2 -2h-5l-35 4h-4v-2q-16 0 -42 108q0 37 -47 37l-28 2h-5q-14 0 -14 -35q-16 -135 -16 -177 q19 34 7 236l10 10h2q4 -1 7 -8q-7 -249 -14 -310q0 -22 53 -22q29 0 103 -63q77 -65 77 -181v-75q0 -56 -30 -107q-66 -84 -96 -84l-33 -10q-31 12 -72 12q-27 0 -35 -14v-19q10 -34 23 -44l-7 -9q-79 18 -116 18l-1 2v1q0 8 15 28q4 8 4 28v9q0 22 -44 35 q-165 102 -175 102h-2q-23 -49 -36 -49h-39l-9 1v13q0 52 25 148q26 31 26 79q24 28 51 33h2q11 -14 19 -14h2v-38v-25q0 -37 124 -134q43 -32 56 -32v2l2 24v93q0 115 7 180q-14 48 -27 48q-41 12 -45 22v2l7 2l37 -7v2q0 2 -42 22q-154 100 -154 177q0 90 64 161 q44 67 77 67q84 39 84 50q6 97 14 112l4 11l-5 9v3q0 8 103 16q0 3 21 3zM431 1026v-7l3 -4h4v14h-4zM450 1010v-17l2 -9h5l2 12v16l-4 3zM641 886h3q11 13 11 33v4l-6 5q-7 0 -8 -42zM539 914v-2q0 -11 16 -21l5 5q-5 12 -16 18h-5zM324 849l5 -3h39l3 3v14l-5 5h-11 q-31 -5 -31 -19zM275 837v-5h3q23 1 23 7v7q0 3 -5 3q-21 -6 -21 -12zM242 767v-7l1 -2l-10 -21v-7q0 -32 52 -75q62 -63 76 -63h5q21 0 21 80q3 80 7 97q-11 0 -16 26q-9 8 -9 16l2 15q-5 13 -30 13h-24q-70 -27 -70 -42q-5 -15 -5 -30zM632 823v-14h2q7 2 8 28v2h-3 q-7 -3 -7 -16zM189 798l2 -1h3q9 0 18 22v2h-4q-15 -9 -19 -23zM628 784l14 2l-1 2h-9zM422 774q-7 -15 -7 -28v-4q0 -19 5 -19q7 9 7 51h-5zM182 765q-9 -12 -9 -24v-4l6 -5q10 0 10 10q-1 23 -7 23zM172 713v-6q7 -43 15 -43l4 3q-6 46 -16 46h-3zM425 678q10 0 13 7v3h-2 q-11 0 -11 -10zM408 669v-11h2q4 0 7 18v9h-2q-7 -3 -7 -16zM425 665l-1 -5l3 -3l5 1v7h-7zM252 653v-5q14 -19 19 -19h4v5q-7 12 -19 19h-4zM285 625v-3q3 -16 21 -16h2l4 3q-11 21 -21 21zM406 602v-1l7 -7h7q7 2 7 12v12q-9 0 -21 -16zM417 583l-2 -9v-1l3 -4h2l4 4v10 h-7zM303 559q0 -10 59 -13v4q-12 12 -35 12h-21zM392 450v-5h2q5 2 5 10v6h-2q-5 -2 -5 -11zM585 461v-7q25 -37 54 -37q17 -16 24 -51q10 -16 21 -16l6 6v3q0 39 -88 100l-10 2h-7zM466 438q-4 0 -11 -336q0 -14 35 -14l2 -7h2q6 0 38 17q53 11 53 27q47 45 47 56 q5 30 5 56v5q0 50 -33 133q0 13 -28 24l-11 11h-14q-17 0 -78 28h-7zM415 347v-9l3 -3h2l4 3v9l-4 3h-2zM133 335l4 -4q8 4 8 11h-5zM415 324v-19h5l2 9v1l-2 9h-5zM387 298v-7h3v7h-3zM415 293v-6h3v6h-3zM172 261v-5l5 -5h5v1q-3 9 -10 9zM187 210v-3l4 -4h7v6l-5 5h-2z M410 214l-7 -26l7 -7h1q4 0 6 10q-2 23 -6 23h-1zM219 198v-2q0 -8 33 -17l2 2v1q-21 16 -35 16zM77 172l2 -5h2q5 1 5 14v7h-2q-3 0 -7 -16zM679 151h4q5 0 10 26v4h-2q-12 -15 -12 -30zM173 168v-1q17 -20 30 -20h2l2 2h1q-14 19 -35 19zM410 165q-6 -18 -7 -46l1 -5h4 q5 0 7 32l-2 19h-3zM590 116h3q44 11 44 31l-2 2q-45 -19 -45 -33zM285 140v-1q3 -7 13 -7l1 1v2l-5 5h-9zM604 84h3q11 0 18 11v3h-11q-10 -4 -10 -14zM593 39h6q11 0 29 21v3l-3 4q-32 -15 -32 -28zM516 37q0 -7 32 -9h5v2q-2 7 -16 7h-21zM406 11v-4h4l3 4v3h-3zM403 -24 v-4h1l6 6v1h-4z" />
<glyph unicode="%" horiz-adv-x="706" d="M631 1055q33 -6 33 -16q21 -7 21 -12q-17 -23 -17 -28l8 -13v-1q0 -8 -15 -32q-44 -114 -216 -423q-65 -141 -85 -168q-81 -139 -133 -273l-27 -44l16 -23q0 -6 -19 -16h-4q-22 0 -66 42q-28 12 -28 27l3 14q37 103 70 164q15 54 30 54h7v2q0 5 -14 7v2l54 124 q18 22 18 39q33 28 42 61l-2 16q8 16 26 31l153 308q56 168 101 168q26 0 44 -10zM556 1032q-9 0 -21 -58v-2h1q10 5 25 49v6zM599 971v-4h2q12 9 12 21v2q-14 -9 -14 -19zM566 818v-5h7l4 7v7q-7 0 -11 -9zM452 705q-8 0 -26 -49v-2l2 -2q16 16 26 49v4h-2zM337 444v-2 q9 0 10 7v2q-8 0 -10 -7zM284 437l-1 2l-9 -6l-35 -66q-30 -33 -30 -42v-5q1 -4 9 -7q21 18 68 124h-2zM332 428q-16 -20 -16 -31v-2h3q5 0 14 33h-1zM276 323q-10 -5 -27 -56l4 -3h2q8 9 24 49v7zM169 202q-7 0 -11 -21l4 -3h2q8 7 8 16v5zM228 169q-7 -6 -22 -52l3 -4 q21 23 21 53v3h-2zM172 152v-2h4q6 3 9 10l-2 2q-6 -1 -11 -10zM148 162l-2 -9v-1h4l3 3v7h-5zM136 96q-12 0 -16 -14q0 -9 5 -11h2q12 0 12 14v7zM202 33h-7l-3 -4v-3l8 -2h4l3 3zM531 227q53 -18 71 -49q9 -38 9 -56q-12 -47 -23 -57q-22 -22 -43 -25l-11 2h-5v-2l5 -7v-2 h-5q-43 0 -75 48q-13 22 -13 50q0 44 23 69q43 29 67 29zM487 157v-5q17 0 52 35v5l-5 2q-47 -15 -47 -37zM578 163q0 -18 -14 -69v-1q17 0 26 40v16q0 14 -12 14zM525 135l2 -6h5q9 5 9 14v4l-3 3h-6q-7 -2 -7 -15zM468 142v-20q0 -17 12 -24h2l1 9q0 38 -8 42zM508 103v-3 l3 -4h2v4l-3 3h-2zM529 70v-5h5q33 6 33 14v1h-1q-17 0 -37 -10zM182 983q54 -18 72 -49q9 -38 9 -56q-12 -47 -23 -57q-23 -22 -44 -25l-10 2h-6v-2l6 -7v-2h-6q-42 0 -75 48q-12 22 -12 50q0 44 23 69q42 29 66 29zM138 913v-5q17 0 53 35v5l-5 2q-48 -15 -48 -37z M229 919q0 -18 -14 -69v-1q18 0 27 40v16q0 14 -13 14zM177 891l2 -6h5q9 5 9 14v4l-4 3h-5q-7 -2 -7 -15zM119 898v-20q0 -17 12 -24h2l2 9q0 38 -9 42zM159 859v-3l4 -4h2v4l-4 3h-2zM180 826v-5h6q33 6 33 14v1h-2q-16 0 -37 -10z" />
<glyph unicode="&#x26;" horiz-adv-x="819" d="M292 1030q17 -6 63 -14q36 -15 77 -61q45 -66 45 -77q21 -38 21 -88q0 -77 -117 -187q-68 -39 -82 -82v-7q0 -21 77 -93q26 0 66 -40q26 -22 63 -44v2q0 7 7 12l28 -16h7q15 23 34 107l12 107v5q0 18 -25 21h-3l-18 -5h-3l-2 10q11 70 21 70q16 30 23 30l17 2h9 q24 0 65 -39q65 -42 107 -84v-1l-7 -25v-21q0 -9 -25 -24h-3q-45 17 -60 17h-9q-9 0 -15 -59q-55 -147 -55 -179q3 -7 67 -51q43 -42 75 -63q26 -25 26 -36q0 -14 -35 -93q0 -19 -33 -28l-9 -7h-1q-5 0 -11 51q-5 9 -40 33v2q0 4 19 7v1q0 5 -17 9h-6l-5 -3h-3q0 16 -25 31 q-27 39 -49 39q-16 -10 -40 -65q-36 -46 -39 -61q-40 -56 -154 -56l-19 -2q-91 12 -105 33q-66 62 -75 88q-4 14 -37 68q-26 82 -26 110l14 144q18 80 28 80q37 20 37 30q-11 22 -42 70q-27 104 -27 136q0 73 18 146q0 82 82 127q48 23 114 23zM229 1009v-5q40 3 40 10v2 l-5 2q-23 -2 -35 -9zM145 971l3 -4h7q21 0 37 23v3l-3 4q-21 0 -44 -26zM267 953h6q24 3 24 16l-5 2q-20 0 -25 -18zM197 944v-1h11q35 5 35 17h-11q-16 0 -35 -16zM332 946v-2q0 -8 53 -24h1v2q-21 24 -45 24h-9zM411 946q0 -10 10 -10v3l-7 7h-3zM138 801l10 -53v-8 q5 0 13 -18q5 0 5 -7l-4 -10v-4q0 -15 34 -45q42 -55 49 -55h5q4 0 93 53q47 48 63 119l7 61q-105 109 -125 109q-72 -17 -99 -49q-29 -15 -42 -56q-9 -27 -9 -37zM386 908v-2l4 -4h3v9h-3zM427 776v-3l3 -4h2l5 6v14l-3 3q-7 -2 -7 -16zM96 740v-11l7 -7h3v9q0 9 -7 12z M409 712v-7h2q18 0 23 36l-2 2h-4q-19 -15 -19 -31zM141 724v-4q0 -13 9 -17l4 3v6q-8 12 -11 12h-2zM392 670h1q6 0 20 8v6q-21 -3 -21 -14zM171 659l-2 -2v-1q21 -37 28 -37h4v3q-14 37 -30 37zM348 622l2 -1h1q15 3 41 28l1 1v2h-1q-21 -5 -44 -30zM626 635v-2 q0 -14 16 -14h2l3 3q-6 13 -16 13h-5zM131 619l3 -4h4v4l-4 3zM203 614v-11q8 -16 19 -16h2v6q0 10 -16 21h-5zM705 594v-3q11 -20 38 -30v4q-16 24 -36 29h-2zM666 563l-1 -2v-2q1 -5 10 -5h2v5zM169 542v-2h6l3 4v1h-5zM731 514l7 -4q18 5 18 11v10h-4q-21 -6 -21 -17z M638 523v-13h4l7 7v7l-4 4h-1zM274 493v-2q0 -5 9 -9l2 2v2l-7 7h-4zM232 465v-2q11 -13 67 -52h3v3q-43 52 -63 54h-3zM147 411v-18l-4 -49q11 -22 21 -80q15 -34 30 -84q18 -46 84 -86q26 -18 38 -18h7q49 0 116 49q62 63 68 86v5q-33 39 -166 105q-64 40 -119 116 q-14 9 -19 9h-9q-47 -10 -47 -35zM285 393q0 -10 14 -17h2q0 10 -14 17h-2zM579 330l2 -2h1l14 20v10h-3q-5 0 -14 -28zM129 311v-2q2 -17 7 -17h4v10q-5 9 -11 9zM460 292v-2l52 -40h4v3q-36 42 -51 42h-2zM143 262v-12q0 -32 26 -81q4 -1 16 -31q16 -18 21 -20h4v2l-41 84 q-19 58 -22 58h-4zM113 236v-14l6 -6h7v4l-7 16h-6zM614 225l3 -3h4v3l-4 4zM659 197v-2q10 -15 16 -17h4v2q-5 17 -20 17zM498 162v-2h2q23 12 23 27v5h-2q-14 0 -23 -30zM666 167q0 -8 41 -26h7l3 4v1q-19 25 -42 25h-5zM460 118v-3h3l6 5v4h-4zM738 120v-2q4 -8 11 -8v8 l-6 6h-1zM684 111l3 -3q13 2 13 7v2q-2 5 -11 5q-5 -2 -5 -11zM148 108l-1 -2v-5q7 -14 15 -14v2q0 19 -14 19zM246 90v-5q13 -19 25 -19h5q4 0 4 5q-17 19 -30 19h-4zM722 59v-2h6l3 4v1h-5zM365 59v-2h4v2h-4zM406 45v-4q45 2 49 13v1l-4 4h-10q-35 -8 -35 -14zM259 50v-3 q0 -8 29 -9h13q-17 12 -39 12h-3zM322 41v-3h3v3h-3zM213 26v-4h4v-2l5 2v5l-4 4zM241 6q0 -8 67 -14h21q12 0 14 6q0 13 -81 15q-21 -1 -21 -7zM376 -4v-2l9 -2h14l3 4l-3 3h-20z" />
<glyph unicode="'" horiz-adv-x="254" d="M114 896q45 0 86 -44q26 -33 26 -93q5 0 7 -14v-1q0 -10 -12 -49l-21 -62l-47 -59q-27 18 -27 33q6 51 18 88v5q0 19 -21 26q-75 40 -75 79l-2 9q9 82 68 82zM86 828v-11q0 -13 7 -16q11 21 37 39l2 2v1l-4 4l-16 -2l-5 2v3l11 11v3h-4q-23 0 -28 -36zM130 794v-1h3 q14 0 14 14l-5 3h-5q-7 -2 -7 -16zM177 784v-5h4q3 0 7 8l-2 2h-4zM118 738v-3l3 -4h19l4 4v3l-14 2zM186 731v-3h3l4 3v4h-4zM167 689v-7l3 -3l5 5v4l-5 5zM191 668l-7 -15h4l8 10v5h-5z" />
<glyph unicode="(" horiz-adv-x="354" d="M262 1190q20 0 23 -33q18 -47 32 -65v-2l-1 -1l-14 -6v-5q2 -5 10 -5l10 3l-60 -41l-78 -204q-34 -196 -34 -299l-3 -9l-2 -1v-2l3 -5v-7l-6 -7q-2 5 -10 5h-4q-9 0 -12 -9q5 -58 12 -58q4 1 15 23h4q3 -12 7 -12q2 0 0 -11h-2q-10 -7 -10 -17l1 -21l-3 -14v-4 q0 -45 20 -45q29 -108 48 -135q11 -19 38 -96q46 -86 78 -133v-5l-8 -2h-22q-12 0 -32 -14h-9q-12 16 -37 16q-13 6 -44 91q-35 65 -84 241l-21 149q-2 0 -6 65q-9 28 -9 82v19q0 15 14 44v2q0 46 25 122q36 249 54 249q16 48 49 85q34 56 68 72zM235 1139v-1h6l2 5l-2 2h-1 zM229 1115v-2l4 -3h2l3 3v7h-3zM130 891v-5l3 -4q5 5 15 49q4 1 6 11h3l12 -9q17 12 17 45v16h-4l-1 -2q-3 0 -7 -10l-5 -4q-8 3 -9 7q14 44 22 44l9 -2h8q16 0 30 55v5q-6 0 -28 -21v2q13 18 13 24v4l-3 3h-5q-36 -29 -36 -54q-40 -84 -40 -154zM263 1083h-13q-9 0 -21 -47 q-8 -11 -0.5 -13.5t21.5 29.5q27 30 27 42l-7 5h-2q-3 0 -5 -16zM268 1036v-7l4 -3h8q17 10 17 24q-4 16 -14 16q-8 0 -15 -30zM187 1047h4v-2h-4v2zM208 992v-1h6l4 3v2h-7zM197 957v-3l4 -4q8 0 12 25v7h-2q-14 -8 -14 -25zM140 781v-2h2q10 6 15 63h-2q-15 -22 -15 -61z M135 754v-7l3 -3h4l1 7l-5 3h-3zM98 660v-4q15 0 23 37q-5 21 -8 21q-15 -26 -15 -54zM142 488h1q7 -3 7 -12v-3h-2q-3 0 -8 10zM150 312v-9l7 -7h3v9l-6 7h-4zM143 257l-3 -24q9 -47 17 -47h2l5 7q13 4 13 8q-17 56 -34 56zM175 184l-3 -5v-6q10 -33 22 -33v5q0 23 -19 39z M240 63l1 -19l-8 -9q0 -12 30 -17h2v1q-6 22 -24 44h-1zM253 -14v-3q3 -7 12 -7h5l8 8q0 5 -18 7h-2z" />
<glyph unicode=")" horiz-adv-x="458" d="M256 1199h3q31 -28 60 -103q41 -72 59 -145q18 -64 35 -235q3 0 4 -15q-3 -8 -9 -11l-2 2v17q0 14 -8 18h-2q-4 0 -4 -5l-1 -35l1 -44q3 -7 6 -7l10 3h4l5 -5v-2q-11 -12 -19 -40v-2q0 -7 10 -33q-14 -54 -30 -54l-19 14q-9 0 -14 -47l2 -2h7l19 12l5 -5h2l-2 -5l7 -13 l-7 -56v-3q1 -4 14 -9l2 -10q-5 -28 -10 -28l-4 14q-19 0 -66 -109h3q28 28 33 28v-5q-19 -54 -70 -142q-58 -99 -77 -121l-10 -8h-2l2 12v5l-4 4h-5l-31 -28q-16 -6 -16 -18h2l10 7h2l2 -9l-2 -12h3l14 11h4l5 -6v-1q0 -9 -26 -32q-4 -4 -4 -21l-5 -5h-3l-6 7l-1 2h-4 q-6 -6 -12 -6q-21 28 -42 46q-4 21 -19 21l-6 2v3l13 4l22 -6h4q40 11 40 32l-3 3l-28 -12l-2 2v2q0 4 63 64q24 25 56 104q16 16 16 22q18 73 26 77q5 0 10 -21h2q42 102 42 160l2 52h-2q-16 0 -35 -122q-5 -58 -16 -58h-1l-2 5l17 126q9 4 16 44q12 28 12 52l-3 65 q0 6 10 18v10q7 22 9 61q0 238 -101 396q-23 24 -28 44q14 6 14 15h-4l-17 -1l-2 1v2q0 18 44 51q13 0 33 17zM256 1180v-5q2 -19 7 -19h2q7 2 7 12v2l-11 10h-5zM214 1142v-2l3 -4h9l7 7v6h-3q-14 0 -16 -7zM224 1101v-1l35 -27l2 2v2q-7 12 -7 21l2 2h2q-2 7 -11 7h-17z M258 1065l-2 -2v-4l3 -3h2v5zM270 1038v-3l5 -5h2v5l-4 3h-3zM289 968v-1q0 -17 25 -77l-2 -7v-4h2q14 0 21 -5h5q3 0 3 5q0 14 -49 89h-5zM312 870v-1q24 -84 24 -95l-1 -38h3q9 14 23 26l9 77l-53 31h-5zM349 701v-6h3v6h-3zM413 680h4v-4l-4 -3h-5v1zM408 655h2l3 -3 l-1 -2h-2l-2 2v3zM371 592v-17l4 -4h3q4 16 4 42l-2 2h-2q-5 0 -7 -23zM331 589h4q5 1 5 10v11l-4 3q-5 0 -5 -24zM335 421q2 -23 8 -23h2q17 0 21 26v14q0 9 -7 12l-9 -5l-1 9h-2q-12 -7 -12 -33zM314 321h1q20 22 32 58l-2 1h-2q-16 0 -29 -59zM368 321l3 -4l-1 -5h-6v5z M359 302h2v-2l-5 -5h-2v1zM259 177h6q40 32 40 55h-2q-8 0 -38 -42q-6 -7 -6 -13zM198 69l5 -2q30 25 63 88v3l-1 2q-23 -15 -56 -63zM184 -8l2 -2v-2l-5 -3v3zM107 -31l-5 -12q0 -4 10 -11h2q9 0 16 13v1q0 7 -19 9h-4z" />
<glyph unicode="*" horiz-adv-x="800" d="M376 886h8v-4q3 -16 65 -150q11 -19 26 -74l2 -2h46q252 -5 252 -15v-4q-13 -15 -28 -44q-24 -27 -84 -68q-77 -68 -77 -72v-3q26 -70 71 -151q0 -15 46 -82q10 -6 10 -16q-12 -8 -17 -8q-66 38 -159 68q-108 31 -139 31q-13 0 -78 -61l-121 -91q-9 -5 -18 -5h-1 q-5 1 -13 24q0 17 20 56q12 31 21 172v2q0 16 -30 31q0 19 -128 151l-3 10v2h3v2l2 -2h23v3l-6 6h-19l-19 -2l-7 2v3q0 4 17 9v3l-5 9q0 13 60 23h7l147 -11q23 43 78 189q30 54 48 69zM360 800v-5l3 -4q9 4 9 14v7h-5q-7 -3 -7 -12zM339 698l-4 -5v-3h6l1 7l-1 1h-2z M437 646v-11h2l3 4v10h-2zM307 637v-3h4l5 5v3h-3zM393 628q-8 -6 -23 -45q-11 -7 -22 -40h1q25 0 32 26q13 19 19 44l7 7v1q0 3 -14 7zM83 616v-2l18 -1h7q23 0 23 5v2q0 3 -11 5q-37 -3 -37 -9zM722 616v-3h4l5 5v3h-4zM538 604h6v3h-2zM83 588q7 -13 16 -17h5v10 q0 7 -17 12q-4 0 -4 -5zM542 548q3 -7 10 -11h7q39 16 48 32v5l-6 5h-15q-44 -10 -44 -31zM461 558v-3l6 -5h1q25 4 25 10v4l-9 1h-10q-10 0 -13 -7zM307 371l2 -2h2q86 94 94 135q13 24 13 42v2q-17 0 -25 -49l-24 -39q-20 -42 -51 -56zM512 527h4l3 3v2h-2zM342 501l2 -2 q9 2 9 12v5h-2q-5 0 -9 -15zM538 480q-15 -19 -15 -23h1q18 9 18 21l-2 2h-2zM299 466v-6q4 -8 14 -8h3l4 3v4q-3 7 -13 7h-8zM435 459v-4h2l5 5v2h-3zM412 394h4q19 14 37 40v2h-2q-39 -28 -39 -42zM512 397v-5q20 0 25 11v7h-9zM488 348q2 -7 12 -7h5q7 3 7 16l-5 2 q-19 -5 -19 -11zM332 338v-4h2l3 4v3h-2zM530 340v-2q1 -6 10 -11h9v2q-7 11 -18 11h-1zM465 331v-2q0 -7 37 -16l1 2v2q-26 14 -36 14h-2zM568 312l4 -4h8q9 0 11 5l-4 4h-8q-11 -1 -11 -5zM582 273v-2q0 -8 49 -21h4v2q0 8 -53 21zM251 219l2 -2h2q12 5 16 11v3h-2 q-18 -4 -18 -12z" />
<glyph unicode="+" horiz-adv-x="598" d="M374 220q-1 -8 -109 -1l-1 -2q-14 2 -6 127q-45 -6 -65 -6v3q0 9 66 19v1l-2 16q-75 -13 -75 -36l-10 -5q-48 0 -48 98q0 26 109 38q0 3 14 4l4 -1q-2 66 1 93l4 -1q10 -1 10 -95l9 -1h8q1 103 -26 107l-4 11q6 47 103 34q26 -3 25 -113q2 0 1 -14l-4 -12l137 20h7 q8 0 15 -109h2q0 -15 -142 -24q-12 -3 -24 -5l2 -139zM389 390h1q125 5 125 12v2q-2 5 -9 9h-2q-45 0 -115 -21v-2zM275 240h1q5 0 10 8v1q5 39 -3 100q-4 -1 -6 -1q-9 -107 -2 -108zM318 317l-4 -29q-4 -45 6 -50l4 -1l2 7q-1 73 -8 73zM432 436h30q45 1 49 12v3l-7 2 q-72 -11 -72 -17zM353 601l-17 2l-4 -3v-2q-1 -5 16 -9l6 -1l4 3v4zM147 434v-18l4 -3h1q5 0 7 17v6l-3 3h-4zM348 329l-2 -17q-2 -13 5 -16l1 -1l1 4q1 30 -5 30zM417 464h17q13 0 16 7v1h-4q-29 -3 -29 -8zM478 479v-3h12l9 2v3h-12zM356 267h-4l-1 -12v-9h4l1 12v9z M348 559h-2l-1 -7l3 -4h4l1 5zM189 434v-2h7l4 4v3h-6zM317 605l-3 1l-1 -4l3 -4h4v3zM147 397v-3h4l3 3v4h-3zM277 439v-5h1h4v7q-2 -1 -5 -2zM320 347l-3 1l-1 -7l4 3v3zM403 434v-4h7l-4 4h-3zM343 451v-3h2q-1 2 -1 5q-1 -1 -1 -2zM279 367v-2q0 -1 -1 -2h3q-1 2 -1 3z M346 387l1 -1h1v1h-1h-1z" />
<glyph unicode="," horiz-adv-x="284" d="M107 229q25 0 85 -33v-2q-22 -5 -22 -9q29 -37 35 -37l15 4q5 0 9 -9l-5 -17q7 -13 7 -21q0 -55 -26 -72q0 -4 8 -4v-3q0 -3 -15 -9v-7l19 -3q-10 -31 -35 -63q-39 -48 -54 -48l-11 11q-7 -5 -14 -5l-2 5q13 28 35 28l2 2v1q0 4 -21 9v4q14 59 14 80v4q0 3 -40 8 q-39 31 -39 81v12q0 65 42 65q16 6 16 10l-3 4h-20l-3 3v2q7 9 23 9zM124 199v-2h18v6h-14zM91 145v-4q11 0 54 30v2l-9 2q-42 0 -42 -16zM107 110v-4l3 -3l11 10h12l2 9v7l-6 5h-1q-21 -4 -21 -24z" />
<glyph unicode="-" horiz-adv-x="499" d="M446 491q8 0 16 -109h2q0 -15 -142 -24q-159 -33 -205 -33v3q0 12 117 26q51 12 51 18v2h-14q-164 -11 -164 -46l-11 -5q-47 0 -47 98q0 26 108 38q0 3 14 4l28 -5h13l227 33h7zM402 466v-3h13l8 2v3h-12zM341 451h18q13 0 15 7v1h-3q-30 -3 -30 -8zM268 438v-3h1 q14 0 16 7v2h-7q-10 -2 -10 -6zM357 423h30q45 1 49 12v3l-7 2q-72 -11 -72 -17zM201 426v-5h2q29 0 45 12v2h-3q-16 0 -44 -9zM72 421v-18l3 -3h2q5 0 7 17v6l-4 3h-3zM114 421v-2h7l3 4v3h-5zM327 421v-4h7l-3 4h-4zM313 377h2q124 5 124 12v2q-1 5 -9 9h-1 q-46 0 -116 -21v-2zM72 384v-3h3l4 3v4h-4z" />
<glyph unicode="." horiz-adv-x="284" d="M150 194q42 -7 60 -22q5 -12 5 -25v-19q0 -57 -65 -109l-17 -7q-29 0 -56 79v7q0 60 19 74q39 22 54 22zM105 133q4 -37 10 -37q4 2 13 49l5 9v5h-2q-26 -9 -26 -26zM142 124v-3q0 -14 7 -16h1q8 0 16 30v7l-3 3h-4q-16 0 -17 -21zM184 105l1 -2h6l1 9v4h-1q-4 0 -7 -11z M112 72q0 -9 9 -12h15q16 0 28 15v2z" />
<glyph unicode="/" horiz-adv-x="631" d="M559 1042q33 -5 33 -16q21 -6 21 -12q-17 -23 -17 -28l8 -12v-2q0 -8 -15 -31q-44 -114 -216 -424q-65 -140 -85 -168q-81 -139 -133 -273l-27 -44l16 -22q0 -6 -19 -16h-4q-22 0 -66 42q-28 12 -28 26l3 14q37 104 70 165q15 54 30 54h7v2q0 4 -14 7v1l54 125 q18 22 18 38q33 28 42 61l-2 16q8 16 26 32l153 308q56 168 101 168q26 0 44 -11zM484 1019q-9 0 -21 -57v-2h1q10 5 25 49v5zM527 958v-3h2q12 8 12 21v1q-14 -8 -14 -19zM494 806v-5h7l4 7v7q-7 0 -11 -9zM380 692q-8 0 -26 -49v-2l2 -1q16 15 26 49v3h-2zM265 431v-1 q9 0 10 7v1q-8 0 -10 -7zM212 424l-1 2l-9 -5l-35 -67q-30 -32 -30 -42v-5q1 -4 9 -7q21 18 68 124h-2zM260 416q-16 -20 -16 -32v-2h3q5 0 14 34h-1zM204 311q-10 -6 -27 -56l4 -4h2q8 10 24 49v7zM97 190q-7 0 -11 -21l4 -4h2q8 7 8 16v5zM156 157q-7 -6 -22 -53l3 -3 q21 22 21 52v4h-2zM100 139v-2h4q6 4 9 11l-2 2q-6 -2 -11 -11zM76 150l-2 -9v-2h4l3 4v7h-5zM64 83q-12 0 -16 -14q0 -9 5 -10h2q12 0 12 14v7zM130 20h-7l-3 -3v-4l8 -2h4l3 4z" />
<glyph unicode="0" horiz-adv-x="803" d="M428 949q96 0 179 -63l77 -114q20 -26 40 -78q21 -32 40 -133l2 -35q0 -33 -12 -72v-9q0 -17 12 -17l-2 -53v-63q0 -44 -40 -164q-10 -24 -39 -39q-23 -24 -157 -91q-57 -40 -110 -40h-2q-145 12 -145 23q-44 16 -95 75v5l4 4h5l5 -4h5v4q-2 15 -15 15h-7l-2 -7 q-18 6 -44 65q-7 7 -14 30q-40 42 -61 299v7q10 133 19 133q2 53 42 156q17 18 33 54q99 112 282 112zM402 935v-3q0 -8 37 -13h21v6q-6 10 -28 10h-30zM493 921l19 -5h7l4 3q0 6 -23 6h-4zM551 905v-1q37 -44 63 -51h1v3q-37 49 -63 49h-1zM523 891q9 -14 21 -14h8v4 q0 7 -21 14h-5zM444 893v-2q14 -10 54 -15l2 1v4q0 7 -37 12h-19zM145 526q1 -34 7 -44l-4 -21v-9l30 -157q31 -91 80 -142q76 -51 118 -51q63 0 161 42q124 73 124 128q22 72 37 187v70q0 103 -55 179q0 12 -82 85q-54 67 -96 67l-60 14h-12q-78 0 -122 -67 q-30 -23 -53 -61q-14 0 -58 -77q-15 -49 -15 -143zM195 827v-4q6 0 23 23v7h-2q-6 0 -21 -26zM164 806h5l5 5v3q-10 0 -10 -8zM201 765h7q12 8 15 16v4h-12q-10 -6 -10 -20zM663 769v-2q0 -25 33 -93q5 -2 30 -64q0 -7 5 -7l5 5v5q-8 36 -52 135q-16 21 -21 21zM731 571v-2 l9 -26q0 -7 -13 -31v-2q0 -11 11 -18h3q7 0 11 42q-8 26 -18 37h-3zM76 561v-4l6 -5h1l4 3v7l-4 4h-1zM78 527l-3 -21v-15q7 0 7 33v3h-4zM113 470l-2 -13q0 -70 37 -180l19 -26h4v2q-12 39 -35 161q-8 9 -18 56h-5zM103 275v-5h3v5h-3zM689 160v-2h5q16 0 37 72v2l-4 5 q-8 0 -38 -77zM120 190v-4q10 -4 35 -47l12 -9h9v2q-25 57 -42 68h-2q-8 -3 -12 -10zM230 134v-4q42 -61 105 -61q16 2 16 5q-1 4 -51 21zM176 128l-2 -5q2 -7 11 -7h2l3 4v3l-5 5h-9zM351 64q0 -9 25 -13h12q14 1 14 14h14q30 0 121 34v1l-2 2h-11l-59 -14q-34 0 -112 -23z M418 32v-2l3 -3h21q68 15 68 23q25 8 30 19v3h-2q-82 -19 -120 -40zM206 64q0 -13 24 -21l2 1q-13 20 -24 20h-2zM320 39v-7q49 -23 63 -23h10v7q-44 23 -73 23z" />
<glyph unicode="1" horiz-adv-x="569" d="M239 1052q79 -7 79 -23q0 -14 10 -14l4 -4l-16 -12v-5h5q6 7 12 7t6 -16l12 -381q-14 -63 -14 -235v-7q0 -103 5 -138q-10 -4 -10 -18q1 -19 7 -19h3l2 11h2q8 0 14 -65l-2 -2h-7q-11 11 -18 11l-1 -2v-5q0 -21 35 -21q208 10 208 -1v-2q0 -4 -21 -10l-2 -2v-2 q6 -5 25 -9q7 -8 7 -15q-15 -77 -34 -77l-26 -2l-73 7l-44 -2q-372 -5 -372 9q-11 13 -11 21v2l14 47l-5 9v1q0 22 28 27l16 5l132 4q16 0 18 21v14q0 114 -7 191q12 411 26 411l2 18q-7 119 -20 119q-62 -39 -82 -81l-9 -3q-78 28 -101 56q-4 0 -5 19l3 3l9 -1h10 q27 0 119 96q30 28 44 58q15 7 23 7zM255 1006v-2l3 -3h2q13 0 14 5v2l-4 3h-5q-10 -1 -10 -5zM209 1001l4 -4h3l9 2v4l-4 3h-7zM318 973v-4l3 -3l4 3v4l-4 3zM115 861v-4h1q21 0 44 27q75 68 75 84h-5q-84 -71 -115 -107zM284 929v-2l6 -5l5 2v14l-2 2v1q-9 -2 -9 -12z M272 929l-9 -23v-7l6 -5h7q9 0 10 5v4q0 4 -14 9l-2 1v4q7 8 7 12h-5zM88 880v-3h6q16 0 26 22l-2 2h-2q-18 -8 -28 -21zM293 831l4 -96h3q9 23 9 68v40q0 46 -7 46q-6 0 -9 -58zM293 621v-16l4 -26h3q11 0 11 81v8l-4 4q-13 -6 -14 -51zM249 366v-6h4v6h-4zM298 255l-1 -1 v-9l5 -5h3l4 3v4q-4 0 -11 8zM305 212q-7 -23 -7 -58v-12q0 -15 13 -21h3q4 0 5 8q-3 83 -12 83h-2zM244 170l2 -6h2l5 6v3l-4 4zM269 150v-10l3 -4h4v14l-4 4zM84 106v-4l5 -5h2l5 5v4h-12zM54 67v-5l5 -5h2q15 0 33 16h-1zM363 77v-4l95 14l7 1v4q-33 5 -102 -15zM107 59 v-6l8 -1h13q35 1 35 7l-4 3h-21zM248 65l-2 -2v-2q6 -5 12 -5v3q-2 6 -10 6zM220 59l3 -3h5l4 3v4h-9zM270 51v-2q0 -7 42 -7h2q11 0 11 9q-7 5 -13 5h-36zM538 41v-5l5 -5q16 0 16 22v11l-3 3h-6q-12 -8 -12 -26zM351 40q-8 -14 -28 -14v-2q0 -7 42 -8h2q28 22 35 34 q0 10 -51 -10zM421 50v-2q0 -5 40 -5l2 2v1q-3 7 -12 7zM479 50l1 -5h4l3 3v2l-3 3zM412 34v-3h5v3h-5zM514 13v-2q0 -4 12 -5q14 2 14 7v2l-5 5h-6q-13 0 -15 -7z" />
<glyph unicode="2" horiz-adv-x="709" d="M419 960q44 0 142 -34q52 -26 52 -35q47 -47 47 -73l23 -82q-17 -57 -61 -151q-53 -46 -172 -115q-95 -88 -122 -90l-58 -52q-128 -109 -129 -114q-10 -22 -21 -68v-4q0 -10 68 -15v-4l-44 -3v-6q120 -21 161 -21q-4 6 -100 28v4h2q25 0 112 -21l77 -5l67 7h35 q91 -7 99 -25l42 -12l9 -7v-4l-23 -7v-1l6 -6h3l18 2l1 -2q-2 -61 -8 -61l-163 4h-33q-40 0 -95 -6q-211 25 -292 25q-25 6 -25 24q-10 27 -10 63v42q0 120 28 153l35 22q9 15 9 25q89 72 94 72q39 15 103 70l6 1q-17 -22 -28 -22v-6h8q19 11 35 30v4h-5v3l100 63 q81 57 122 98q31 36 42 98q0 54 -45 81q-12 6 -126 15q0 3 -21 4q-48 0 -89 -56q-11 -23 -11 -37v-9l2 -1q0 -11 -46 -18l-57 -9v-1l-9 1h-11l-35 -3l-3 5q17 95 42 119q81 73 112 75q21 21 108 44zM429 946v-4l9 -9h12l6 6v1q-2 6 -14 6h-13zM354 925v-2h2q56 0 56 12l-7 5 h-16q-35 -7 -35 -15zM526 930v-2q0 -8 36 -17v1q0 9 -35 18h-1zM303 904v-4h18l5 5v2l-9 2q-14 -1 -14 -5zM317 846v-2h9l5 5v2h-8zM561 846v-2q6 -10 15 -10h2q4 0 4 5q0 7 -16 10h-2zM585 828v-3q25 -2 25 -23l7 -10l1 1v9q0 32 -19 32q-13 0 -14 -6zM277 800l4 -3h1 q20 12 20 23v1h-4q-7 0 -21 -21zM233 762v-4l4 -3h2v7h-6zM639 709v-5h2l5 5v6h-1zM606 660v-7q9 0 9 -8h5v8l-7 7h-7zM587 610l2 -2v-2q9 4 17 16v3h-3q-11 -5 -16 -15zM550 583v-1h2l17 3q0 11 -10 11q-9 -3 -9 -13zM547 555v-3q25 4 49 30l-4 3q-30 -16 -45 -30zM480 527 v-5h4l3 4l-2 1v2zM267 359h5q8 0 38 25q9 0 14 16l2 1v4h-3q-18 0 -56 -42v-4zM181 370v-5h2q17 0 28 28h-7q-23 -18 -23 -23zM116 345l2 -15q-19 -17 -19 -25h5q23 14 35 35v2l-4 3h-19zM233 326v-3h4l5 5v3h-3zM128 251v-5h4q16 12 16 22v2h-6q-14 -9 -14 -19zM86 99v-7 l4 -4l3 4v7l-3 3zM123 95l2 -2h17v4l-8 2h-7zM496 86v-1l5 -6h19l4 4v3l-18 2zM48 58v-3l3 -4h2l4 4l-4 5zM83 30v-1l9 -2q22 2 22 7l-1 2h-20q-10 -2 -10 -6zM533 15h15q18 2 18 7v1l-4 4h-8q-8 0 -21 -12zM583 8l4 -4h16q21 0 21 7v2q0 3 -6 3q-34 -2 -35 -8z" />
<glyph unicode="3" horiz-adv-x="653" d="M32 965q92 -10 264 -23q23 -8 205 -28q72 -16 72 -38q-7 -20 -47 -67q0 -5 -63 -85q0 -12 -76 -81l-15 -21v-5h1q16 0 90 16q25 0 117 -58q26 -27 51 -109v-15q0 -185 -32 -228q-28 -77 -145 -159q-68 -33 -210 -65q-19 -7 -56 -7h-11l-7 -2q-63 0 -108 30v4q6 4 28 56h3 v1l30 -1h14q119 0 182 63l119 77q69 59 74 87q28 43 28 145q-2 14 -4 14l4 11q0 29 -28 45q-9 28 -42 28h-35q-27 0 -27 -7v-3q57 0 88 -28v-2l-5 -2q-14 0 -34 18l-12 2q-105 0 -255 -70l-14 -9l-6 2v12q0 8 -14 23v1q0 7 32 76q4 25 24 47l58 86q31 69 61 84q11 16 11 28 v3q-13 12 -26 12l-258 4q-14 0 -17 24v6l3 5v7q-7 18 -17 93v1zM85 948l-6 -7v-13h4v-1l17 1h2l35 -3l7 5q-27 18 -59 18zM46 925q2 -7 11 -7l3 5v2l-5 5h-5q-4 0 -4 -5zM216 921v-3h2l3 3h-5zM454 902q0 -6 26 -10h4l5 5v2l-4 3h-31zM165 895q74 -9 163 -9h17q0 10 -101 14 h-39q-40 0 -40 -5zM88 892q0 -11 70 -16l2 2v3q-19 14 -60 14h-8zM531 878v-2q2 -5 10 -5h6q6 0 10 5q0 9 -17 9q-8 -4 -9 -7zM184 883l-1 -2v-2q0 -7 47 -7h51q0 7 -97 11zM317 871v-4l70 -9l70 4v3q-30 6 -103 6h-37zM65 860v-2q0 -12 58 -12h56v4q0 5 -59 8q0 6 -35 7h-6 q-13 0 -14 -5zM202 850q0 -6 37 -7l5 1q-2 6 -11 6h-31zM489 823q5 -21 14 -21q10 13 10 21v6l-3 3h-9zM370 809v-3h7l3 3v4h-7zM380 783v-5h4q15 0 26 24l-2 2h-3q-25 -7 -25 -21zM478 785v-5h4l3 3v2h-7zM468 773v-6h3v6h-3zM386 680l3 -4q28 6 58 48l7 17l-2 2h-7 q-18 0 -58 -58zM314 683h2q22 12 22 27l-1 1h-2q-21 -5 -21 -28zM344 687v-4h3q11 7 11 14l-2 2q-5 -1 -12 -12zM375 662v-7h4l3 4v7h-3zM233 615l2 -2h12l27 21l1 7v4l-3 3h-2q-23 -7 -37 -29v-4zM358 573v-2h1l56 18q61 -5 83 -12q5 1 7 7h3q33 -27 53 -27h5l3 4v2 q0 16 -96 38q-6 0 -9 11l-7 5h-5q-33 0 -68 -32q-24 -6 -26 -12zM330 612v-4l3 -3h4v3l-4 4h-3zM212 571v-5h2q18 10 26 33h-3q-10 -7 -25 -28zM258 566v-7h5q16 0 25 26l-4 4q-14 -5 -26 -23zM268 521h4q93 24 93 31v2h-4q-45 -4 -93 -32v-1zM202 514l2 -2v-2q45 9 70 26v2 l-4 4q-49 -9 -68 -25v-3zM548 542v-2q4 -19 18 -19h10q14 0 16 7q-12 14 -30 14h-14zM580 501v-1q0 -11 23 -41l-2 -26v-33q0 -14 7 -16h2l3 30v49q0 23 -26 42h-4zM179 489v-2l4 -3h12q13 0 14 5v4q-3 7 -12 7h-2q-10 0 -16 -11zM522 493l9 -9h-4l-5 5v4zM552 456v-4l3 -3 h4v3l-4 4h-3zM547 379v-5l3 -4q16 28 16 49v16h-4q-15 -18 -15 -56zM610 370l-14 -26q3 -8 7 -9h3q9 4 9 18q-1 17 -5 17zM555 302v-2h6l8 9v7h-5q-9 -5 -9 -14zM543 258l4 -3l28 19v2l-4 3h-2q-12 0 -26 -21zM484 214h5q14 0 28 16v4l-4 15l6 14q-13 0 -25 -33 q-10 -10 -10 -16zM576 249v-1h7v5h-3zM531 209v-3l9 -2h10q21 2 21 17q-2 7 -10 7q-14 0 -30 -19zM314 116h3q125 54 125 76h-7q-28 -8 -100 -58q-21 -15 -21 -18zM534 174v-2h6q3 0 10 13l-3 3q-13 -4 -13 -14zM512 179v-1h8l4 3l-4 4h-3zM482 129h2q12 0 31 15q0 4 -5 4 q-28 -8 -28 -19zM375 106v-4h2q30 9 30 16v2h-2q-15 0 -30 -14zM457 102v-3h9l5 5v4h-8zM135 64l4 -4h24l4 4q0 3 -14 5q-18 -1 -18 -5zM260 64v-4q12 0 14 6v1h-11zM375 50l2 -2h2q28 8 33 14l-2 5h-9q-26 -5 -26 -17zM100 52v-2h14l4 3l-4 4h-8zM170 24l-31 7h-11 q-29 -2 -29 -11v-3q0 -4 89 -11q36 0 112 30l2 2v5h-2q-19 0 -82 -16z" />
<glyph unicode="4" horiz-adv-x="671" d="M193 990l1 1q76 -7 76 -24q-11 -62 -49 -396q-8 -72 -23 -106q-35 -49 -44 -119q9 -7 112 -16q34 -11 51 -11h17l70 6h32v1q-7 64 -14 324q-7 31 -12 35q0 9 45 14q0 4 12 5q19 0 23 -14l-7 -21q25 -41 25 -259q0 -77 10 -77h5q54 0 72 9v2l9 -7l-2 -12v-11l7 -10l-2 -14 q0 -41 -30.5 -50.5t-30.5 -16.5h-24q-4 0 -4 -5q11 -89 11 -179q7 -27 7 -63l12 -5v-2q0 -12 -88 -38q-12 9 -29 9l-4 3q16 98 16 151q0 141 -18 141l-59 2h-117l-42 -3q-200 2 -200 19q-5 0 -5 3q45 41 45 62q21 48 21 101q38 104 55 289q0 22 28 194q0 23 14 67h1 q9 -9 16 -9h7l5 5v7zM184 906q1 -18 5 -18h2v4q0 8 12 28l5 21v3l-3 4h-5q-16 0 -16 -39v-3zM214 841v-4l3 -3q7 3 7 12v11h-2q-5 0 -8 -16zM138 703v-2l4 -4h3l9 2v9l-5 10l10 48h-1q-20 -39 -20 -63zM193 578l1 -8h4q7 2 7 12v9h-5q-7 -3 -7 -13zM138 459v-1q16 0 16 21v7 l-2 1v2q-9 0 -14 -30zM453 484l-1 -2v-9h5v7zM133 451v-6h4l3 4v2h-7zM452 444v-20q1 -10 5 -10l3 3v11q0 13 -7 16h-1zM109 372v-2h3l4 4v1h-4zM91 318l5 -6h4l21 4v2q-3 7 -12 7h-6q-9 0 -12 -7zM539 314v-3q3 -7 30 -9q9 0 16 10v4q0 3 -6 3zM165 311l3 -4l32 4v1 q0 6 -23 6q-12 -3 -12 -7zM250 274q31 -9 161 -9q23 0 30 12q0 4 -24 6q-167 -3 -167 -9zM513 279v-3l9 -9l-7 -9v-2q1 -5 14 -5h12q22 0 40 5q0 3 -33 11q-7 16 -25 16h-7zM462 199v-6l4 -3l3 3v16h-2q-5 -2 -5 -10zM497 32q2 -15 7 -15l4 3v16q0 13 -6 14q-5 0 -5 -18z M459 -20v-2h1q9 4 9 14v2h-2q-8 -4 -8 -14z" />
<glyph unicode="5" horiz-adv-x="615" d="M356 876q215 -2 215 -10q-2 -5 -16 -12v-7l6 -14l-6 -21v-2l2 -2l-5 -5v-2l-18 14h-5q0 -19 -47 -19l-35 5q-184 -14 -222 -21q-12 -13 -28 -126q-13 -43 -13 -73h4v-2q37 2 37 14q-13 5 -16 12v4q0 27 100 35h10q74 0 105 -46q57 -37 88 -65l17 -19v-2h-2l-29 21h-4v-3 q12 -30 26 -33q0 -4 11 -4l14 2q9 -9 9 -16q-14 -1 -14 -7q2 -10 28 -24q9 0 10 -55v-52q22 -55 -2 -101l-2 -1h-4q-10 5 -15 24q2 13 10 21l-5 4q-16 0 -33 -48v-3q0 -5 15 -5l2 -2v-4q-33 -69 -79 -106q-12 -7 -29 -49v-2q13 0 71 63q20 37 56 80l2 -1v-4q-30 -56 -63 -93 q-103 -93 -178 -115q-143 -15 -197 -15q-14 5 -95 9l-2 1v2l18 67q0 35 38 35l7 1q24 -15 28 -15h6q16 0 47.5 3.5t36.5 3.5q45 -13 160 58q82 63 103 104q30 42 8 95q0 97 -42 133q-13 22 -72 45q-30 20 -65 20h-5q-49 0 -163 -42l-24 -4l-5 5v6q5 0 12 85q17 28 28 193 q3 59 12 59l2 2v2l-2 14h2q8 -5 28 -5q27 0 164 15h4zM508 852v-2q2 -7 16 -7h5q14 0 14 12l-5 4h-18q-9 0 -12 -7zM170 820v-3l4 -4q170 19 170 30h-4q-166 -13 -166 -17zM384 829v-5l31 -2q21 1 21 5q-1 6 -12 6zM176 784v-41l3 -3q5 11 5 28v16l-3 3h-2zM170 696v-3h4v3 h-4zM319 603l2 -1h38q46 0 46 5q0 7 -54 9l-32 -11v-2zM261 605v-2l6 -5h8l18 4v5l-25 3q-7 -2 -7 -5zM328 574q5 -13 30 -13h7q9 0 14 9v7q-2 5 -14 5h-20q-13 0 -17 -8zM205 558v-2l6 -5q10 0 17 10v2l-7 2q-16 -2 -16 -7zM128 547v-14l6 -5h15v4q0 15 -12 22h-2zM396 549 v-5l7 -7h2q3 0 3 5q-1 7 -10 7h-2zM498 500v-2q0 -10 10 -17h2v5zM482 476v-4l5 -5h2v3l-5 6h-2zM492 458v-5l4 -4l2 2v2zM499 435v-7l4 -3h3v5l-5 5h-2zM508 400v-3h7l4 3v4h-7zM508 378l-3 -13v-7h1l6 6v14h-4zM549 246h6v-2l-6 -5h-3v3zM569 228l5 -2v-1l-5 -6l-6 2v2z M259 62v-2q36 13 82 21q30 17 30 28l-5 5l73 28v2l-2 7q35 41 35 51l-1 2h-4q-12 0 -126 -93q-22 0 -82 -49zM181 17v-3l5 -2q22 0 120 8q11 0 70 37q19 15 19 24v2l-3 3h-4q-20 0 -66 -38q-79 -18 -117 -20q-24 -6 -24 -11zM170 63v-4h16l9 2v5h-9zM390 48v-5h2l5 5v3h-3z M72 26q2 -5 11 -5q13 0 14 5l-4 3h-17zM107 10l4 -3h3q11 0 34 8l15 -1q13 3 13 14v1h-6q-63 -10 -63 -19z" />
<glyph unicode="6" horiz-adv-x="569" d="M439 900q89 0 105 -14q-11 -9 -11 -15v-2l5 -30v-2q0 -42 -17 -42l-21 6h-5l-63 -7l-21 1q-18 -1 -97 -75l-8 -12q-28 -15 -44 -46q-15 -14 -47 -75q-5 0 -11 -23q-33 -24 -44 -54q-8 -6 -45 -70q-19 -24 -28 -45l-5 -6v-1h7q5 0 24 28q5 0 68 43q84 46 114 46 q52 0 133 -39q72 -67 81 -92q20 -15 31 -79q-24 -117 -49 -161q-72 -96 -72 -103l2 -9q-31 -27 -54 -35q-125 6 -147 10q-33 18 -68 28l-60 42q-58 76 -58 165q-7 5 -10 96q0 30 33 116q0 23 33 94q17 88 118 205q130 133 145 133q54 24 86 24zM510 881v-3l6 -6h1l4 4v2 l-4 3h-7zM125 587v-5h4q5 0 5 10q39 42 75 112q118 126 151 132q51 25 51 40v3h-4q-45 -8 -91 -47q-98 -98 -128 -136q-60 -81 -63 -109zM447 860v-2h23q14 0 26 7v9l-5 5h-12q-13 0 -32 -19zM500 864v-2l3 -4h6l3 4v2l-3 3h-6zM323 794v-6h2q21 8 70 35q19 0 31 14v2h-3 q-19 0 -100 -45zM435 813v-5h9q49 13 49 17v4l-9 1q-22 0 -49 -17zM134 566l2 -5h2q10 0 36 44q22 30 70 84q5 11 100 89l7 9l-2 1q-46 0 -117 -71q-57 -80 -93 -147zM101 501v-8q17 4 17 21l-1 1h-7q-9 -4 -9 -14zM246 465v-4h9q19 11 94 16v2q-11 10 -33 10h-14 q-30 0 -56 -24zM176 419v-5q13 0 35 24v2h-5zM449 426v-5q13 -37 44 -53l9 -1h1v5q-34 53 -54 54zM300 421v-4h9l4 4l-4 3h-5zM390 412v-3l5 -6h2l5 6v3h-12zM108 304q0 -74 56 -198q75 -47 105 -47q98 0 156 113l5 35q0 124 -39 161q-54 34 -129 34q-20 -6 -95 -53 q-37 -12 -57 -40zM421 361v-3q18 -18 18 -33h3l4 29v2l-2 9h-2zM61 328v-5q0 -4 5 -4q12 0 33 21v4l-5 5q-20 0 -33 -21zM495 305v-26l7 -7h1l4 4v17q0 13 -7 16h-2zM454 297l-3 -7v-9l3 -4h2q5 0 5 18l-1 2h-6zM68 279q0 -10 33 -94h2l3 3q-3 41 -23 107h-1q-14 0 -14 -16z M45 246v-14l3 -4h4v9l-2 9h-5zM477 232v-5l2 -9h2q8 4 8 17l-5 4zM444 223v-2l5 -5h4l5 5v2l-4 4h-7zM52 218l-4 -5v-11q8 -51 18 -51l3 4v16q0 47 -17 47zM458 192v-2l5 -5h2v3l-4 4h-3zM97 151v-5l7 -7h4v7l-5 5h-6zM433 106v-4l4 -3q28 36 28 44v1h-5zM78 129l-2 -6 q4 -8 7 -8h2v1q0 10 -7 13zM115 111v-3q16 -23 30 -23h1v3q0 6 -26 27h-2zM349 48v-2l4 -3q23 0 49 35v5h-4zM187 59q2 -8 8 -11h6q13 0 15 7v2q0 5 -17 7h-9q-3 0 -3 -5zM232 50v-4l4 -3h3v3l-3 4h-4zM243 36q10 -7 26 -7q19 0 31 10v2h-38q-19 0 -19 -5zM351 18v-3h5 q22 0 41 23v1h-4z" />
<glyph unicode="7" horiz-adv-x="569" d="M69 1005q233 -19 402 -25q34 -14 56 -19h9l2 2q9 -2 9 -5v-6q-23 -18 -23 -98v-8q0 -8 14 -20v-1l-37 -119q-90 -125 -159 -245q-74 -100 -102 -161l-1 -18l7 -119l-13 -149q0 -8 -52 -17l-14 5h-14l10 12v2l-3 4h-5q-13 0 -25 -6q-12 0 -12 27v47l2 105l-2 51 q14 64 44 112q35 36 35 64q5 0 12 20l66 99q55 88 93 182l7 9v5l-2 2l46 121v2q-22 0 -84 19q-46 0 -95 9l-29 -11q-88 12 -118 12h-10q-18 0 -18 -3q-24 0 -35 56q-2 0 -3 10q8 28 23 28l17 -1v1l-14 16v2q0 3 16 7zM93 973v-5l14 -16v-1h-29l-4 -4v-2l5 -5h9l19 4 q55 -11 93 -11h37q0 5 -49 12v4q169 -12 231 -25h9q3 0 3 6q0 20 -112 24l-205 19h-21zM282 937v-6l16 -3h9v2q0 5 -25 7zM454 931q0 -7 31 -7h2l5 6v5l-8 2h-7q-23 0 -23 -6zM78 914q0 -9 35 -9h22q-17 12 -52 12h-2zM268 916q0 -5 107 -16l30 -9h12l7 7q0 18 -156 18z M471 896v-3h7l2 9h-3zM452 860q3 -7 5 -7h4l7 7v7l-4 3h-7q-5 -2 -5 -10zM478 826v-1q0 -14 7 -16h4q7 0 7 47l-2 5h-2q-8 -5 -14 -35zM436 839l2 -9h4v5l-4 4h-2zM475 791v-1l-2 -39l2 -2h2q3 0 10 27v7l-5 8h-7zM400 781v-5l-20 -56v-2h4q24 35 26 56v3l-3 4h-7zM323 571 v-2h7q15 0 42 54q59 92 59 107v4l-3 3h-6q-8 -5 -52 -80q-47 -75 -47 -86zM426 669q-39 -67 -39 -77h4q38 46 38 75l-1 2h-2zM365 555v-2q4 0 21 23v5h-4q-17 -16 -17 -26zM335 503h2q21 21 21 36v2h-2q-10 0 -21 -38zM291 452v-4h7l7 18l-2 2h-1q-7 0 -11 -16zM228 447v-6 h2q21 14 21 23h-2q-12 -3 -21 -17zM233 405h2q6 1 11 10l-2 2v2q-11 -4 -11 -14zM216 387v-3h3l6 5v3h-4zM169 326h1q21 14 21 23h-1q-21 -10 -21 -23zM186 301v-1h7l2 5l-2 2h-2zM186 273v-24q11 -34 11 -44l5 -3h2q5 0 7 21l-7 35l5 28h-2l-2 1q-19 -7 -19 -14zM158 254 v-5l4 3v2h-4zM190 132v-4q0 -13 7 -16h3l4 4v2q0 9 -9 14h-5zM177 63v-3h4l3 3v4h-3zM135 48v-7q4 -9 18 -9h17q13 0 14 5q0 16 -31 16h-12zM205 30l2 -2v-1l5 1v6h-3z" />
<glyph unicode="8" horiz-adv-x="640" d="M341 982h11q17 0 51 -22q59 -23 59 -49q46 -94 46 -144q-6 -17 -11 -73q-22 -61 -59 -109q115 -96 129 -147q0 -10 37 -66l-4 -91l-1 -6h-4v14q0 13 -5 14h-4q-9 0 -12 -33q3 -19 9 -19h2q6 0 10 19h4q0 -45 -25 -82l-7 10h-5l-5 -5v-7l7 -7l-2 -9l5 -15q0 -13 -28 -30v3 l4 6v1l-4 4h-9q-22 -13 -35 -49l6 -2l33 25v-2q-32 -47 -65 -58q-24 -20 -56 -35q-25 -21 -100 -37q0 -3 -17 -3q-34 0 -114 33q-50 0 -124 166q-6 0 -12 49v25q0 87 28 140q15 72 36 72q0 16 37 59l16 18v5q-14 0 -89 89q-41 120 -41 144q9 8 9 26l11 -4h1q7 3 7 13v8l-5 6 h-3l-4 -11l-5 2v3q14 48 54 72q15 39 58 56q83 33 185 33zM110 874l2 -2h2q10 0 84 72q5 0 5 5h-3q-29 0 -76 -47q-10 -14 -14 -28zM287 932v-4l82 -23v25h4v2l30 -9h5q0 17 -67 17q-7 4 -28 4q-14 0 -26 -12zM175 895h4q33 16 33 26h-4q-23 -8 -33 -26zM147 750v-6 q2 -52 88 -154l17 -12h2l17 5h13q44 0 105 32q21 13 49 68q9 19 21 19l-4 14l9 32v7q0 3 -12 5l-34 91q-8 14 -43 21q-14 17 -104 42q-30 0 -112 -72q-12 -27 -12 -92zM408 909v-2q3 -10 14 -10h2l3 3q-3 8 -7 9h-12zM446 884v-3q9 -26 20 -26v7q-7 22 -20 22zM60 842v-7h1 q20 5 20 28v7h-6q-6 0 -15 -28zM67 776q0 -26 5 -26h2q14 0 17 17v19q0 44 18 65v11h-13q-8 0 -12 -42q-7 0 -17 -44zM450 842v-5l-4 -14l13 -23q0 -11 5 -17l-2 -11v-1h2l5 5v24q0 42 -12 42h-7zM124 774l4 -3q5 7 5 14h-3q-6 -2 -6 -11zM110 739q9 -65 41 -107 q41 -43 56 -50h5q0 4 -40 59q-45 79 -46 103l-7 6h-3q-6 -2 -6 -11zM483 750q-10 -29 -10 -44l1 -2h4q9 4 9 18v24zM63 725q4 -39 40 -100q5 0 25 -33q29 -33 54 -33h9v2q0 3 -67 64q-28 32 -28 42q-10 17 -19 70l-2 2h-7q-5 -1 -5 -14zM399 596h2q24 0 59 57l4 18v10l-4 6 q-9 -1 -33 -55q-10 -17 -28 -35v-1zM338 575l2 -2h8q8 0 21 7v5q-19 0 -31 -10zM413 568q18 -9 33 -9l2 2v5l-5 5h-26zM376 548v-3q5 -6 62 -26q27 -21 35 -21v7q-34 47 -81 47zM205 547v-4q0 -6 23 -7h12l3 4q0 7 -29 8zM270 547v-4l3 -3h4q22 0 40 5v3h-30zM98 428h4 q10 0 82 73q6 0 19 18v1q-2 7 -16 7h-5q-22 0 -61 -54q-3 0 -9 -21q-14 -15 -14 -24zM159 400l2 -2v-2l9 2l3 -4q-40 -84 -40 -106v-4q0 -143 46 -177q56 -54 96 -54h12l4 4q-2 4 -51 26q-44 27 -56 42v2h2l73 -41q85 -28 109 -28h5q9 0 44 32v-7q41 15 66 59l5 21v2l-19 -9 v2q32 47 32 65q0 53 -13 100v14q0 20 -12 77v1l5 2l11 -7l2 2v7q0 15 -11 21h-5v-14h-4q-5 3 -19 40q-41 58 -115 58q-142 -25 -142 -63q0 -43 -39 -61zM121 408v-1q10 0 19 14v3h-2q-14 0 -17 -16zM91 326q0 -9 18 -10q13 0 22 29v7q0 5 -17 6l-2 1v2q0 4 14 4q6 0 14 19v2 l-3 3q-9 0 -18 -5l-2 2l2 1v2l-2 9h-8q-18 0 -18 -72zM537 379q3 -32 9 -34q4 0 5 16q-4 23 -10 23q-4 0 -4 -5zM516 312v-5l4 -16l-5 -5v-7q0 -10 7 -12h7q10 6 10 15v6q-8 50 -14 50h-2q-7 0 -7 -26zM63 209q36 -79 51 -95h2v2l-30 131q-5 24 -5 46l3 28l-2 2h-7 q-9 0 -12 -114zM574 228l2 -2h2q7 2 7 11h-2q-5 0 -9 -9zM536 167v-7h1l6 5v7h-2zM448 132h2v-4l-7 -7h-2v4zM431 111h5v-4h-5v4zM140 97v-19q0 -24 39 -35h3l4 3q-10 24 -41 51h-5zM305 50v-4l3 -3h14q9 0 11 5v2l-9 1h-7zM205 34v-4q21 -26 84 -26q19 2 19 5v4 q-19 0 -93 23h-5zM327 15v-4h2q19 0 44 18v3h-2q-44 -9 -44 -17z" />
<glyph unicode="9" horiz-adv-x="637" d="M296 908q176 -3 176 -21q56 -35 56 -51q-32 23 -40 23h-7v-2q1 -12 54 -52h4l-4 16h2q29 -33 46 -111l28 -134v-20q-13 -145 -21 -145q-5 -27 -25 -87q0 -37 -19 -58l-4 3v6l6 8l-2 14h-4l-38 -50q-30 -15 -30 -27q0 -6 9 -10h3q15 0 53 47h2l1 -2h2q0 -39 -112 -129 q-40 -26 -114 -84q-8 -4 -17 -26q-80 -67 -89 -67q-26 0 -49 -12q-17 0 -44 93l12 15l-9 11v2l16 21h19q24 21 32 21q-7 -8 -7 -13h2l1 -1h2q8 3 9 7v7h-5v1q29 2 117 74q95 68 108 82q15 19 41 35q22 27 22 35v2h-5l-10 -2l-6 2q37 81 37 94v6l-5 5h-2q-9 0 -89 -75 q-30 -14 -119 -14l-39 14q-69 12 -91 38q-108 125 -108 170q-25 52 -25 91v12q0 40 49 109q0 10 39 70q74 57 173 57zM229 887v-3q0 -7 53 -9v3q0 8 -28 9h-25zM409 884q5 -20 37 -20l4 6q-11 17 -32 17h-5zM294 882q22 -18 105 -40h9v1q0 12 -86 37l-23 2h-5zM152 842v-2 q0 -4 5 -4q11 5 25 21l-2 2h-2q-21 -9 -26 -17zM462 850v-1h3l4 3v2h-4zM201 838v-2h2q28 0 51 7v6l-14 1q-27 0 -39 -12zM110 611v-16q2 -6 18 -12q14 -58 31 -69q112 -66 140 -66h4q80 23 113 61l42 67q46 36 46 70v3q0 93 -88 144q-48 38 -73 38l-21 4q-17 -9 -81 -21 q-105 -39 -105 -63zM126 808v-1l5 -6h2q17 11 17 21v4h-7q-17 -4 -17 -18zM415 826q0 -17 40 -32l2 2v2q0 10 -37 28h-5zM115 786v-2l4 -4l5 6l-5 3zM73 719v-14l2 -2l-5 -12v-12q1 -11 5 -11h2q10 0 12 69l-2 5h-3q-11 -8 -11 -23zM528 742v-4l6 -17v-18l7 -24l-4 -9 l12 -23l-1 -7q4 -5 12 -56h12q7 3 7 13v3q0 84 -21 84l-16 21v5h4l5 -3h4v3q0 11 -23 32h-4zM38 679v-7l4 -4h3q7 3 7 16v11h-5q-5 0 -9 -16zM68 639q0 -32 7 -32l9 33q-3 16 -7 16h-2q-7 -2 -7 -17zM546 546l3 -49h6q5 17 7 56q-2 26 -9 26t-7 -33zM75 553q0 -15 23 -56h5 v3l-2 13l2 1h11v2q-19 42 -35 42q-4 0 -4 -5zM112 488v-5q16 -21 30 -21h3v2l-30 24h-3zM145 436v-7q17 -9 26 -9h6v3q-9 13 -27 13h-5zM364 371v-5h3l4 3v2h-7zM541 313l1 -2h2q7 0 18 35v2h-2q-9 0 -19 -35zM504 322v-5h2q14 1 14 15v2h-4q-8 -4 -12 -12zM457 318h1 q-8 -18 -8 -24h-6v7zM383 129l2 -1h2q37 17 84 61v3h-4q-28 -6 -82 -59l-2 -2v-2zM327 157v-3q11 0 19 12l-1 2h-2q-14 -5 -16 -11zM261 40v-5h1q32 13 32 28v2h-2q-23 -8 -31 -25zM152 49l4 -4l5 6v1h-5zM192 9l6 -4q24 0 50 33v4h-3q-21 0 -53 -33zM157 -23v-14h6 q15 9 15 19v2l-7 7q-14 0 -14 -14zM189 -33v-2h5l18 5v5h-6q-17 -3 -17 -8z" />
<glyph unicode=":" horiz-adv-x="284" d="M166 666q51 0 59 -65q0 -34 -42 -96q-34 -35 -51 -35q-46 0 -80 65v7q16 75 30 96q50 28 84 28zM136 647v-6l9 -1h21q12 0 14 5q0 5 -18 7zM99 626v-6h4l3 4v2l-3 3zM134 587q0 -3 19 -5q6 -11 18 -11v-5q0 -4 -23 -10l-2 -6q5 -11 11 -14h3q21 6 21 27v1l-14 32l6 3 l10 -1l4 3v2q0 17 -28 17q-21 0 -25 -28v-5zM99 578v-12q0 -13 5 -14h2v26l-3 4zM131 258h29q41 0 58 -51v-5q-8 -68 -21 -80q-29 -41 -49 -41q-35 8 -54 32q-18 32 -18 45l14 60q0 29 41 40zM104 225v-4h2q14 0 26 14v4h-5q-14 0 -23 -14zM164 213v-2q0 -16 9 -16q5 6 5 12 q-2 9 -5 9h-6zM143 207q-9 -9 -9 -15v-4l4 -3h14l3 3v4q0 12 -12 15zM155 160l-28 2l-2 -5q5 -13 16 -13h12q35 0 35 20v5l-1 9h-4q-17 -18 -28 -18z" />
<glyph unicode=";" horiz-adv-x="284" d="M145 700q54 -18 72 -49q9 -39 9 -56q-12 -48 -23 -58q-23 -21 -44 -24l-10 1h-6v-1l6 -7v-2h-6q-42 0 -75 47q-12 22 -12 51q0 43 23 68q42 30 66 30zM101 630v-5q17 0 53 35v5l-5 2q-48 -15 -48 -37zM192 635q0 -17 -14 -68v-2q18 0 27 40v16q0 14 -13 14zM140 607l2 -5 h5q9 4 9 14v3l-4 4h-5q-7 -3 -7 -16zM82 614v-19q0 -17 12 -25h2l2 9q0 39 -9 42zM122 576v-4l4 -3h2v3l-4 4h-2zM143 542v-5h6q33 7 33 14v2h-2q-16 0 -37 -11zM161 201q31 0 42 -28q14 0 21 -19q-18 -30 -18 -42l2 -2h4q7 0 15 30h6q12 0 12 -75q-21 -140 -39 -140h-3 l-2 5l7 38h-2q-8 0 -31 -63v-5l2 -2h1l16 9q-33 -47 -68 -61l-7 5q26 69 26 116v5q0 65 -10 65q-86 10 -86 77q0 72 112 87zM136 178q0 -5 21 -8h13q9 0 10 5q0 7 -28 9h-5q-11 -2 -11 -6zM98 133l5 -2q14 7 18 14v5h-2q-21 -6 -21 -17zM133 115h3q14 13 14 25 q-17 -5 -17 -25zM100 107v-4q9 -15 28 -26h5v3q-18 26 -32 27h-1zM192 63v-5h4v5h-4zM170 24h7q10 0 10 11v3h-5q-12 -6 -12 -14zM198 23v-7q12 0 12 14v1h-4zM159 -49h4v-2q16 12 24 42v2l-3 3q-6 -2 -18 -31q-7 -6 -7 -14z" />
<glyph unicode="&#x3c;" horiz-adv-x="392" d="M291 554q23 -19 31 -19v-7q-5 0 -5 -4l5 -5h4l7 2q4 0 8 -9q0 -24 -129 -136q-18 -10 -18 -21v-4q0 -16 35 -51q54 -68 121 -143v-4q-12 0 -75 -24q-24 0 -93 87q-117 125 -117 142l-4 4v3l2 2v2q20 -11 28 -11l25 42v4l-41 -7l-1 1v2q51 48 148 116q42 35 69 38z M270 467v-4q17 0 31 32v7h-3q-16 0 -28 -35zM236 474v-6h6q19 3 19 9v2l-4 3h-7q-9 0 -14 -8zM149 447h2q22 6 22 21q-14 0 -24 -21zM196 418l2 -2h2q13 3 31 28v5h-7q-28 -21 -28 -31zM250 208q9 -21 20 -28l3 3v9q-7 12 -19 19zM261 160v-7q4 -10 14 -10h2v2q0 10 -13 15 h-3z" />
<glyph unicode="=" horiz-adv-x="598" d="M523 304q8 -2 -2 -110h2q-2 -15 -144 -2q-161 -8 -207 -1v3q2 12 120 8q52 3 53 9l1 2l-14 2q-164 15 -170 -19l-11 -4q-47 8 -31 105q4 25 113 21q0 2 14 1l27 -10l12 -2l230 -2zM476 286l-1 -3l12 -2h9l1 4l-12 2zM413 280l17 -3q13 -2 17 5v2h-3q-30 2 -31 -4z M338 280v-4h2q13 -2 16 4v2l-6 1q-11 1 -12 -3zM424 250l29 -5q45 -5 51 5v3l-6 3q-73 1 -74 -6zM271 278l-1 -5l2 -1q29 -4 47 5v2l-4 1q-15 2 -44 -2zM142 293l-3 -17l3 -4l2 -1q5 0 10 17v5l-2 4h-4zM184 286l-1 -1l7 -1l4 2l1 4l-5 1zM394 253v-3l7 -2l-3 4zM374 212h1 q124 -15 125 -8v2q0 5 -7 10h-2q-45 7 -117 -2v-2zM136 257v-4h3l4 3l1 3l-4 1zM534 476q8 -2 -13 -109l2 -1q-4 -14 -143 12q-162 8 -207 20l1 3q3 12 120 -4q52 -2 54 4v2l-13 3q-162 31 -171 -2l-11 -3q-46 12 -21 107q6 26 114 10q1 2 15 0l25 -12l12 -3l229 -26z M485 463l-1 -3l12 -4h9l1 3l-12 3zM422 463l17 -4q13 -4 17 3v1l-3 1q-30 5 -31 -1zM348 470l-1 -4h1q13 -3 17 3l1 2l-7 1q-10 2 -11 -2zM430 432l29 -7q44 -10 50 -1l1 3l-6 4q-72 8 -74 1zM280 475l-1 -5l2 -1q28 -7 47 1v1l-3 1q-15 4 -45 3zM154 502l-5 -17l3 -4h1 q5 -1 12 15l1 5l-3 4l-3 1zM194 492v-2l7 -2l4 3l1 3l-5 2zM401 438l-1 -3l7 -2l-3 4zM376 399h2q121 -27 123 -20l1 2q0 5 -7 11h-1q-44 11 -117 9zM144 467l-1 -4h4l4 2l1 3l-3 1z" />
<glyph unicode="&#x3e;" horiz-adv-x="398" d="M139 598q31 -6 31 -28l-1 -5h-2l-14 3q-8 -3 -9 -7v-5h14l19 3q105 -130 116 -168q28 -35 28 -43q0 -10 17 -20l11 -19q-4 -25 -82 -93q-69 -77 -90 -112h-5v2l2 18l-2 1h-2q-12 -10 -59 -31l-2 2v1l4 21q0 5 -27 13l-7 8v21l-5 13q9 39 107 143q7 0 7 5v2q0 15 -107 179 q-23 34 -23 43l6 2l19 -7h2l12 16q17 9 17 19h-5l-30 -14v2l-1 2q17 33 61 33zM99 510q0 -10 28 -43q0 -6 42 -58l56 -88q0 -10 19 -12h2l5 5l-63 100q-25 14 -25 33q-25 30 -36 56q-13 18 -20 18q-5 0 -8 -11zM230 447v-1q6 -22 65 -114l-2 -5h-2q-8 0 -45 38v-2 q16 -50 42 -50l29 -2v3q-17 20 -61 104q-17 29 -26 29zM92 164v-5l3 -4h4q9 0 56 42q63 49 84 95h-4q-11 0 -136 -123q-7 -1 -7 -5zM258 271v-4h2q40 0 40 18v1l-5 6h-7q-12 0 -30 -21zM130 146v-5l5 -2q27 0 65 53q6 2 12 17q32 0 46 35v7h-7q-121 -100 -121 -105z" />
<glyph unicode="?" horiz-adv-x="569" d="M323 927q29 0 120 -37q119 -54 119 -152v-49q0 -49 -33 -103q-19 -67 -31 -67q-55 -27 -55 -45v-14q0 -51 11 -105q-4 -72 -18 -72q-11 0 -49 -25l-14 -3q-24 0 -24 26q-25 142 -25 208q0 13 67 69q35 34 42 52q14 16 17 16l13 -4q11 0 22 56v4l-14 26v4h-1l5 14v19 q0 14 -23 33q-9 28 -33 28q-46 16 -103 16h-14q-75 0 -139 -100l-54 -70v-3q-29 -37 -54 -8t-25 43l16 52q17 38 60 75q79 65 141 98q34 18 76 18zM247 887v-2h16q37 0 63 16v5l-3 3h-14q-33 0 -62 -22zM373 887v-2q0 -4 9 -5q16 1 16 7l-4 3h-17zM214 862l4 -3l17 5v7h-3 q-14 0 -18 -9zM470 855l-2 -2q9 -20 37 -31h7v2q0 9 -42 31zM125 803q25 0 58 31q14 5 14 9v2l-9 8h-2q-6 0 -51 -31q-10 -4 -10 -19zM302 853v-3h5v3h-5zM102 783v-3h2q7 2 7 10h-2zM534 769v-3q0 -10 7 -12h2v1q0 10 -7 14h-2zM144 750v-2h2q6 2 10 11v2l-3 3 q-9 -4 -9 -14zM65 726v-2l6 -2q19 12 19 25v5h-4q-21 -15 -21 -26zM83 691v-4h3l4 4v3h-4zM92 628v-4h3v4h-3zM459 614v-6h4l3 4v2h-7zM470 549v-4h3q13 0 14 7l-2 2h-1q-14 -1 -14 -5zM359 479v-4q0 -33 18 -33q3 0 5 12q-1 42 -7 42h-7q-9 -4 -9 -17zM412 444v-2h7v5h-4z M368 421v-3q0 -10 9 -14h3l2 8q0 9 -9 14zM380 323l6 -17l-6 -23h9q10 0 16 10v6q-5 4 -5 26l-7 5h-6zM407 183q23 -1 75 -30q21 -6 21 -10q0 -5 -25 -9l-1 -2v-3l8 -23q25 -64 -30 -100q-88 -3 -118 84l-4 21q0 30 74 72zM398 159v-2q4 -8 42 -18l2 2v4q-11 14 -35 14h-9z M387 99q0 -3 13 -9q1 -8 5 -8h3l16 21q0 8 -9 12h-21q-7 -3 -7 -16z" />
<glyph unicode="@" horiz-adv-x="1086" d="M613 1030q39 -15 83 -15q5 -6 68 -20l58 -49q33 -12 89 -63q28 -5 28 -15l-4 -14q0 -11 41 -63q29 -49 47 -130q9 0 14 -145l-4 -35l4 -18q-12 -116 -32 -145q0 -5 -7 -10h-3q-5 0 -5 7q4 7 12 57q10 10 10 20v5l-8 19q7 27 14 161l-21 77q0 36 -20 74l-1 -6 q24 -111 24 -227q-12 -135 -23 -135q-15 -44 -26 -86q-28 -40 -28 -50h5q31 13 55 45q7 0 31 16h4v-2q0 -17 -160 -175q-21 -5 -43 -35q-11 -28 -51 -45q-176 -65 -214 -65q-25 -5 -91 -11q-71 43 -187 142q-108 61 -149 180q-49 144 -49 181v38q0 115 49 250q54 88 97 133 q89 80 134 84q19 7 65 32q36 19 149 30zM603 1018v-5l9 -2h15v4l-3 3h-21zM564 994v-2l25 -4l14 2v5l-9 2h-26zM442 969v-3h7q25 0 61 19v2l-5 1q-53 -2 -63 -19zM647 987v-4l7 -7h19q0 4 -23 11h-3zM547 980q0 -3 7 -6l5 2v2l-5 5h-4zM722 980v-4q0 -7 35 -14h10v5 q-8 14 -31 14zM694 939v-3q3 -9 45 -12q9 2 9 5v2q0 7 -44 15q-7 0 -10 -7zM183 582q4 0 7 -14q-7 -145 -12 -162v-9q6 0 12 -40q22 -85 66 -121q72 -112 104 -112q61 -19 126 -30q36 -12 92 -12h13q65 14 152 54q25 6 68 47l9 13v7q-77 5 -77 15q-16 0 -44 95v12l2 25 q-3 14 -7 14q-24 -9 -123 -70q-27 -11 -42 -11h-1q-83 0 -121 49q-33 28 -40 60q-30 72 -30 91q0 76 40 154q22 22 35 52q89 98 180 98q42 0 123 -65h2l8 20h4l10 -4h2q15 0 25 5l12 -12q16 0 16 -28q0 -135 -32 -233q-21 -4 -21 -8q11 0 21 -123q0 -36 39 -72h1q10 0 67 42 h5v-5h2q35 58 52 124l2 11l-14 184l4 15q-28 127 -44 179q-28 47 -40 47q-39 28 -177 67q0 4 -28 7h-46q-95 0 -150 -30q-64 -27 -84 -63q-37 -47 -75 -72q-53 -74 -79 -103q-4 -67 -12 -86zM766 920v-3q0 -5 50 -23h6v3q0 5 -20 11q-5 14 -21 14h-7zM302 826v-2l3 -4 q20 0 55 62v3l-4 4h-14q-40 -49 -40 -63zM862 878v-2q8 -19 56 -68q0 -8 12 -10l2 1v2l-49 63l-18 14h-3zM293 810h5v3h-1zM150 694h3q15 0 26 30h4q3 0 3 -5l2 -2h2q17 0 28 42v2h-5q-26 -21 -34 -21h-1q0 10 40 49l3 10l-1 2q-70 -40 -70 -107zM582 768v-7q62 -36 119 -82 l10 -4h4v5q-42 68 -112 88h-21zM501 733v-5h6q17 0 26 12l-4 3h-7q-15 0 -21 -10zM764 719v-11h3l4 4v12h-2zM923 719v-4q4 -24 11 -24l3 5v7q0 10 -10 16h-4zM417 540q0 -99 34 -127q48 -32 82 -32h17q67 12 67 28q41 30 51 75q14 60 14 100v11q0 35 -42 89q-23 16 -49 17 h-23q-39 0 -96 -49q0 -11 -25 -24q-16 0 -30 -79v-9zM760 694q1 -57 7 -57h2l2 17v23q0 13 -9 17h-2zM155 675h3l6 5v6q-9 -3 -9 -11zM139 656v-4h2q10 8 10 16l-1 2h-2q-9 -4 -9 -14zM699 645l16 -52h5v26q0 20 -17 32q-4 0 -4 -6zM944 644v-4q0 -25 5 -58q-1 -9 -10 -21 v-5q6 0 12 -82l2 -2h2q9 0 14 56l-9 46l3 10v11q0 42 -15 52zM115 570v-10l3 -4q8 0 14 60l-2 1h-3q-10 0 -12 -47zM116 540v-5h4v5h-4zM727 495h5q9 4 9 14v5l-3 25q-7 0 -11 -44zM358 500v-23q3 -22 10 -22h4v5l-9 54q-5 -1 -5 -14zM113 458v-2q5 -4 14 -38l2 -2h3v2 q0 16 -7 47h-5zM97 427v-18q3 -19 9 -19h2q5 0 5 16t-11 24h-1zM717 407v-7h1l4 4v7h-2zM454 386q0 -20 56 -24h21l4 3q0 4 -81 21zM566 371v-2l4 -4q16 0 28 14v4h-9q-23 -6 -23 -12zM578 332v-3h7q29 0 69 43l-4 4q-71 -41 -72 -44zM708 339l5 -5q7 3 7 12v9h-2 q-7 0 -10 -16zM144 348v-4l14 -40h7v12q0 19 -17 35zM907 309v-3h2q26 29 26 42l-3 3q-14 0 -25 -42zM473 315v-6l21 -3h37q32 2 32 9q0 5 -25 5q-42 0 -65 -5zM137 315v-2q0 -10 7 -12h7v3l-10 11h-4zM881 297v-3l5 -6h6v2q0 9 -6 11h-1zM827 253h2q16 9 36 30v4h-1 q-23 0 -37 -34zM146 278v-5q15 -49 28 -56h9l3 3q-22 61 -35 61h-1zM760 266v-2q0 -6 18 -7l5 2v3l-3 4h-20zM732 259q13 -37 46 -37l30 -2l19 2v3q-6 7 -65 21q-23 13 -30 13zM855 248v-2q0 -3 5 -3q8 3 9 7v2h-11zM720 105l2 -2h2q70 15 120 68q51 53 63 70v4q0 3 -5 3 q-19 -9 -117 -103q-63 -36 -65 -40zM200 236q4 -16 9 -16h2l3 4v1q-4 11 -14 11zM913 201l3 -4h4l5 6l-4 3h-3zM895 199v-2h7v6h-3zM820 108h9q25 0 40 28v7q-19 0 -49 -31v-4zM276 122v-2q17 -25 47 -36l5 1v4l-45 33h-7zM629 56h2q52 0 138 36v4q-45 0 -140 -37v-3zM507 1 q0 7 -25 7h-26q-40 -1 -40 -8q26 -32 50 -32q15 0 105 30q51 0 172 42q40 17 70 52v4h-4q-11 0 -52 -37q-17 0 -74 -24l-176 -35v1zM375 89q9 -7 20 -7l3 3v2q-1 5 -14 5h-5zM433 64v-1q0 -5 16 -7l2 1v2l-6 5h-12zM480 29l4 -3h19q21 0 21 7v2l-9 1q-35 -1 -35 -7zM381 22 v-3q0 -5 19 -5l10 1v4q0 5 -17 7h-9zM552 -20l-2 -1v-2h6z" />
<glyph unicode="A" d="M431 924q81 -12 81 -31l67 -198l45 -159q33 -157 89 -336l26 -58l7 -33l-4 -16q16 -10 36 -13h28l2 1q14 -3 17 -7l-9 -17l2 -23q0 -14 -14 -30h-5q-11 11 -18 11h-3q-14 0 -16 -7q0 -4 25 -7v-4q0 -4 -16 -7l-19 6h-13l-87 -9q-27 0 -72 35l11 12v5l-13 30q0 16 51 16 l2 2v5q0 63 -57 142h-2q-143 -12 -337 -30h-31q-7 -7 -38 -110v-1q7 -6 16 -6h28q48 0 82 -38v-2q0 -11 -35 -37q0 -15 -211 -15q-35 2 -35 8l5 18v2q0 5 -11 24q0 9 25 21l3 5v20q0 12 13 12l5 -5l-5 -16l1 -2h2q16 24 16 33v6q0 8 -4 8q14 29 23 67l72 200l26 65 q1 13 25 42v3l-4 14q14 9 14 18l-3 3q0 14 17 30l-2 9l64 187q26 47 43 100q4 1 21 28q56 27 74 29zM451 902v-6l5 -5h10l4 4v1q-2 6 -11 6h-8zM421 856v-3l3 -4h2v4l-3 3h-2zM416 787h1q14 0 14 12v5h-5q-10 -7 -10 -17zM231 299l4 -3q181 29 286 29h56l5 5v3q-6 49 -25 49 q-67 198 -87 264.5t-31 90.5q-10 20 -18 25q3 9 0 -30q-104 -205 -141 -265q-22 -42 -49 -161v-7zM254 545l-2 -9v-4h2q5 -26 5 -18v2zM243 501v-4h2v4h-2zM566 356l2 -2v-12l-4 -3l-3 10zM472 298l3 -3h7q13 0 14 5v2h-21zM366 275v-4h5v4h-5zM709 234v-16l-66 -16h4v12 q69 20 63 20h-1zM154 194l-2 -9l2 -7h4l3 4v9l-3 3h-4zM93 175v-4q9 0 12 9l-3 4zM652 186v-5l40 3v2h-38h-2zM88 91v-4l3 -3h2l3 3l-3 6zM716 107v-9l5 -5h2v9l-5 5h-2zM759 39v-3h1q27 0 27 9l-6 5q-14 0 -22 -11zM641 -4v-2h6q9 0 10 5l-3 4q-10 0 -13 -7z" />
<glyph unicode="B" horiz-adv-x="748" d="M70 878l16 -5q79 5 327 5l66 -21q62 -8 86 -26q102 -91 102 -156q-4 -33 -28 -114q-47 -48 -91 -82q0 -13 26 -21q13 -11 44 -23q17 -18 54 -68q50 -50 59 -119l2 -16q-1 -14 -10 -14v-2q0 -8 14 -36v-11q0 -15 -20 -56q0 -18 -29 -24q-18 0 -37 -25v-3q0 -4 12 -6v-1 q-2 -6 -10 -6q0 7 -4 7q-3 0 -7 -10q-25 0 -58 -23v-2h4q7 0 40 14v-1q-20 -21 -86 -34q-86 -40 -357 -40v2l-1 7q-67 0 -118 -25q-21 0 -21 77q0 13 83 34q61 7 61 12v3q-8 0 -19 116q-3 46 -9 63q0 17 12 40q-3 100 -16 100q-8 0 -15 226l1 141q-32 13 -40 13h-10 q-10 0 -13 -7v-2l2 -11q0 -5 -19 -47v-2l-23 -1q-4 4 -26 8q-13 0 -16 81q-5 28 -16 54q21 30 46 30q0 3 42 7zM199 832l2 -1h39q52 0 52 10v2q0 2 -7 5q-82 -6 -86 -16zM136 836l37 -11h2q9 0 14 9q0 7 -32 9q-21 -2 -21 -7zM324 843v-4h7v4h-7zM551 806v-2l7 -7h7l4 4v2 l-7 7h-7zM224 790v-3l3 -4h7q69 6 76 16l-2 2q-84 -3 -84 -11zM234 752q11 -298 18 -298l5 -3h2l126 30q82 9 82 21q102 78 102 108v7q-16 77 -16 91q0 37 -49 67q-12 3 -68 5q-202 -9 -202 -28zM544 768v-4q25 -24 25 -63q8 -37 15 -47h2v12q-12 102 -30 102h-12zM628 738 v-4l7 -7h4v6l-6 5h-5zM602 701l2 -5h5l7 7l-4 3h-5zM612 673l-1 -2v-7l3 -3l2 2v7zM157 631v-12l4 -4h2l3 4v5q0 9 -5 11zM528 503v-1h4l3 3v4h-1zM332 447h4v-1q86 5 86 15v2h-7q-77 -3 -83 -16zM479 449v-3h2q26 0 74 -14h1q4 0 4 5q-9 21 -37 21h-16q-28 -1 -28 -9z M577 428v-2q18 -19 32 -19v2q0 12 -32 19zM338 398q0 -3 5 -3q42 3 79 10l49 2h17l9 2v2q0 7 -42 7h-25q-72 0 -92 -20zM318 402v-2h6v2h-6zM532 402v-4h3v4h-3zM250 384v-3h4q35 4 35 10h-4q-12 0 -35 -7zM243 355l-2 -30q7 -239 21 -270q7 -22 34 -22l124 -7q71 4 182 64 q54 51 54 72q5 0 7 14v5q0 61 -38 133q-40 42 -63 42l-11 -1q-9 2 -9 5q2 5 11 5v4q-12 14 -30 14h-2v-2l7 -9l-1 -2h-2q-64 20 -103 20h-7q-96 0 -167 -27zM612 376q6 -21 35 -42h4v5q-4 20 -32 40h-3zM600 52l2 -2h2q17 0 29 21l-1 2h-2q-30 -10 -30 -21zM198 64v-2 q1 -5 10 -5v4l-3 3h-7zM563 36v-5h4q10 0 19 12v4q-23 -5 -23 -11zM159 12v-6l9 -1h7l9 1v6l-9 1h-7zM296 -4h7l-4 3zM101 -9q2 -6 11 -6l7 6l-4 3h-10z" />
<glyph unicode="C" horiz-adv-x="804" d="M403 917h12q69 0 150 -47q44 -41 55 -41h7q12 6 12 16v2l-7 21q0 4 9 7q9 -3 17 -11h2v4q0 16 -21 33q7 4 28 4q8 0 52 -27q9 0 9 -10v-130q0 -90 -14 -105l-2 -5l4 -5v-2q0 -21 -61 -21q-12 -7 -18 -7h-5q0 23 -32 79q-22 90 -45 108q-22 27 -124 44l-41 4l-54 -6 l-10 11q-25 -2 -88 -60l-3 -12v-2h5q61 50 82 58v-2q-30 -31 -122 -92q-38 -28 -58 -77q-33 -81 -33 -156q0 -133 31 -191q56 -152 128 -215q95 -51 177 -51h21q41 0 91 30q14 28 73 77q47 37 47 61v5l-1 37q0 6 17 16q0 5 7 9h4l33 -6h24q11 0 11 -19q14 -67 14 -96 q0 -70 -18 -116v-5l2 -10l-7 -11v-2q0 -3 23 -7v-3l-91 -44h-4q-19 25 -33 67l-2 1h-1q-24 -9 -63 -33q-108 -47 -133 -47l-84 26l-16 2h-9l-17 -5q-33 0 -104 29q-58 15 -96 76q-98 142 -98 217q-12 51 -12 77q2 14 17 14l2 -13v-8h7l5 5v5q0 21 -31 26q-4 0 -7 151 q0 33 38 124q4 0 7 39q5 2 11 33q39 46 103 87q29 27 81 49q105 46 147 46zM355 887v-3h4q17 2 17 7l-3 3h-2q-13 0 -16 -7zM448 894l-2 -2v-3l21 -4h4l3 4q0 5 -26 5zM236 843v-3h2q26 8 53 26v2l-2 2h-2q-33 -8 -51 -27zM439 856q0 -5 60 -16l7 -5h9l5 5v2q-13 0 -30 15 q-25 11 -38 11t-13 -12zM600 815v-3q10 -16 21 -16h2l4 4v1q-12 14 -23 14h-4zM222 786h4q8 3 9 7v1h-2q-7 -2 -11 -8zM207 768h5l5 5v4q-10 0 -10 -9zM618 768v-3l5 -2l4 5l-4 4h-2zM114 735q16 0 24 12v4h-5q-16 0 -19 -16zM665 679v-4l5 -1l4 3l-2 5h-3zM646 649v-3 q24 7 24 14q-1 4 -8 8h-4q-12 -9 -12 -19zM646 621v-7h5q9 0 12 7v2l-3 3h-9zM91 565v-3h5l6 5v10h-4q-7 -3 -7 -12zM46 551l-6 -21v-12h4q5 1 5 14v19h-3zM37 504v-7h5l4 3l-4 4h-5zM81 392v-25q3 -32 38 -82l2 -2h5v6q-26 80 -37 159h-1q-7 0 -7 -56zM53 439l-2 -9v-12 l5 -5l4 3v9q0 13 -6 14h-1zM47 336v-4l6 -5h1v5l-3 4h-4zM79 278q0 -9 7 -12h2l3 3v4l-7 7zM81 243v-3q7 -30 15 -30h2q4 0 4 5l-20 28h-1zM707 205v-2l7 -7h2q17 2 17 7v2l-3 3h-19zM726 175v-5q4 -9 11 -9q5 6 5 16v8q0 4 -5 4q-11 -4 -11 -14zM707 168v-18l5 -5h2l4 4v10 q0 9 -7 12zM156 157v-1q23 -44 38 -44v7q-28 37 -38 38zM107 149l3 -4h2l4 4l-4 3h-2zM665 135v-4h7l4 4v3h-7zM712 138v-5h4l3 3v2h-7zM123 131v-2q0 -5 8 -19h6v2q0 10 -13 19h-1zM655 112v-2h3l7 4v5h-2q-8 -4 -8 -7zM203 103q0 -17 26 -24h4l5 5q-12 15 -30 21zM721 103 v-10l4 -4h1v11l-3 3h-2zM145 98q9 -32 28 -42h7v9q-11 19 -31 33h-4zM245 59v-1q0 -6 37 -13v2q-7 12 -30 12h-7zM627 40v-2h1q10 0 14 9v2h-1q-10 0 -14 -9zM716 37l3 -6l6 2v4l-4 3h-2zM215 19v-2q1 -4 60 -22q0 -6 24 -6l6 2v2q-2 6 -51 24q-4 5 -23 6h-12zM285 23l-1 -2 v-2q35 -24 89 -24h9l3 3q-73 25 -100 25zM397 7q17 -18 56 -18q46 4 46 14v2q0 7 -35 7h-21q-46 0 -46 -5zM557 3v-1h5l3 3l-1 2h-4zM700 -11v-5l7 -7h7q33 7 33 12v2h-26zM434 -42v-5l21 -4h9q13 0 70 30v5h-2q-13 0 -58 -17z" />
<glyph unicode="D" horiz-adv-x="884" d="M246 985h19l7 2l7 -2h13q82 0 197 -39q114 -57 132 -77l66 -47q12 -9 16 -17v-2h-2q-43 31 -52 31h-2l-4 -3v-2q0 -18 42 -44l56 -70q21 -44 48 -113q13 -30 24 -30l4 5v4q0 7 -6 14l6 7h5q37 -126 37 -182l5 -90l-2 -8h-7l-2 1h-1q-19 -27 -30 -77q-67 -93 -67 -110h2 q20 0 46 53l7 1l1 -1q-27 -60 -43 -60q-82 -72 -167 -121q-38 -36 -103 -50q-75 -7 -100 -21l-12 -2q-36 7 -168 17q-28 9 -77 9q-15 0 -24 -5q-5 0 -23 19h-7q-3 0 -9 -23h-3v-1q-11 2 -11 26l4 100l-2 1v2q2 7 10 7l55 -5h5q12 0 19 3l61 -15l7 5v7l-5 19q5 22 5 82 q0 77 -14 77l-1 6q5 243 22 465q9 44 9 61v13q0 28 -24 28h-46q-3 0 -3 -9l-6 -2l-98 4l-35 -4l-3 5v65q0 60 14 60q18 15 61 15q64 18 147 18zM211 969v-2l4 -3h31q33 0 33 7l-3 3zM141 960q3 -8 54 -12h11l3 4q-20 17 -26 17q-42 -3 -42 -9zM353 941q24 -12 30 -12h3l4 3 q-12 13 -28 13h-6zM64 925v-3q1 -11 5 -11h4q7 9 16 9l19 -2v4l-25 9h-14zM412 927v-3h7v3h-7zM470 925v-1q14 -10 107 -49l16 -13h5q0 21 -102 62l-19 1h-7zM244 903v-2q0 -14 70 -14q15 14 21 14q27 0 27 5v4l-9 1h-4l-47 -5q-12 7 -21 7h-5q-32 -2 -32 -10zM456 899v-2 q5 -7 61 -28h6l5 6q0 10 -68 24h-4zM94 889l3 -4h4l3 4l-3 3h-4zM544 871q0 -10 -16 -10v-6q3 -4 47 -24l-2 -5q1 -6 16 -14h9l12 5l14 -2v2q0 3 -31 12v2q0 3 5 3l2 2v2q-26 26 -48 33h-8zM76 859l20 -5h1v1q-3 7 -12 7h-5zM111 852l4 -4h9q9 0 10 6v3h-9q-13 0 -14 -5z M332 808l5 -80q0 -84 -9 -84q-5 24 -8 24q-6 -2 -6 -10v-35q0 -21 7 -21l9 3l2 -2q-4 -18 -5 -75l7 -201q0 -173 -32 -257v-9q0 -11 116 -23q72 0 175 54q83 74 92 105q18 32 39 156v12q0 134 -16 165l-59 140q-50 78 -97 96q-173 70 -183 70q-37 -16 -37 -28zM257 827 q1 -7 10 -7h4l7 7v6h-18q-3 0 -3 -6zM500 826v-2q16 -18 31 -18v7q-22 13 -31 13zM622 799v-3q2 -5 18 -16h5v2q0 9 -23 17zM719 778h1q15 -3 49 -70q18 -19 18 -29v-4h-2q-14 0 -35 44q0 13 -31 59zM633 764v-7q9 -15 38 -35h4l3 4v5q-25 40 -28 40h-5q-9 0 -12 -7z M250 721l3 -16v-14l5 -5h2q5 0 5 33q0 28 -5 47h-2q-7 0 -8 -45zM785 668h2q26 -30 26 -54v-4h-3q-11 0 -25 55v3zM705 661v-16q16 -67 47 -103h3v2q-20 81 -43 117h-7zM243 651l-4 -16v-5h4l3 15v6h-3zM332 633h3v-5l-3 -4h-4v6zM232 428v-17q0 -37 4 -58h5l12 130 q0 44 -9 127h-1q-10 0 -11 -182zM797 546v-4l2 -2q-7 -12 -7 -19l14 -42h5q9 20 9 28v9q-8 33 -17 33h-2zM750 448l-2 -9v-26q0 -48 -14 -97v-3l2 -2h5q10 0 21 39q7 5 7 17v28q-2 53 -14 53h-5zM859 299h1l2 -11q0 -12 -35 -82l-5 -5h-2q5 22 39 91v7zM745 229v-2h2 q10 0 28 19v2q0 13 -6 14h-3q-21 -22 -21 -33zM307 227l-1 -17v-2l1 -9h2l4 4v24h-6zM684 122h5q72 62 77 93v3q-52 -24 -82 -89v-7zM251 112l2 -9h2q10 0 14 10q-7 67 -11 67q-7 0 -7 -68zM631 108l2 -5h5q7 3 11 10v4q0 3 -6 3t-12 -12zM615 101l4 -3h3l4 3v5h-5zM495 10 v-2h3q59 0 187 81l2 2v3q-86 -28 -124 -54q-58 -19 -68 -30zM90 64l2 -10q-7 -23 -7 -35v-5l5 -6h4l5 6v19q0 14 11 14h15l4 3v6q0 14 -26 14h-7zM164 47v-2l5 -5h7l4 3q-2 7 -11 7h-2zM185 19v-4q0 -8 73 -29l39 -4q19 2 19 7v4q-114 26 -131 26zM111 14l4 -4l5 5v2h-5z M349 0q0 -8 51 -9h18l3 3v2q0 7 -31 7h-37zM503 -4h18l5 5v2h-5q-18 -2 -18 -7zM334 -11v-3h5v3h-5zM353 -39v-3q25 -9 37 -9h8q17 0 21 12q-7 5 -19 5z" />
<glyph unicode="E" horiz-adv-x="710" d="M302 961q317 -4 317 -14q0 -4 -9 -5v-3h2q15 14 70 21l7 1q5 -10 5 -19q0 -77 7 -138l-26 -54q-16 -9 -32 -9q-44 0 -44 26v4q1 7 14 21q-14 6 -14 24q0 25 -21 25q0 12 -3 12h-37v-2q0 -3 16 -9v-5l-11 -2l-171 4h-88q-91 0 -91 -12q7 0 16 -261q8 -9 16 -9h10l69 4 l112 -13q15 0 15 39q0 17 34 24l10 7q18 0 18 -143v-56q0 -14 -7 -16q-21 9 -53 16q-6 0 -14 42q0 14 -108 14q-98 0 -98 -9l-2 -21l9 -142q-4 -79 -13 -166l6 -2q94 6 154 14h3q77 0 198 -15h3q9 0 13 14h7l14 -13h1l2 7q0 25 -10 25l-11 -4q-15 11 -21 30q0 15 51 21 q5 0 35 -17q16 0 16 -28q1 -105 7 -160l-4 -14h-7q-12 7 -73 13q0 4 -492 14q-32 0 -32 26q-5 4 -5 49l7 30l-2 14l6 7h3q13 -13 21 -13h4q29 6 29 21l-8 314q0 10 -14 35q4 0 10 266q5 8 5 28v5q0 37 -45 37l-35 10l-18 -2q-22 0 -22 62l-2 1q3 44 30 44h1zM34 940v-1 l14 -21q10 14 16 14l10 -2l4 3q-15 7 -39 7h-5zM102 926q0 -3 6 -3l12 3v6h-7q-11 -2 -11 -6zM234 930v-2h3v2h-3zM127 919v-3q2 -7 16 -7h17v5q-18 11 -26 11h-2zM193 912v-1q3 -7 13 -7h7v1q-3 7 -13 7h-7zM512 907v-3l79 -9q7 3 8 7v5l-36 2zM256 905q0 -5 25 -5 q0 5 -25 5zM190 869v-2q4 -9 14 -9h2q54 2 54 9v2q0 7 -35 7h-4q-31 0 -31 -7zM302 867q2 -5 10 -5h2q9 0 11 5l-4 3h-16zM80 865v-3h33v3h-33zM619 813v-2l3 -4q4 0 7 16l-2 9h-3q-5 0 -5 -19zM648 779l2 -1l4 -4v-2q8 0 8 16v2h-5q-6 -4 -9 -11zM169 785l-4 -6v-12 q4 -9 11 -9l3 6v1q0 16 -10 20zM169 709v-10l5 -5h4l3 3l-5 18zM216 531v-2h11v4l-4 3h-2zM314 522v-3l4 -4h3v4l-3 3h-4zM332 519v-4h5v4h-5zM349 519v-2l5 -5h6v3l-4 4h-7zM150 426l-2 -9v-12h3l4 3v18h-5zM183 319v-5h3v5h-3zM181 221l-2 -9v-17l2 -2v-2q9 0 9 16 q0 13 -5 14h-4zM634 177l4 -3q7 2 7 5v4l-4 3q-7 -2 -7 -9zM176 111v-4h5v4h-5zM183 95v-2q1 -5 14 -5h7l9 2v3q-2 6 -11 6h-16zM277 93v-3l4 -4h5l9 2v2l-4 3h-14zM584 86v-1q1 -6 10 -6q14 3 14 7v2l-3 4h-16zM316 88v-3l33 -4h81q0 6 -81 7h-33zM127 81v-3q3 -7 12 -7h14 l5 5v2q-1 5 -10 5h-4zM484 81v-2q0 -6 66 -8v3q-23 7 -52 7h-14zM94 57v-11l3 -3l2 1v13h-5zM622 55v-5l16 -4h3l4 4v3l-9 2h-14zM510 41l14 -4h12q9 0 11 6v1h-2l-16 2q-19 -1 -19 -5zM395 44v-3l3 -4h21v4l-16 3h-8zM288 36v-4h7l3 4v1l-3 4h-2z" />
<glyph unicode="F" horiz-adv-x="625" d="M192 894q525 -2 525 -12q15 -78 15 -112q-10 -39 -19 -95q-8 -19 -16 -19q-89 0 -89 25v3l18 70q-6 54 -20 54l-19 2h-37l-290 -14q-14 0 -14 -28v-7l5 -236q0 -9 60 -9l89 -3q0 43 40 43l33 -1l4 -6v-21q0 -12 10 -40q-22 -114 -38 -114l-60 23l-7 2v3l11 16v7l-133 9 q-14 -6 -14 -16v-47l-2 -28q0 -60 18 -249q9 -6 96 -14l2 -1q7 -1 7 -7q-5 -67 -34 -67h-3v-2l-30 2h-28q-98 -9 -233 -14l-1 -2h-2l-12 4l1 19l-3 14q5 9 7 33q0 7 108 18q27 6 27 28l12 210l10 -4h4l2 9v35l-18 16l-7 51l7 22q-7 26 -7 191v74q0 41 5 75q0 13 -21 16h-19 q-100 0 -100 50l-3 18q4 19 10 19h4q3 0 7 -16h2l3 4v2l-2 1q0 14 76 14zM403 864v-3h4q9 0 10 5v4h-3q-11 -2 -11 -6zM76 861q8 -14 33 -14h6v-2q-14 -7 -14 -16v-5h1q62 4 62 11v1l-14 9v4q0 3 17 8v4q-25 7 -56 7q-35 -2 -35 -7zM701 836q-12 -29 -12 -38v-5 q0 -11 10 -18h2l3 4v15l-1 2q3 7 3 19v16zM279 817v-2h5v2h-5zM692 724v-1q3 -8 7 -9h4v2q-4 7 -7 8h-4zM193 686v-5h4v5h-4zM449 537v-2l5 -5h5v4l-3 3h-7zM249 458l4 -3h30q0 6 -28 7h-2zM176 206v-1l3 -16h4l3 3v11l-7 7zM199 180q-6 -9 -6 -21l2 -5h2q5 1 5 14v9z M179 178v-5h4v5h-4z" />
<glyph unicode="G" horiz-adv-x="746" d="M627 886q33 0 33 -27q-7 -187 -17 -187q0 -19 -49 -24h-6q-35 0 -35 26l4 16q0 9 -63 63q-50 33 -137 33q-75 0 -152 -89q-128 -125 -128 -230v-1l16 -72q0 -39 49 -158q0 -10 46 -61q3 -24 28 -47q41 -37 217 -37q54 0 122 63q21 12 21 138v18q0 14 -28 14q-94 5 -94 21 l-2 10q9 56 33 56l109 -1l131 12q16 -3 16 -12l-4 -46v-12q-9 -37 -35 -37l-40 2v-4q10 0 10 -168q0 -190 13 -203h-2l-7 -1h-61q-11 0 -25 -6q-24 0 -24 42q0 32 -13 32q-6 0 -52 -35q-42 -16 -72 -16h-9q-89 0 -190 44q-22 24 -60 42q-41 30 -66 70q-51 76 -51 93 q-28 45 -44 136l2 130h2l12 -13q4 0 5 16q-2 18 -7 18q-6 0 -14 -7l-2 1q3 62 28 125q39 49 93 134q8 7 16 25q17 21 121 77q19 9 91 19h1q54 0 196 -40h2q7 7 7 17v6l-2 10q12 25 67 25zM135 644v-2h4q52 64 52 72h-3q-49 -44 -53 -70zM121 698q7 3 11 9v4h-2 q-11 -5 -11 -13h2zM77 620v-4h4l5 5v4h-3zM713 397v-3l3 -4l5 6v1l-3 4h-2zM564 123l2 -6h5l5 6l-3 3h-4zM454 74q0 -4 5 -4q10 0 19 12v2h-3q-15 0 -21 -10zM226 77v-2q0 -6 35 -14h16l3 4q-32 12 -47 12h-7zM583 4v-4l2 -2v-1q7 2 7 5v3l-4 4zM471 -17v-6h2q14 0 33 14 l-2 6h-7q-16 0 -26 -14z" />
<glyph unicode="H" horiz-adv-x="821" d="M693 927q44 -8 44 -44l3 -37q0 -8 -114 -22l-3 -6v-5q0 -16 28 -138v-23l-4 -61q30 -204 30 -460h4q119 0 119 -27q12 -70 12 -89q0 -26 -91 -26h-26l-7 -2l-7 2h-16q-70 0 -70 12q-12 67 -12 98v21l5 30v3q-9 33 -9 46v10q-7 123 -7 188h-2l-287 7l-7 -6l2 -57l-2 -156 v-47q0 -36 9 -72l-9 -26q9 -16 9 -25q0 -40 -54 -40q-93 0 -119 16q-51 16 -51 43l11 60q6 3 19 3h37q33 0 33 9l2 14v67q0 219 -11 346l2 60q-5 0 -14 206l-11 4h-1q-112 0 -112 12l-13 33q0 32 111 32q63 5 119 5l17 -4v-1l-7 -18l4 -10q-9 -11 -9 -18v-9l23 -285 q0 -24 12 -24l290 -9l2 5l-5 72q0 7 9 21l-7 7v3l3 6v3l-5 39v45q-11 77 -16 86q-14 0 -30 84q5 33 7 33q107 5 172 16zM546 890v-2q2 -5 10 -5h6q12 0 14 5q-2 6 -11 6h-16zM560 862v-2l3 -3l6 3l-2 6h-4zM35 852l-2 -2v-2h5zM210 776v-3l3 -4h4v4l-4 3h-3zM171 766l-1 -16 l1 -7h6l1 12v2l-1 9h-6zM623 654v-4l3 -3l4 3v4l-4 3zM625 624l1 -5h4l3 3v13l-3 3q-5 -1 -5 -14zM177 509v-6q0 -9 7 -12h1l4 4q0 9 -9 14h-3zM269 489v-3l4 -4h3v2l-5 5h-2zM425 489v-3l37 -4h9l3 4l-3 3h-46zM180 477v-2h4l3 4v2h-3zM486 440l2 -1h19l6 5l-2 2h-11 q-13 0 -14 -6zM579 351v-3l5 -6h2v9l-3 4zM579 332v-16h4l3 4v12l-3 3zM618 167v-8l3 -4l4 4v3l-6 5h-1zM245 164v-2q1 -10 5 -10h4l-4 12h-5zM145 59v-4h5v4h-5zM252 29v-2l5 -5h2l7 7v4l-4 3h-3zM777 17v-4h9v4l-4 3h-2zM735 12l3 -4h7q9 0 11 5l-4 4h-12z" />
<glyph unicode="I" horiz-adv-x="443" d="M115 903l21 -2q91 0 187 23l7 -2v-2l-5 -10q12 -9 32 -9q26 -29 26 -84v-3q0 -27 -68 -34q-56 0 -56 -33v-187q0 -30 -14 -30l-2 -2v-14l12 -14l-9 -19v-2l11 -66q0 -66 10 -231q-5 -54 -14 -63q0 -9 16 -9h5q55 16 121 16q33 0 33 -39v-12q0 -70 -15 -70h-35l-20 -5 l-14 9l-297 -9q-19 0 -19 63v28q1 10 5 10h2q3 0 10 -17h4v16l-2 12l7 3q24 0 84 -8h5q10 0 12 10l-5 54l7 84q-19 510 -33 510l-123 7q-21 22 -21 36v23l2 28q0 14 -2 46l6 -6h7q33 0 122 4zM56 903l-2 -2v-2l5 -5h2v7zM127 859v-2l4 -3h9l3 3v2h-16zM15 789v-3q1 -6 14 -6 q9 0 11 6v1q-3 7 -16 7h-3zM194 740v-12h2q5 0 8 21v7h-3q-7 -3 -7 -16zM173 733v-2l5 6h-2zM259 521l3 -3l-3 -4l-4 4zM260 66v-1l6 -2l7 5l-4 4h-3zM383 42v-2h3q7 4 11 11v1l-4 4h-1q-9 -5 -9 -14z" />
<glyph unicode="J" horiz-adv-x="633" d="M561 913h18q136 0 147 -16q9 -24 9 -47v-7q0 -58 -16 -58l-25 -2h-1l7 21v2q-18 -9 -62 -9q-8 0 -19 -3h-17q-20 0 -27 -102q-21 -86 -21 -254l-19 -187q0 -61 -12 -61l-4 -9l7 -14q-3 -27 -40 -94q-83 -100 -164 -100h-2q-38 0 -119 35q-59 34 -84 114q-13 108 -30 126 h-7q-23 0 -56 -11q-12 2 -12 7q9 26 15 86l213 21l6 -21q-2 -84 -12 -84h-3v-2q-17 0 -21 23h-2q-25 -8 -25 -25q0 -138 77 -168l13 -1l59 14l7 -11q18 4 18 11q-13 4 -13 7v1q33 17 44 44q44 39 44 63q16 31 24 79q14 20 14 108v121q0 199 -19 261l-2 35l-61 -19l-56 -2 l-12 47l-7 16q14 20 14 26v23q0 5 19 5h2q80 0 213 11zM694 892v-4l6 -2l3 6l-3 3h-2zM343 871v-7q0 -10 8 -14h7l6 5v3q-6 6 -9 30h-5q-5 0 -7 -17zM498 879v-1q0 -6 77 -9q15 -2 34 -21l15 -2q10 0 13 9l-16 5v2q16 10 16 17h-2q-28 4 -126 6q-11 -2 -11 -6zM381 865v-7 q0 -8 40 -8q30 1 30 7q0 7 -58 8h-12zM516 862v-4l3 -3h25l3 3q0 4 -19 6zM693 841q1 -28 7 -28h3q4 0 5 12q-1 26 -8 26h-2q-5 -1 -5 -10zM540 825v-5l4 -4q26 3 26 9v4l-9 1h-10q-11 -1 -11 -5zM584 827l5 -5h4l5 5l-3 3h-7zM476 825v-3h5v3h-5zM336 815v-2q5 -10 12 -14 h2q14 1 29 17v2l-3 4h-14q-26 0 -26 -7zM400 798v-2h6q17 2 17 7v2h-10q-10 0 -13 -7zM544 773v-2q1 -11 5 -11l4 4v7l-6 5zM474 771v-2q0 -14 12 -16v7q0 10 -9 14zM504 741v-9l3 -3l4 3v6l-4 3h-3zM504 589v-16l3 -3q11 31 11 45v12l-4 4q-9 -4 -10 -42zM504 543l-2 -8v-4 l2 -9h3l4 4v14l-4 3h-3zM507 489v-5h4v5h-4zM211 349q1 -5 10 -5h2l3 3v2l-3 3h-9zM71 331v-1q0 -5 26 -6q40 2 40 9v4h-7l-37 -2l-5 2v1l4 6v3q-12 0 -21 -16zM500 277v-3l2 -12q16 26 16 61v9l-6 5h-3q-9 0 -9 -60zM66 333v-5q0 -11 12 -17h2l4 3v5q0 14 -16 14h-2z M206 316l2 -5h3l4 3v12h-2q-7 -3 -7 -10zM134 314v-3h6v3h-6zM43 309v-7h7v7h-7zM140 286q8 -12 19 -12v3q0 13 -14 13h-2zM155 265v-7h4v7h-4zM113 242l6 -3h12v2q0 9 -5 10h-2q-11 0 -11 -9zM148 244v-3q4 -7 11 -11l5 5v7l-7 7h-3zM117 218q0 -15 17 -49v-2l-1 -17 q2 -7 5 -7h3q7 2 7 12v2q-7 75 -21 75h-5q-5 -1 -5 -14zM484 204q0 -19 -21 -35q-17 -29 -17 -39h2q19 0 40 53l2 16v1l-4 4h-2zM168 102v-5q0 -15 77 -58l19 -5h3v2q-7 13 -52 35l-25 31q-7 7 -14 7h-1zM301 62v-3l8 -2q18 0 27 12v2h-11q-24 -1 -24 -9zM358 24l6 -9 q-4 -11 -63 -11h-6l-33 4h-3v-2q24 -17 59 -17q69 0 131 61v10h-3l-47 -22q-41 -10 -41 -14zM175 53v-3l7 -7h1l4 3v2l-5 5h-7zM281 29l-1 -2v-2l5 -5h2l3 4v3z" />
<glyph unicode="K" horiz-adv-x="832" d="M151 938h67q75 0 89 -19l9 -2v-3q-21 -18 -21 -84q0 -75 -16 -207h2l101 96q119 102 119 121q41 59 41 67h-2l-25 3v2q0 10 67 10h138q30 0 30 -19l28 -7l2 -2v-1q0 -5 -28 -11v-7q5 -7 5 -16v-3q0 -44 -14 -44l-19 5h-21q-44 0 -84 -42q-127 -104 -160 -122 q-57 -52 -57 -58v-2q6 -43 57 -106q56 -103 104 -207q18 -25 29 -56q45 -84 56 -84l16 -3v-4q-7 -8 -7 -12l11 -4h50q84 0 84 -8l-3 -6v-3q0 -4 10 -7l4 -5l-14 -28v-4l9 -45q0 -11 -16 -20q0 5 -189 13q-91 7 -91 17v4q21 11 21 21h-4l-3 5q5 26 5 52q0 34 -31 102l-23 73 q-9 8 -93 186q-41 57 -49 63h-5q-68 -71 -68 -75q0 -29 -16 -107l3 -16l-14 -40v-2q0 -6 11 -19q-4 -102 -12 -102q-13 -4 -13 -33q14 -24 151 -42l2 -2q6 -17 17 -17l4 -5q-9 -11 -27 -65q-6 -5 -15 -5q0 8 -146 8h-14q-30 0 -49 -7q-15 6 -35 6h-63q-10 0 -31 -7l-4 10v5 q0 25 21 63q0 8 56 11q0 3 7 3v4q0 2 -54 10v2q0 6 61 9q26 0 34 117q0 45 15 135q9 21 13 416l-2 20l2 14q-13 19 -104 19q-45 13 -45 21q21 3 21 12l-7 16q10 51 38 51q24 3 84 3zM48 917l-2 -2v-5q3 -7 13 -7h66l4 4q-16 5 -81 10zM281 894h2q10 8 10 16l-2 2h-1 q-5 0 -9 -18zM167 905v-4l21 -1l4 3l-2 2h-23zM57 873v-5q15 -5 100 -5h19l12 2v3q-24 7 -84 7h-26zM568 854h2q8 0 14 16h-2q-9 0 -14 -16zM717 859v-1h10v3l-3 4h-2zM216 817l-2 -5q3 -12 7 -12h6l1 9v1q-3 7 -12 7zM515 796v-1h2l12 3v5h-7zM430 726l1 -5h4l73 60l2 1v6 h-5q-30 -5 -74 -58l-1 -2v-2zM522 747v-5h4q16 9 19 18v3h-2q-11 0 -21 -16zM330 639v-4h2q11 0 26 18l-5 5q-11 0 -23 -19zM367 565v-7q4 -28 15 -28v2l2 7q0 14 -12 26h-5zM272 513v-7h4q20 13 35 35v5h-2q-14 0 -37 -33zM158 130v-4l6 -5h1v3l-5 6h-2zM241 131h5v-3h-5v3 zM211 88v-2h3v2h-3zM339 70q14 -4 14 -7q-5 -9 -27 -9h-14q-3 0 -3 -5l3 -9h-1q0 5 -188 23h-31v-2q14 -14 178 -26h39q42 0 51 21q0 4 8 12q-1 6 -14 6h-12zM27 47v-5h4q9 0 14 9v9h-6q-8 -4 -12 -13zM759 44v-5l8 -2h6l3 3v2l-3 4h-6z" />
<glyph unicode="L" horiz-adv-x="717" d="M73 956q111 0 191 -25l24 -1l18 1l3 -7l-1 -80q-3 -9 -11 -9l-17 16l-37 9h-12l-9 -2v-7q18 -9 26 -9v-2q0 -5 -33 -8l-7 -271v-28l-3 -373v-23q0 -12 79 -12h266l45 -3q6 0 14 77q4 19 12 19q81 -2 81 -16q-5 -12 -16 -12v-4q14 -13 14 -24q0 -28 -10 -84v-21l1 -7 q-7 -15 -7 -28q-3 0 -12 -18q-29 -10 -59 -10h-6l-120 10h-6l-273 -10l-192 17q-11 9 -11 18q11 82 35 82q6 6 55 11q17 47 1 403q7 73 14 289v14q0 21 -30 21l-12 2v5q24 12 40 12v6l-33 3h-19v-5q5 0 5 -4q-3 -7 -12 -7h-6q-14 8 -14 32v5q0 31 18 39q4 0 10 14zM64 905 v-2h7l4 4v2h-7zM248 903v-3l9 -2v-2l-4 -3l-28 2l-1 -2v-7l3 -4h28q23 0 23 16q-10 9 -21 9h-5zM150 898q7 -10 30 -10h10l7 7q-12 8 -24 8h-12q-11 -1 -11 -5zM175 870v-3l3 -4h9l9 2v5l-9 2h-4zM176 842l-1 -2v-19q2 -19 8 -19l7 7v10q-3 23 -14 23zM163 567 q-12 -55 -1.5 -75.5t10.5 54.5q-1 21 -6 21h-3zM674 165q-12 -26 -12 -33l-11 -58v-5l5 -5h4q17 8 21 79q-2 22 -5 22h-2zM154 160v-5q-7 -19 -7 -30q0 -20 11 -24h5q5 0 5 40v7q0 9 -7 12h-7zM529 113v-4q0 -4 19 -7q0 -10 24 -12l27 4v5q-24 0 -56 14h-14zM469 99v-2 q1 -5 14 -5h30v5l-9 2h-35zM32 78q12 0 12 10l-2 2h-2q-8 -2 -8 -12zM163 80v-6q36 -5 250 -15l2 1v2l-245 18h-7zM26 66v-4l4 -3h5l4 3v2l-4 3zM490 52v-2l12 -2h21v2q-1 5 -10 5h-19zM553 38v-2h4q16 0 28 12q-2 5 -11 5q-6 0 -21 -15zM572 31v-2q11 -12 28 -12h4 q6 0 12 7q9 -7 16 -7h12q13 0 16 7v1q0 7 -44 7h-23zM184 18v-3q0 -10 65 -12q43 0 71 8v4q-59 5 -105 5h-1zM152 15v-4h4v4h-4zM364 13v-5h9l16 3v4h-16z" />
<glyph unicode="M" horiz-adv-x="934" d="M168 874q77 -14 77 -28q18 -8 33 -36q35 -26 83 -149l43 -79q25 -91 37 -91q16 0 56 89q51 102 137 237q26 12 26 22q9 18 23 25l17 -2q22 9 44 11q94 -13 94 -30v-2l2 -325l-2 -90q7 -49 23 -292l-2 -21v-23l-9 49q0 -28 42 -28q30 -4 30 -26l1 -9q0 -91 -12 -91h-2 q-22 11 -47 11h-82q-128 0 -128 26l5 35v5q0 7 -10 20v8q0 7 47 16l7 9l-3 9v21q0 17 13 68l5 7q-9 13 -9 114v84l2 42q-7 16 -7 40v21q0 30 9 84q0 16 14 45l1 9q-10 50 -10 67h-4q-22 -22 -75 -104q-55 -106 -105 -175l-56 -80q-9 -11 -23 -11l-17 6q-11 -1 -21 -6 q-17 0 -19 32q-12 27 -44 63q-18 24 -84 159l-16 28l-17 32l1 1h9q6 0 11 -19l1 -2h4v6q0 41 -39 75h-3v-7h-11v-9l-3 -14v-14q23 -315 23 -525q-2 -7 -9 -7t-7 16l-2 2h-2l-5 -30q18 -11 18 -23l-4 -17q-21 0 -21 10h-5l-4 -7v-7q0 -6 55 -19h7q10 0 21 5q56 -11 56 -21v-5 l-9 -2q-10 0 -28 16h-7q-33 -6 -33 -12q1 -6 10 -6h18q43 -4 43 -15l2 -14v-7q0 -20 -28 -21q-24 10 -44 10v-2q0 -5 14 -5q18 -3 18 -7l-16 -3q-46 0 -166 17l-35 -10q-25 6 -25 21v7q-15 0 -21 35l-3 3v7q16 28 56 28q35 8 35 12v2l-23 642l2 60l-5 23q0 28 33 28z M686 811l2 -1q6 0 19 19v9h-5q-8 -5 -16 -27zM172 829v-4q0 -4 12 -5q7 3 7 5v2l-4 4h-7zM102 829v-4l3 -3h2v7h-5zM228 820v-3h14l3 3v2l-3 3q-13 0 -14 -5zM142 815v-7q11 -53 21 -53h3v6l-8 24q0 19 -13 30h-3zM670 783l2 -1h2q9 10 9 17v2h-2q-11 -5 -11 -18zM110 799 l-1 -2v-1q5 -63 12 -63q5 11 5 24v12q0 29 -16 30zM212 782q16 -28 54 -72l51 -103h5v1q0 22 -54 139q0 11 -28 36l-2 7h-9q-17 -1 -17 -8zM156 726l-2 -9v-47q0 -25 7 -25t7 35q0 29 -5 46h-7zM539 577l2 -2q10 5 30 49q12 10 21 49v2l-4 3q-20 0 -49 -101zM765 631h2 q5 2 5 11v1q-7 -3 -7 -12zM760 605v-4l3 -3q5 2 5 10v7h-3q-5 -1 -5 -10zM805 577q3 -89 14 -93l2 2v45q0 52 -5 79h-4q-7 0 -7 -33zM119 608v-35l4 -3h1l2 21v5l-2 12h-5zM758 566v-5l2 -9h3v11l-3 3h-2zM184 516q2 -72 9 -72h3v17q0 54 -3 88h-2q-5 0 -7 -33zM467 460 q-7 -12 -7 -20v-3h4q6 0 9 19v4h-6zM138 435l-1 -12v-2q0 -21 7 -21l3 14q-2 21 -7 21h-2zM186 398v-7l1 -17h4v10q0 13 -5 14zM131 295l2 -2q12 0 12 42v44l-1 9h-2q-5 0 -11 -93zM189 346q-3 -7 -3 -19v-77l1 -74l2 -2h2q14 0 19 20v7q-7 0 -9 15l2 25v2q0 36 -7 50l4 20 q-3 31 -11 33zM775 309l-1 -5l5 -4l3 4v2l-3 3h-4zM770 241q-10 -26 -10 -44q4 -17 10 -17h2l3 59v2h-5zM821 220q-9 -9 -9 -32v-22l7 -7h7q5 0 7 14q-7 47 -12 47zM133 192v-21l4 -4h3l5 32l-1 10h-4q-5 0 -7 -17zM770 159v-6h4l3 4v2h-7zM728 145l-2 -9v-2h4l3 4v7h-5z M814 145v-4l7 -7h3l6 5v2l-4 4h-12zM128 139v-7h5v4l-3 3h-2zM198 127l3 -3h6l3 3l-3 4h-6zM35 78v-7q0 -10 16 -23h3q4 0 6 9q-3 26 -9 26h-11zM782 124l3 -4h7v4l-5 5zM54 27v-3l4 -4l2 2h1l-1 5h-6zM145 15q9 -5 23 -5h5l13 2v5l-34 3zM198 13v-3l16 -4h22v4l-29 3h-9z M680 61v-6l4 -3l19 5v4q-2 5 -11 5h-7zM684 24v-4l3 -3h16v3q-2 6 -11 6z" />
<glyph unicode="N" d="M760 979h14q15 0 15 -35l2 -5l2 -2l2 -5h1q-12 -40 -40 -40q0 -5 -51 -7l-3 -5q40 -510 40 -688l5 -133q0 -51 -19 -51q-9 -3 -40 -3h-44q-35 0 -35 15q-4 29 -37 84q-19 97 -45 133q0 6 -19 28q-71 116 -135 247q-14 21 -60 116q-42 75 -84 126h-5v-34q0 -43 9 -173 q0 -92 -23 -306v-19l9 -30l-5 -98l7 -37l-7 -28v-5h-4q-7 7 -14 7h-9v-2q7 -10 7 -16v-7q9 0 13 6q8 -3 8 -11q0 -23 -19 -23l-119 -3q-38 5 -38 33q-6 48 -13 68q0 7 67 34l2 1v46q0 17 8 24v4q-10 0 -10 91v17q30 270 30 632q1 44 8 44q0 6 56 7h16q30 0 79 -86 q53 -66 82 -108l60 -100q69 -80 112 -217q44 -95 57 -95q18 19 18 55l-2 57l4 193q-9 55 -9 82v5q0 77 10 109q0 12 -73 12l-4 5v46q0 44 39 44q159 1 184 1zM758 964v-4l9 -2h3l4 4l-2 2h-14zM189 955q3 -18 18 -18l3 4v10l-7 7h-10zM725 927v-4h5v4h-5zM565 911l6 -5h3 l25 3q-2 6 -11 6h-19zM634 859v-7q4 -9 10 -9l4 5v18l-6 5h-1q-7 -3 -7 -12zM186 780l1 -2h2q5 0 5 40v34h-1q-7 0 -7 -72zM222 834v-14q0 -10 11 -26h5q-6 44 -10 44h-2zM275 771v-2q32 -80 47 -106q9 -10 9 -14h5v3q-10 52 -33 86l-25 33h-3zM361 698v-4q7 -26 33 -58h3 q-18 62 -29 62h-7zM345 631l-2 -2v-1q23 -64 84 -165h4q-5 24 -79 163zM459 559q13 -42 31 -63l2 2q-23 56 -32 61h-1zM501 477v-2q11 -45 28 -63h3q0 8 -28 65h-3zM439 439l-1 -2q17 -51 26 -51l3 4v3q0 8 -28 46zM147 288h2q7 0 10 54v16h-3q-4 0 -9 -70zM509 313v-11 l16 -19h2v14l-12 10v6h-6zM662 264q1 -20 5 -20h2q5 2 5 11l-2 38h-2q-6 0 -8 -29zM138 250v-20h6q4 0 7 23q-2 12 -6 12q-7 -2 -7 -15zM700 174v-5h4v5h-4zM574 155q0 -12 18 -28h1v2q0 5 -14 26h-5zM655 134v-3l3 -4h4v4l-4 3h-3zM142 118v-7l3 -3h2l4 3v2l-6 5h-3z M602 99v-3l5 -6h2l-2 9h-5zM70 85v-5h25l3 3v2l-3 4h-18zM728 75v-7l5 -6h2v7l-5 6h-2zM135 50v-3h3l6 5v3h-4zM49 45q3 -7 12 -7h4l17 3v6l-21 3q-12 -2 -12 -5zM700 45v-4l4 4h-4zM72 -1q2 -5 10 -5q13 1 13 5l-4 4h-16z" />
<glyph unicode="O" horiz-adv-x="796" d="M455 965q105 -19 123 -30q100 -62 119 -115l49 -74q17 -71 36 -219q-11 -173 -33 -196q-16 -64 -45 -126q-66 -136 -93 -164q-53 -47 -98 -47q-19 -5 -19 -13l-62 -24l-8 2q-60 -9 -93 -9h-18q-12 0 -106 35q-23 9 -60 49q-30 20 -30 40q-38 54 -75 177q-14 40 -14 49 l-2 23q0 228 67 334q22 31 40 107q8 14 49 63q0 35 109 105q0 6 78 26zM550 930v-7q41 -25 50 -25v2q-33 30 -45 30h-5zM499 914v-2q48 -33 110 -50v3q-10 13 -37 23q0 6 -42 21q-8 9 -21 9h-7zM333 876q6 0 68 24l17 5v7h-1q-32 0 -84 -33v-3zM130 438v-117q0 -120 63 -156 q62 -63 80 -63q41 0 67 -26l12 -2l16 2l12 -12h2q8 0 21 15q65 10 87 30q98 97 98 107q58 142 58 175q33 129 49 129h2v7q0 16 -18 53q-10 114 -26 136q-29 81 -151 142q-39 18 -50 18h-9q-59 -27 -68 -27q-4 0 -4 -12q-81 -53 -94 -70l-67 -86q-24 -30 -44 -80 q-36 -80 -36 -163zM180 757v-2h4q100 89 100 98h-2q-32 0 -67 -53q-6 0 -21 -15q-14 0 -14 -28zM620 844v-2h10v2l-5 5zM298 821v-1h3q39 9 39 24l-2 2h-4q-36 -8 -36 -25zM595 830q0 -16 39 -33h5q5 0 5 7q0 12 -49 26zM676 785v-6q0 -12 42 -87h1v2l-15 57q0 39 -20 39h-3 zM156 746v-2h7v6h-4zM149 734v-5l3 3v2h-3zM173 694v-6h4v-1q9 0 9 15v2h-2zM723 662l-2 -2v-1l4 -16h5v12zM138 618v-8l4 -4q0 5 19 39l2 10h-4q-16 -13 -21 -37zM690 489v-5h3l4 3v2h-7zM723 475q-7 -22 -7 -47v-2h2q8 3 8 14v26l-1 9h-2zM747 389v-5h6q8 29 8 44v5h-3 q-9 0 -11 -44zM670 389v-9h6l5 14l-4 14h-1q-6 0 -6 -19zM637 251q11 0 18 44q15 25 15 63v3l-3 4q-12 0 -28 -98l-2 -2l-2 -14h2zM84 317v-1l4 -4h1l4 4v1l-4 4h-1zM42 295v-11l4 -3h3l2 8v7l-4 4zM606 218l3 -11q-40 -51 -40 -58h9l1 2h2l2 -2v-1l-65 -53l-2 -5h2l2 -2h2 q31 11 66 47q33 43 39 79l1 5v9q0 9 -7 12h-3q-7 0 -12 -22zM96 209v-14q0 -18 18 -30h5v4q-1 19 -21 40h-2zM572 41v-5h2q53 37 53 54h-4q-31 -23 -51 -49zM413 71v-2h14l5 5v2h-5q-13 0 -14 -5zM277 72q0 -11 21 -17v2q0 11 -20 15h-1zM184 51v-5l3 -3h4v3l-5 5h-2z M429 13v-5h9q45 11 45 28h-3q-13 0 -51 -23zM354 29v-6l21 -1h31v3q0 4 -19 7h-12zM320 27l14 -5v3q-1 5 -10 5zM516 13v-5h6l5 5l-4 3h-3zM196 4v-3q0 -6 47 -21q61 -18 79 -18q38 0 102 16v3h-27l-94 -5l-60 21q-24 7 -47 7z" />
<glyph unicode="P" horiz-adv-x="683" d="M109 1008l25 -2q198 0 246 -23q105 -16 198 -40q18 -10 77 -25q17 -7 33 -33q49 -43 49 -117l-26 -119q-14 -35 -80 -138q0 -29 -205 -95q-9 -10 -72 -16q-18 -8 -143 -19v-163l-2 -134q71 0 145 -32v-3h2l-2 -2v-14q0 -6 5 -12l-8 -13v-15q0 -16 -25 -16h-58v-2 q0 -6 32 -10v-6l-16 -3q-60 16 -192 16q-10 15 -13 15l-38 -10q0 -4 16 -7v-2q0 -4 -16 -7q-14 0 -14 89l-4 25q0 14 13 14l49 -5h7q17 0 17 201l2 66q-9 0 -9 27l-2 42v63q0 26 -3 42l3 10l-5 5v6l7 8v11l-5 7q7 86 7 143v4q-7 7 -7 33v19l9 81v2q-24 3 -76 3q-15 0 -21 46 v1q0 10 11 34l-4 19q0 13 23 16h5v1l-8 13v3q3 12 73 18zM113 985v-2q0 -6 87 -9l40 2q7 3 7 5v4l-29 2h-62zM268 981l4 -3h26l4 3q0 4 -20 6q-14 -2 -14 -6zM471 950h7l-3 3zM471 925l-1 -1v-2q8 -5 17 -5h2v3q0 5 -18 5zM104 915v-2l9 -2h3q18 2 18 7l-4 4h-10 q-14 0 -16 -7zM167 920v-3h5v3h-5zM193 910v-2q0 -14 21 -14l37 3v2q0 8 -51 11h-7zM534 906l-1 -2v-1q22 -18 31 -18v5q0 9 -30 16zM137 899v-2q9 -12 26 -12h11l7 7v4q0 5 -23 7h-17zM477 892v-3q1 -6 10 -6h2v7l-9 2h-3zM113 883q0 -4 12 -5q10 2 10 5l-3 4h-16zM197 866 v-9l1 -5l-1 -5l-2 -69q0 -81 24 -227l4 -67q40 0 147 25q44 0 112 49q45 21 86 59q40 59 40 107q3 0 3 21v9q0 17 -94 72q-121 38 -170 57l-28 2q-106 0 -122 -19zM165 868v-11h2l3 4v3l-3 4h-2zM566 850v-2q10 -15 28 -15v7q-18 10 -26 10h-2zM638 847v-2q3 -7 10 -7l2 2v1 q-4 8 -7 9h-2zM585 805v-4q1 -5 14 -5h7l2 2h2q0 8 -16 8zM634 778v-5l7 -7l4 4q-5 8 -11 8zM715 766q3 -8 7 -9h3l2 9l-5 4h-4zM681 729v-3l4 -4h3v7l-3 4zM589 591l1 -2q21 17 21 30h-5q-17 -18 -17 -28zM165 612v-3h4l3 3v4h-3zM485 530l2 -2q6 1 11 11v5h-4 q-9 -5 -9 -14zM601 528v-2l3 -3h2l5 5l-3 4h-4zM394 486v-3h4q40 5 40 12v2h-10q-30 -2 -34 -11zM531 477v-1h7q19 0 44 15v6h-7q-44 -12 -44 -20zM475 463v-1h2q9 0 12 7v1h-7zM415 448l11 -4h3l4 4l-4 3h-10zM307 430v-3h7l31 10q50 3 51 9v2h-14q-54 -1 -75 -18zM228 434 q0 -6 18 -6q14 1 14 6l-4 3h-24zM155 199q0 -31 5 -31h2l1 12v47l-3 4q-5 0 -5 -32zM160 148q-5 -9 -5 -17l1 -5h4l3 3v16zM71 54q1 -5 10 -5q9 1 9 5v3h-16zM204 24v-3l21 -4h17v4l-21 3h-17zM226 10v-5h7l4 3v2h-11zM277 5v-2l4 -3h29v3l-22 4zM256 -13v-3h5v3h-5z" />
<glyph unicode="Q" horiz-adv-x="857" d="M335 926h18q124 0 145 -17q131 -45 196 -152q86 -105 86 -212l-4 -21h2q4 0 9 -14l-5 -63q-9 -29 -16 -95q-14 -54 -42 -112l-28 -68v-7q21 -23 37 -23h1q25 0 25 39l2 2h3q10 0 70 -62q9 -1 9 -5q-38 -30 -58 -72q-15 -18 -35 -52q-22 -11 -35 -11l-5 2v2l3 5 q-2 6 -50 35v12h-4q-12 0 -47 28h-4l-64 -40q-52 -33 -156 -33q-91 0 -189 47q-8 6 -25 32q-115 114 -115 155q-13 66 -30 104q0 32 -26 133l9 89q17 24 17 61q16 13 16 46q42 81 73 113l42 53q21 18 42 23l2 7h-5l-7 -2l-5 2v3q12 14 78 60q28 8 70 8zM370 888v-5l9 -2h25 v3q0 4 -21 6zM335 856v-3l6 -5h3v3l-5 5h-4zM486 842v-1q0 -8 26 -16h4v3q-13 14 -28 14h-2zM558 835v-5q29 -19 36 -19v3q0 8 -35 21h-1zM267 813v-2h26q19 0 23 16l-2 1h-3q-23 0 -44 -15zM376 814l-2 -1v-6l9 -1h3v1q0 4 -10 7zM514 795v-3l5 -6h4v4l-6 5h-3zM94 459 q0 -62 24 -124q39 -134 56 -156q150 -86 233 -86h47q49 0 79 37v4q0 2 -26 12q-56 52 -56 65q0 5 -33 21q-23 32 -23 40q0 10 28 26q20 31 35 44h5l88 -79q53 -31 68 -31h3q6 5 23 89q10 19 39 156l1 38v28q0 72 -42 156q-12 22 -98 52q-54 21 -180 39h-10q-21 0 -125 -65 q-31 -26 -31 -45q-17 -29 -70 -76q-35 -73 -35 -145zM589 776l-2 -2v-2q0 -8 20 -14h3l4 4v2q-8 12 -25 12zM657 762v-4q0 -19 27 -33l5 2v5q0 17 -23 35h-3zM127 729l11 -4h5q9 0 12 7v2l-7 7h-2q-19 -2 -19 -12zM141 652l4 -4q12 6 12 16h-4q-10 -7 -12 -12zM706 646v-1 l6 -18h5v2l-5 17h-6zM71 562q0 -13 5 -14h2l11 11v2l-7 7h-6zM689 382l2 -5h1q6 1 6 14v9h-2q-5 0 -7 -18zM48 366v-10l4 -4h3q0 13 -5 14h-2zM456 321q2 -7 11 -7h3l4 3q-2 5 -9 9h-5q-4 0 -4 -5zM472 267v-4q12 -16 28 -16h5l5 6v8q0 11 -14 21h-7q-8 -4 -17 -15zM657 193 v-7h2q9 0 37 72v3h-2q-7 0 -37 -68zM638 221v-5h2q7 2 7 10h-4zM579 218v-2l5 -5h5v1l-5 6h-5zM551 195v-2q1 -6 10 -10h7l4 3q-4 9 -18 9h-3zM129 160l-2 -2q0 -6 18 -14l1 2q0 6 -17 14zM692 139v-4l6 -5h3v4l-5 5h-4zM761 114v-5q14 0 31 23v3l-3 4h-4q-24 -8 -24 -25z M197 135v-1q8 -13 19 -13h4v4q-7 10 -21 10h-2zM556 114v-1l5 -6h4v4l-4 3h-5zM421 39v-2q51 0 114 44l2 2v2l-2 1h-2zM262 85l-2 -2v-4q0 -5 39 -10q18 -9 43 -9q-7 6 -78 25h-2zM388 64v-2l9 -2h5q13 0 35 9v3h-23q-26 -1 -26 -8zM733 58v-7l7 -1l5 1v4l-4 3h-8zM349 36 v-2q1 -5 14 -5h7v1q-1 6 -14 6h-7zM701 22v-4h7l4 4v3h-7zM444 4v-2h12l4 4v2h-13z" />
<glyph unicode="R" horiz-adv-x="880" d="M237 961h4q25 0 105 -16q106 0 275 -57q73 -56 113 -137q13 -46 13 -86v-3q0 -61 -51 -138q-31 -39 -88 -70q-21 -18 -68 -44q-23 -19 -23 -25q116 -166 161 -225q41 -67 72 -67q105 -6 105 -30q3 0 11 -66q-1 -7 -10 -7h-11l-78 -17q-9 14 -86 14q-75 0 -75 9 q-4 22 -14 56l-1 10v5q0 12 -39 66q-5 28 -14 34q-35 52 -96 180q-13 16 -24 16l-86 -21q-60 0 -60 -35v-23q0 -177 27 -177l17 -2h16l33 7q9 -18 9 -59l-5 -14l1 -25q0 -13 -98 -26l-5 2l-107 2h-78q-14 0 -14 35v24q0 53 24 53l63 14l4 21q-11 303 -21 397q-2 304 -9 304 l-5 2l-95 -17l-5 1l2 13h-16v3h-2l2 18v8q0 9 -11 28q20 3 20 11l-9 10v2q0 9 121 26zM246 931v-1l4 -4h24v4l-19 5h-5zM257 893q1 -5 10 -5h4q39 1 40 8l-4 4h-28q-22 -2 -22 -7zM372 882l5 -3h14q14 0 16 7q0 5 -17 5q-14 0 -18 -9zM542 882l-2 -1v-2q8 -5 16 -5v1 q0 3 -14 7zM26 861v-5l5 -2q9 0 16 11v7l-6 5h-7q-5 0 -8 -16zM587 863v-2q41 -27 65 -47h5v7q0 20 -70 42zM260 846v-11l11 -89q-8 -143 -13 -156l-8 -9v-17l10 -72q0 -49 14 -49h2q107 15 107 25q66 24 99 43q63 0 147 86q23 46 23 88v15q0 13 -38 74q-72 80 -135 80 l-47 4q-104 -12 -172 -12zM160 839v-30l6 -77h3l7 108l-2 2h-10zM607 812l7 -7h5v4l-7 7h-2zM241 763v-5q1 -10 5 -10l4 3v12l-4 4h-2zM202 723l-10 -94l5 -4h5l6 5v74q0 19 -6 19zM687 690v-9l4 -3h1l6 5v5l-6 5h-1zM164 657v-4l3 -3h4v3l-4 4h-3zM698 615v-6l-11 -22v-4 l9 -10q10 0 12 28q-3 14 -7 14h-3zM668 546q3 -8 10 -12h2q16 12 16 25l-2 1h-2q-18 0 -24 -14zM631 532v-5h5q11 5 11 12h-4q-9 0 -12 -7zM544 503v-4h12q7 8 30 19l1 2v4q-18 0 -43 -21zM195 513v-2l4 -3l3 3v2l-3 4zM479 466v-4q39 9 52 27l-1 1h-2q-41 -13 -49 -24z M589 487v-2h7v5h-3zM566 468l2 -2h2l9 7v3h-2q-7 -2 -11 -8zM416 443v-2h10q20 3 20 7l-2 2h-4q-24 -2 -24 -7zM365 433v-2h5q21 0 21 7v2h-3q-8 0 -23 -7zM458 420l2 -1h1q35 7 35 15l-1 2h-2q-31 -7 -35 -16zM486 336v-1q0 -11 12 -20h5v4q-10 17 -17 17zM197 154v-14h5 l4 14l-2 6h-2zM234 79v-2l5 -5h2q6 0 9 19v6l-2 8h-4q-6 0 -10 -26zM204 102l-3 -23v-2h7l5 6v5q0 13 -5 14h-4zM341 67v-4h3l4 4v3h-4zM663 56v-1l5 -6h2l5 6v7h-7zM803 55v-6l8 -1h7l4 3v4l-5 5h-4q-10 -1 -10 -5zM335 32l2 -2h7l5 5v2l-3 4q-11 0 -11 -9zM683 45v-2l5 -5 h23v1q-2 6 -14 6h-14zM805 18v-1l5 -6h18q13 0 16 7q-2 6 -11 6h-17q-11 -2 -11 -6zM618 15q0 -5 7 -5l7 3l-2 5h-9z" />
<glyph unicode="S" horiz-adv-x="660" d="M340 955l93 -18q23 0 79 -40h5q4 54 11 54q40 -15 49 -15h29l21 1l4 -3l-2 -9v-177q0 -16 -9 -26q11 -10 11 -21q0 -10 -9 -24l4 -23q0 -16 -9 -16l-35 4h-2l-19 -4h-2q-6 0 -19 60q0 19 -16 35q-19 27 -19 35l9 3v2q-21 16 -25 37q-56 56 -98 56h-9q-17 0 -138 -28 q-9 -5 -37 -53q-26 -36 -26 -66q8 -90 21 -90q19 -46 44 -57q4 -8 33 -13q20 -18 82 -45q0 -5 14 -7l16 5q11 -2 11 -5v-2l-4 -5v-4q17 -24 47 -24v2l-28 22v2q16 0 91 -49q114 -108 114 -136q19 -81 19 -105q-12 -107 -22 -107l-34 -58q-96 -58 -113 -58q-157 32 -212 55 q-109 101 -109 120l-5 4l-2 -2v-7l-1 -77q0 -10 -49 -10l-25 1l-21 -8q-12 0 -26 15v2l7 11q10 234 24 234h2l25 -5h1q7 0 14 5l18 -5l10 3h4q5 -1 26 -40q53 -66 95 -129q5 0 35 -37l85 -37h25v-5h3l6 3h3q11 -8 21 -8h9q38 3 38 10l-1 2h-27l-17 2v1q2 4 98 20q23 0 44 77 q0 26 12 36v7q-22 72 -53 95q-16 30 -127 68q-68 26 -116 65q-64 19 -75 44q-11 20 -63 59q-25 77 -56 119q-14 57 -14 128q11 45 100 126q50 28 162 28zM178 908h17q13 0 102 22q33 7 33 11l-5 2q-147 -12 -147 -35zM545 925l-3 -5v-5q2 -7 12 -7h23v1q-14 16 -32 16z M220 855h3q12 0 65 26l37 14v-1l-4 -9h11l8 2v5l-3 5v9h-2q-63 -20 -93 -35q-22 -5 -22 -16zM430 895q0 -5 42 -15h7l3 3v2q-5 10 -28 10h-24zM547 888v-3l2 -9h3l5 5v6l-5 5h-2zM185 874v-1q0 -4 5 -4q7 2 10 9v3q-13 0 -15 -7zM500 866l7 -6h7l3 4v5q0 3 -10 7 q-7 -2 -7 -10zM571 848l4 -3v-2l-5 -7v-4q0 -3 10 -7q4 -11 9 -12h5v4l-3 5v5h5l7 -5h3l2 9v3q-10 39 -16 39h-7q-14 -7 -14 -25zM176 813l9 -9h3q14 2 30 18l-4 3h-15q-16 0 -23 -12zM111 820v-2h7v6h-3zM153 759v-2h2q26 22 26 42l-5 4q-16 0 -23 -44zM599 799v-3 q4 -8 9 -9v5l-3 7h-6zM587 785h4v4zM564 778v-2l6 -5h5l5 5v2l-5 5h-5zM596 764v-10l2 -9h3l4 24h-4zM570 745v-4l3 -3h4v3l-4 4h-3zM568 708v-23l3 -3h2q10 0 12 9q-7 16 -7 29h-3q-7 -3 -7 -12zM571 659l6 -5h5l2 5l-6 4h-3zM148 603v-10l5 -6h11v6q-10 10 -16 10z M172 565v-6q29 -22 39 -22h5v7q-20 13 -42 21h-2zM335 517q2 -5 11 -5h5v2l-4 3h-12zM361 498l-3 -3q3 -8 44 -28v7q-17 16 -41 24zM386 414v-7q15 -7 44 -10q1 -6 10 -6h11v2q0 12 -58 21h-7zM482 376v-4l4 -3h3v3l-3 4h-4zM62 234q-7 -20 -7 -53l4 -19h1q13 0 13 12 q-6 30 -6 60h-5zM97 194q-7 -24 -14 -32l5 -14l-1 -37v-8q1 -11 5 -11h9l5 5v6q0 91 -9 91zM172 159v-4q6 -21 20 -21v2q-9 23 -18 23h-2zM60 127l2 -2h2q6 0 7 28l-2 2h-2q-4 0 -7 -28zM220 146v-1q9 -21 21 -21v3q-9 13 -18 19h-3zM575 115l5 -5h7l5 5v3l-3 4h-7zM304 90 v-1q1 -7 10 -7v1q-2 7 -10 7zM227 89v-2q16 -29 70 -47q50 -18 129 -35q16 -10 30 -11h12q35 8 35 23v2l-126 8q-108 36 -140 60zM482 47v-2l4 -4h7q50 0 56 14l-6 4h-8q-18 0 -53 -12zM440 19h2q10 -2 10 -6v-1h-3l-9 1v6z" />
<glyph unicode="T" horiz-adv-x="625" d="M145 944q62 0 255 -19l154 -4h5q102 0 153 9q17 -62 17 -149v-7q0 -38 -16 -38l-5 -5q0 -6 16 -13l2 -1v-4q-7 -13 -49 -16q-32 0 -32 23l-3 33l3 63q0 13 -82 13h-84l-47 1q-14 0 -20 -227q-8 -188 -8 -254v-42q0 -19 -13 -37v-1q10 0 13 -30l-4 -21h-2l-1 2v8l-2 -108 q0 -18 138 -30q26 -10 26 -26q-12 -23 -12 -63q-3 0 -3 -14l-6 -4q-148 7 -274 7h-32q-58 0 -98 -5q-3 4 -12 91h2l19 -9h2l5 6v1q-1 6 -14 6l-4 5v2q0 4 60 15q0 6 98 7q11 0 16 90l7 89q-13 114 -13 143l-15 275v35l3 53l-3 17l5 11v7q0 11 -109 14q-80 -4 -80 -11 q-12 -31 -25 -96l-10 -9l-2 2h-10q-7 -5 -13 -5l-39 -3q4 98 4 120l-7 54q0 18 21 19l16 16h7l12 -16h4q23 30 68 30h18zM435 886q0 -9 44 -10q23 1 23 7v2q-17 5 -58 5h-5zM608 851v-1q2 -6 11 -6h7v2l-5 5h-13zM649 851v-5h3l4 4v1h-7zM356 816v-1l4 -4q12 0 28 18v3l-7 2 q-12 0 -25 -18zM54 822v-11l5 -5h2l7 7v10l-6 6h-1zM313 818v-7q3 -21 8 -21q7 0 11 16v9q0 9 -9 14q-10 0 -10 -11zM675 822l-4 -18l6 -3l5 5v10l-5 6h-2zM367 773l-2 -18v-21h4l1 18v21h-3zM666 731v-7h4l5 5v2l-4 3h-1zM379 647l-3 -49v-34q0 -35 8 -35h2l4 18l-7 100h-4 zM320 601l1 -2h2v6zM334 501q-9 -35 -9 -75v-16q0 -66 12 -66q4 0 5 21l-7 66l6 30l-4 40h-3zM344 307l-2 -23l14 -22v8q0 37 -7 37h-5zM211 81v-7q0 -3 5 -3l30 3v4q-6 10 -21 10h-7zM180 83l-2 -5l5 -4h4l3 4l-5 5h-5zM479 62q22 -5 49 -5l3 3v4l-15 3h-27q-10 -1 -10 -5z M447 39q4 -10 14 -10h9q9 0 11 5v2q0 6 -20 9h-8zM307 39v-5l13 -2h19q9 0 10 6q-8 3 -22 3h-7zM215 34v-5l22 -4l18 4v2l-5 5h-27zM160 10v-2l4 -4h2q10 6 10 20v1l-3 4h-2q-11 -6 -11 -19zM521 20v-5l5 -2l4 5v4l-4 3z" />
<glyph unicode="U" horiz-adv-x="641" d="M84 863l77 -9h32q54 0 54 -10l-11 -13v-1q0 -6 25 -11v-3q-13 -9 -23 -41l-82 -12q0 -2 -11 -3v-2l6 -102q0 -29 -14 -133v-26q0 -38 8 -115l-1 -2h-2l-9 30h-5l-2 -21v-79q0 -49 7 -49h2l9 100l1 1h2l4 -33l-9 -107q12 -22 17 -43q20 0 60 -74q27 -24 94 -24l34 -9h10 q47 0 68 49q15 21 60 103q19 21 19 61v23l-5 135l3 17q4 0 6 -8h3q10 0 11 43q-18 0 -18 13l9 103q-13 138 -39 138q-68 10 -68 26q-16 22 -16 39q27 37 83 37q0 5 98 7q68 0 68 -14l2 -9v-21q0 -43 -44 -63l-4 -5v-2q13 -192 21 -228q-19 -55 -19 -215q0 -19 -56 -196 q-20 -37 -23 -37q-8 -3 -12 -10v-4h11v-1q-3 -6 -35 -28q-22 -23 -69 -23l-36 3l-76 -14q-144 0 -199 69q-23 11 -23 29l2 13q-21 30 -49 141l-7 53v9l3 26l-8 3l1 14l-8 16q2 24 19 53v63l17 171v100q0 17 -42 23q-10 26 -10 66q0 23 89 23zM593 814q11 -11 25 -11h5 q0 14 -19 14h-7zM455 805v-3l16 -4h10l4 4l-4 3h-26zM558 802l4 -4h7l3 4l-3 3h-7zM32 796v-3q1 -5 10 -5h4l3 3q-2 5 -10 5h-7zM82 763q-5 -9 -5 -17l5 -6h4q10 6 10 13q-3 10 -14 10zM116 754l-11 -24v-2q5 -10 12 -10q4 6 4 19v12zM100 649v-1h3l4 15h-2q-5 -1 -5 -14z M557 649l-2 -8v-25l3 -3h2q5 1 5 10v11l-3 15h-5zM68 639l-1 -9v-14l1 -9h4q5 0 5 18q-1 14 -5 14h-4zM112 588v-28h5q6 16 6 39v17h-4q-6 0 -7 -28zM560 565l-3 -26v-16h5q5 19 5 32v10h-7zM81 488v-3h3zM81 455l-2 -9v-50h5l2 35v21l-4 3h-1zM541 452v-4q0 -3 14 -7l2 2v2 q-8 7 -14 7h-2zM553 401l-2 -9v-2h6l1 9v2h-5zM541 334h3q7 0 9 39h-2q-8 -2 -10 -39zM536 310v-9h1q6 1 6 14v9h-2q-5 -1 -5 -14zM89 200v-7q0 -16 9 -34q-3 -7 -3 -19v-7q2 -17 15 -17l4 3v2q-4 32 -7 38l2 11v2q0 10 -18 28h-2zM156 168v-2q0 -5 28 -50v-2h9l7 7v2 q0 8 -27 29v2l4 5q-4 9 -18 9h-3zM464 91l2 -2h1q30 11 30 27l-5 1q-16 0 -28 -26zM114 82q7 -16 14 -19h2v5q0 10 -13 18zM203 81v-2l4 -4h7v4l-6 5h-1zM424 70h3q9 0 12 7v5h-1q-14 -1 -14 -12zM296 61v-5h2q12 0 14 5v4h-2zM460 35v-2h2q9 0 12 7v4h-1q-12 -5 -13 -9z M320 40v-7h7q9 0 11 6v3h-5zM415 16v-2h12q25 3 25 14h-7q-23 0 -30 -12z" />
<glyph unicode="V" horiz-adv-x="694" d="M276 958v-11q0 -4 18 -12v-4q-5 -9 -5 -17v-2l1 -31q0 -8 -14 -25v-3q0 -7 9 -18v-5q0 -7 -91 -19l-9 -4l-10 2h-2q2 -16 16 -16l7 7q27 0 42 -73q3 0 5 -14l-5 -23v-9l12 -10q12 -26 12 -39v-35q9 -13 9 -61q18 -56 18 -74q0 -39 43 -162q38 -161 53 -161h2 q26 19 59 157q30 89 30 121l-5 10q30 69 63 196q40 119 40 144v5q0 13 -32 19q-7 5 -7 13v94q0 26 28 35q24 16 48 16l175 -33q3 0 3 -32h2l-2 -9v-50q0 -42 -9 -42q-115 -2 -115 -14q-31 -154 -72 -266q-28 -71 -42 -177q-49 -193 -96 -289v-2q0 -6 7 -14v-3 q0 -10 -123 -25q-42 0 -42 49q0 22 -22 86q-27 110 -56 205q-32 111 -81 227q-12 32 -17 84q-36 105 -48 165q-8 9 -15 9l-42 -2q-13 0 -13 12l6 35l-4 18l4 10q0 9 -4 9q0 13 32 44q45 -7 70 -7h8q42 0 149 21h12zM23 912v-9q26 2 26 9q-6 12 -16 12q-3 0 -10 -12zM635 919 q5 -8 37 -10h17l4 3v4zM73 881l6 -2q152 9 152 19l-5 4q-35 0 -151 -18l-2 -2v-1zM19 889q0 -36 5 -52h2q4 0 7 16q-2 42 -9 42h-1q-4 0 -4 -6zM591 867v-4h13q26 0 31 16l-5 3h-12q-18 0 -27 -15zM721 870q6 -5 14 -5q21 1 21 10q-2 7 -11 7h-10q-14 0 -14 -12zM721 809 q0 -4 5 -4q51 0 51 18v9q0 14 -12 14q-7 -1 -25 -30q-19 -4 -19 -7zM586 830q2 -7 16 -7h2l5 5l-5 5h-14zM112 812v-3l3 -4h4v4l-4 3h-3zM560 800l2 -5h3l4 3v2l-4 4zM696 802v-2h4v2h-4zM117 793v-3h2l5 5v2h-3zM180 777q14 -84 42 -136q1 -18 5 -18h2v2l2 25q0 26 -11 26 q-10 0 -10 12v4l9 7q-6 47 -16 49q-8 36 -14 36h-4zM572 646v-3h2q7 0 17 36l-1 2h-2q-7 0 -16 -35zM229 615v-2q2 -25 7 -25h2l2 9v4q0 12 -11 14zM555 562h1q6 0 13 30h-2q-6 0 -12 -30zM238 567v-3q4 -27 10 -32h2q-2 34 -9 35h-3zM542 522q-14 -43 -14 -58v-5h2 q12 6 14 61v2h-2zM257 482v-2q0 -35 12 -70h4v10q0 56 -14 62h-2zM280 370v-2q1 -18 5 -18h2v16l-4 4h-3zM290 336l-1 -1v-2l1 -9h6q-2 12 -6 12zM502 265h2l5 5v5q-3 0 -7 -10zM448 238l2 -1h1q9 16 9 26v5h-2q-6 0 -10 -30zM275 245l-2 -1v-9q0 -24 16 -47h1v8 q-13 49 -15 49zM476 202l2 -2h3q6 0 9 19h-5q-9 -4 -9 -17zM346 198v-3l4 -4h3v4l-3 3h-4zM352 161v-7q2 -17 7 -17h1l6 5v9l-11 10h-3zM444 153q-10 -21 -10 -37h2q10 0 14 37h-6zM411 63v-5q0 -3 5 -3q12 0 16 40v2q0 3 -5 3q-16 -10 -16 -37zM411 44v-5l4 -4h5l3 4v2 l-7 7h-1zM376 30v-3h19v3q0 10 -8 14h-2q-9 -4 -9 -14zM329 35q-7 -10 -7 -15l3 -4h2q7 3 7 12v2z" />
<glyph unicode="W" horiz-adv-x="794" d="M69 863q31 0 157 -30q14 -12 14 -19q-12 -57 -12 -139l7 -138q0 -120 -14 -275l-3 -70v-7q0 -22 5 -40h2q14 8 70 149q41 94 64 170q18 13 34 54l5 3h3q25 -10 58 -14q30 0 46 -238q12 -94 22 -94q9 0 41 121q21 68 47 182q24 80 47 259q6 19 16 113q23 4 75 4h26 q65 0 77 -19l6 -16l-2 -11q0 -93 -5 -112h-3q-35 4 -43 4h-2q-25 0 -31 -37q-72 -230 -86 -346q-9 -34 -16 -119q-32 -168 -37 -175q-13 -16 -63 -26q-98 -2 -101 13q0 -5 -24.5 82t-24.5 123q-11 62 -21 82q-8 0 -35 -82q-35 -75 -49 -124l-12 -32q-18 -23 -18 -31v-4 l4 -14q0 -14 -124 -21q-11 2 -11 6l2 7q-12 0 -26 64q-16 75 -16 147v195l-18 159l-3 96l2 21q-6 19 -34 19q-49 4 -49 23q7 24 14 109q2 6 20 17q5 11 19 11zM708 838q-18 -2 -18 -7v-3q0 -4 5 -4l116 12v4h-2zM134 810l3 -3l21 5h7q9 -3 18 -33l8 -2h4q17 0 21 19v2 q0 6 -42 19h-23q-17 -2 -17 -7zM78 728v-2q1 -5 10 -5h19l4 3v6q-2 5 -11 5h-7q-13 0 -15 -7zM800 733v-3h6v3h-6zM163 684l-1 -73v-11q0 -18 10 -35l-2 -2v-3l4 -4h3l6 6l-13 122l-1 2h-2l-2 -2h-2zM678 558q-11 -39 -11 -63v-3h4q12 15 12 54l-2 12h-3zM207 495v-3h4v3h-4 zM456 476v-21l5 -5h3l4 3l-5 26h-4zM160 467v-23l3 -21h4v11l-4 33h-3zM457 437v-15q0 -21 11 -74h5v12q0 81 -12 81zM405 373l-2 -6l2 -1h2l5 5v2h-7zM624 292l1 -2h2q7 8 7 14v2h-2q-8 -5 -8 -14zM426 303v-11q2 -26 9 -26h1l4 3q-9 34 -12 34h-2zM615 241l2 -14l-16 -38 h3q18 21 18 38v18q5 6 5 16v14h-2q-10 -7 -10 -34zM345 233l-1 -9v-4h1l6 6v7h-6zM576 226q-17 -40 -17 -49v-2h2q19 27 19 47zM639 184h4q6 1 9 35h-2q-11 -16 -11 -35zM494 171v-1q0 -20 5 -20h2l-3 21h-4zM496 140v-32q2 -53 15 -53h7q9 0 14 8v4h-11q-17 0 -20 73h-5z M265 91q0 -11 12 -11l4 6v22h-4q-12 -8 -12 -17zM570 65v-5l4 -4h5q9 4 9 18l-4 3h-2q-8 -4 -12 -12zM607 25v-2h2q10 0 15 30v7h-1q-8 0 -16 -35zM184 66v-1l9 -9h7l2 12v9q0 3 -5 3q-13 -4 -13 -14zM258 58q9 -7 19 -7h2l3 3v2q0 14 -12 14q-12 -5 -12 -12zM488 35v-3 q0 -4 10 -5q8 3 9 7q-3 7 -12 7q-7 -3 -7 -6zM535 21l5 -3h13q12 0 14 5v2l-9 2h-9q-13 0 -14 -6zM483 4h3q14 0 18 9l-4 3h-7q-10 -5 -10 -12zM230 24v-1h37l8 1v7h-10q-35 -1 -35 -7zM188 21l3 -4h7l6 6l-4 3h-7zM135 5h4v-5l-4 3v2z" />
<glyph unicode="X" horiz-adv-x="819" d="M289 910q24 -6 24 -19l-9 -30v-4l13 -17q0 -26 -35 -30q-16 0 -16 -5l37 -47q6 -27 22 -49q0 -8 97 -146q0 -11 14 -19h1q28 27 42 60q65 114 79 143q9 4 9 14v2q-21 30 -30 30q-37 3 -37 12q11 18 11 28v7l-7 9v1l14 32l14 3h3l25 -5h135q60 0 98 -19l1 -7 q0 -62 -17 -70q-15 -19 -75 -19q-20 -2 -20 -7q0 -4 14 -6v-3q0 -3 -24 -12q0 -6 -68 -116q-55 -96 -105 -163v-5q5 -15 56 -101q101 -250 142 -250q57 0 112 -38l-2 -21l-7 -16q0 -31 -5 -31l-37 1q-6 0 -33 -14l-54 -3q-81 0 -138 23l-13 29l-10 11l10 -2l-21 28 q0 15 52 33l2 2v4q-31 81 -96 186q-31 56 -41 56q-26 -25 -43 -61q-36 -69 -112 -153l-21 -31q-18 -14 -18 -19q37 -15 37 -42q-9 -56 -26 -56q-7 -20 -34 -20q-74 14 -91 14l-57 -1q-29 0 -37 50q0 21 17 39q1 7 27 31h1q17 -21 25 -21q42 14 42 42q91 114 142 195 q6 4 35 49q20 17 26 43l31 46v7q-23 51 -94 149q-33 44 -63 103q-43 70 -74 70q-54 0 -54 23q0 28 -5 28q30 56 93 56q100 19 126 19zM646 856v-2h5v2h-5zM131 838v-3h5v3h-5zM539 831v-7q24 -14 37 -14h15v4q-1 4 -52 17zM679 810v-3h5v3h-5zM203 798v-9l5 -5h2v3 q0 9 -5 11h-2zM182 791v-4l3 -3h6v2l-6 5h-3zM616 731v-3h9l7 7v5h-2q-10 0 -14 -9zM282 700q0 -15 29 -47q0 -13 35 -49h4v1q-12 39 -53 88q-7 7 -14 7h-1zM516 637h2q19 17 19 28h-5q-16 -11 -16 -28zM362 511q2 -16 16 -16v4q-4 8 -12 12h-4zM364 369v-3h3l21 26v9 q-13 0 -15 -21zM497 381l-2 -1v-2q16 -30 40 -56h2l2 2q0 14 -42 57zM437 380q4 -28 39 -70h3v3q0 7 -36 67h-6zM269 268v-4h2l23 33v6h-7q-10 0 -18 -35zM488 299l-2 -2v-1l4 -7h5v3zM525 243q1 -5 9 -9h3l5 6q-3 14 -7 14q-10 0 -10 -11zM250 241h4l7 7v4q-11 0 -11 -11z M219 196v-5h1q6 0 25 24v5h-5q-12 -8 -21 -24zM243 157l4 -3l7 5v2h-7zM222 136v-3h2l5 5v2h-3zM551 78v-2l4 -3h9l3 3v2l-3 3h-9zM672 71v-4l4 -3h7v3l-6 6zM553 48v-2l9 -1h14q9 0 10 5v2l-8 1h-11q-13 0 -14 -5zM758 32l2 -1q33 3 33 8l-4 4h-7q-24 -4 -24 -11zM533 32 v-5l5 -5h2q12 0 12 12v2h-16zM590 13l4 -3h2q12 0 14 5v3h-9q-11 -1 -11 -5zM622 13v-3q2 -6 10 -6l9 2v4l-3 3h-16zM143 45v-5h13l12 2v3h-25zM191 3v-3q3 -9 12 -9q7 0 10 7l-5 5h-17zM40 -7v-2h35l4 4v1q-2 6 -14 6h-7q-14 0 -18 -9z" />
<glyph unicode="Y" horiz-adv-x="683" d="M255 938q7 -3 7 -5q-4 -17 -7 -88q-3 -10 -32 -10q25 -52 98 -144l30 -63q17 -29 51 -58q20 16 63 79q36 53 89 119q23 33 23 49l-6 4h-28q-31 0 -36 75q0 17 36 17q0 16 74 16h80q77 0 77 -12q4 -9 4 -32v-17q0 -37 -16 -37q-8 0 -14 -21h-3l-18 16h-12q-15 0 -39 -25 h-3l-4 16h-5q-13 0 37 26q-98 -75 -98 -89q-5 -6 -5 -12v-2h1q7 1 16 19q85 60 95 79l5 1q19 -5 19 -10v-7q-117 -142 -164 -204q-106 -122 -111 -146v-7q9 -16 9 -164q0 -198 19 -198h2l39 -7l26 -3l3 -9l-1 -42v-11l12 -14v-5q-23 -33 -128 -33q-149 3 -149 16l-3 35l2 47 q0 19 43 19q37 2 37 7v2q-16 58 -16 310q-3 19 -12 38q0 13 -17 28q-35 69 -133 235q0 5 -60 89q-7 5 -16 5l-63 -2q-22 4 -22 13l10 14q0 4 -12 5l-5 -2v-9q0 -9 -11 -14q-10 0 -14 28q-17 20 -23 20v7q14 5 14 14l-10 8q0 20 35 23h28q62 0 198 21zM167 873v-2h2l10 2 l32 -7l5 7q0 5 -19 5h-2q-28 0 -28 -5zM729 856v-4h2l5 2v5h-4zM549 847l5 -5h3q10 0 14 7v5h-10q-10 0 -12 -7zM155 826v-4l3 -3h2v7h-5zM164 810l-2 -2q6 -23 12 -24h4v2q0 12 -14 24zM458 611v-6h1q51 63 51 76h-2q-17 -17 -50 -70zM262 670l-2 -2v-12l7 -7h10q6 0 6 7 q0 8 -21 14zM290 647v-1l5 -6h2v4l-4 3h-3zM419 549v-1q5 0 30 36v6h-4q-26 -28 -26 -41zM405 485q0 -10 9 -14l9 1v2q0 8 -11 14h-3zM435 420v-9l3 -3l6 5v12h-4zM382 236l-1 -2v-50l1 -9h6v30q0 31 -6 31zM332 33v-2l5 -5h12q18 2 18 7v2l-4 3h-21q-10 -1 -10 -5zM480 26 v-2l25 -3q19 0 19 5l-10 4h-30z" />
<glyph unicode="Z" horiz-adv-x="685" d="M498 896l77 3q23 -3 23 -13q-4 -7 -4 -19q7 -8 7 -12v-38v-4l2 -2q0 -31 -62 -103q-22 -32 -43 -82q-7 -5 -35 -63q-76 -114 -140 -242q-5 -1 -37 -56q-39 -49 -86 -134v-2q2 -7 16 -7h3l132 9q64 0 169 -14q12 0 26 85l8 -9q7 15 19 21q74 -13 71 -1q14 -2 22 -198 q-34 1 -303 -5l-198 -18q-16 -7 -37 -7l-29 11l-34 -5h-3q-37 0 -42 15l3 7l-1 16q2 49 129 214q3 10 89 138q98 165 196 303q13 18 62 73l1 7q-6 5 -29 5h-4q-66 0 -208 -24h-7l-72 5l-10 -24l8 -79q0 -15 -91 -23q-17 40 -17 67l-2 31v19l4 90l-9 21q5 0 21 24q6 6 49 -16 q162 22 189 22q156 8 177 14zM309 861q0 -7 131 -8l33 -6q14 6 25 6h24l37 26v4q-25 -9 -52 -9q-198 -4 -198 -13zM230 871v-4h7q49 -24 49 -16l-2 2l-19 25q-15 0 -35 -7zM386 844l-2 -1v-2h97l3 3l-30 2zM123 878l-2 -2v-2q0 -8 48 -42l9 2v3zM199 837v-3l17 -2q18 1 18 5 v2l-9 2h-23zM321 836v-2q2 -5 11 -5v3l-4 4h-7zM519 829l-93 2q-25 -12 -49 -18v-2l21 -3h9l71 12q36 3 53 9v3h-2zM141 825l3 -29h2q9 11 16 12l36 -2h23v4q0 8 -79 15h-1zM216 775v-7h2l47 7v1l-4 4h-21q-11 0 -24 -5zM431 605q13 0 67 80l57 76v3h-5q-25 0 -63 -52 q-16 -37 -56 -100v-7zM83 747v-4l3 -3h4v3l-4 4h-3zM83 664l2 -5h3q9 5 14 18l-2 5h-5q-6 -2 -12 -18zM291 335v-1q15 0 33 54q16 20 16 26v2q-22 0 -49 -81zM163 150v-2q28 26 48 63v4q-22 -20 -46 -58zM552 131v-6l3 -3h2q7 3 7 12v4h-5zM400 110q0 -4 5 -4q17 2 17 7 l-1 2h-16zM191 97h35l4 4l-4 3h-8q-27 0 -27 -7zM622 35q4 -13 16 -13q7 0 7 4l-5 51h-4q-8 0 -14 -42zM508 73v-2q0 -5 12 -7l2 2v3l-3 4h-11zM545 40l3 -4h7q9 0 11 5l-5 6h-9zM447 40v-4h5v4h-5zM288 33v-4l21 -2h8q48 0 72 6v3l-9 2h-1q-59 0 -91 -5zM202 22v-3l3 -4h4 q37 0 42 11q0 3 -23 5q-26 -3 -26 -9zM46 19v-2l4 -4h22l6 6v1l-6 6h-10q-14 0 -16 -7zM176 12v-4h14l5 5l-4 4h-10z" />
<glyph unicode="[" horiz-adv-x="403" d="M259 1046h91q27 0 27 -13l10 -24l2 -33v-2q-2 -46 -11 -49q-17 12 -28 12h-10l-47 -17q-27 -9 -123 -14q0 -6 -44 -7q-12 -17 -12 -48q0 -11 19 -12v-5q0 -4 -5 -4l-12 2v-2q0 -8 12 -19q-17 -15 -17 -59l1 -46v-9q4 0 9 27h4v-14q0 -32 -11 -32h-5v-3l10 -11v-7l-8 4 q-6 -7 -6 -16v-12q0 -11 13 -23v-2q0 -23 -14 -37v-43l-4 -46l4 -30l-4 -21l7 -7v-1l-7 -11q0 -55 18 -163q0 -86 22 -140l-1 -21q0 -8 12 -47h5q95 0 170 23q17 0 17 -68q6 -7 6 -34v-5q0 -19 -9 -24l-18 1h-29l-123 -5l-52 2q-32 -2 -77 -11l-2 6l14 24q-5 19 -11 172 l6 26h1l20 -21l3 3v20q0 40 -7 66h-2q-4 0 -8 -24h-2q-9 0 -9 155q2 11 5 11h4l14 -14h2q0 16 7 26v7q0 9 -7 12q-12 -22 -14 -22q-6 0 -13 89q3 12 6 12l-2 37l5 345l-2 5q7 102 19 102q11 0 11 -14l-7 -92q0 -11 -5 -22l2 -25q-6 -11 -9 -79q3 -42 9 -42q29 101 29 217v16 q0 4 -17 12l5 91q0 10 5 -52v2q-22 4 -22 22v4q0 4 33 23q-1 5 -14 5l-4 5q0 9 175 18zM221 1012l3 -3h16l18 5q14 -5 42 -5q54 0 54 9v5l-4 3q-129 -3 -129 -14zM105 1002l-1 -2v-2l5 -3h19q37 0 37 5v2l-25 2zM356 984v-1q3 -7 10 -11h7v12l-5 6h-2q-10 -2 -10 -6z M312 969l2 -2h21l3 3l-3 4h-13q-10 -1 -10 -5zM139 965v-3h5v3h-5zM68 1024l5 -2v-2q0 -8 -8 -15l-4 3q0 11 7 16zM63 978h2v-3l-4 -4h-2v4zM60 634q2 -14 7 -14q5 2 5 11v14q0 13 -5 14q-5 0 -7 -25zM62 582v-9l3 -3l4 3v35q-7 0 -7 -26zM107 606v-3h4v3h-4zM58 528v-21 q0 -13 5 -14h4l2 8v32l-2 9h-4q-5 -2 -5 -14zM58 468v-10q0 -20 5 -20q6 9 6 18v3q0 13 -6 14zM56 248v-7h7v7h-7zM46 169h2l5 -5v-7h-7l-2 7zM119 50v-7l6 -5h5l5 5v5l-7 7h-3zM107 8v-4l4 -3h5l3 3v2l-3 4zM156 4v-3h5v3h-5zM280 -39q0 -7 32 -7q14 0 14 8q-2 7 -11 7h-15 q-20 -2 -20 -8zM258 -34v-7h7l1 5l-3 4z" />
<glyph unicode="\" horiz-adv-x="591" d="M88 988q46 0 102 -168l152 -308q19 -16 26 -32l-1 -16q8 -33 42 -61q0 -16 17 -38l54 -125v-1q-14 -3 -14 -7v-2h7q15 0 30 -54q34 -61 70 -165l4 -14q0 -14 -28 -26q-45 -42 -67 -42h-3l-30 82q-53 134 -133 273q-21 28 -86 168q-172 310 -215 424q-16 23 -16 31v2l9 12 q0 5 -18 28q0 6 21 12q0 11 34 16q17 11 43 11zM115 949v-5q14 -44 24 -49h2v2q-13 57 -21 57zM62 912v-1q0 -13 12 -21h2v3q0 11 -14 19zM99 750v-7l3 -7h7v5q-4 9 -10 9zM221 627v-3q10 -34 27 -49l1 1v2q-18 49 -26 49h-2zM328 373v-1q2 -7 11 -7v1q-2 7 -11 7zM389 359 q47 -106 69 -124q7 3 8 7v5q0 10 -29 42l-35 67l-9 5l-2 -2h-2zM342 351q10 -34 14 -34h4v2q0 12 -16 32h-2zM396 242v-7q16 -39 25 -49h2l3 4q-17 50 -26 56zM503 121v-5q0 -9 9 -16h2l3 4q-4 21 -10 21zM445 92v-4q0 -30 21 -52l4 3q-15 47 -23 53h-2zM493 85l-2 -2 q2 -7 9 -11h3v2q-5 9 -10 11zM522 85v-7l4 -4h3v2l-1 9h-6zM536 15v-7q0 -14 13 -14h1q6 1 6 10q-5 14 -16 14zM484 -52v4l-4 3z" />
<glyph unicode="]" horiz-adv-x="441" d="M387 1037q14 0 22 -22v-2q-18 -29 -28 -249q-8 -147 -8 -197v-46q0 -340 22 -434l2 -42v-19q0 -40 -12 -65l5 -7q-2 -10 -5 -10l-14 12h-7l-5 -5v-2q0 -7 15 -25v-3q0 -17 -189 -35q-25 0 -66 10l-67 -17q-22 0 -22 19q4 126 15 126q17 11 23 11l14 -2q9 0 19 16 q19 5 37 5h19l83 -5l29 40q0 7 7 17l-3 11q10 9 10 89l2 103v298q0 50 -5 68l-2 175v39q-129 -16 -173 -28l-40 1h-2l-28 -8q-19 8 -19 15q8 11 8 44v12q0 41 -10 51v4q24 36 54 36q37 13 81 18q37 -5 70 -5h45q91 0 123 8zM173 985q0 -3 74 -7q26 1 26 7v3q-2 6 -11 6 l-21 -6l-14 6h-14q-35 0 -40 -9zM124 981h-12l-53 -1v-6l6 -5h17q74 5 74 14l-2 2h-2zM308 969v-9l3 -3l2 2v7l-3 3h-2zM170 948v-3q103 2 103 10q-1 5 -12 5q-91 -3 -91 -12zM110 952v-4l4 -3q12 2 12 7l-2 1h-5zM59 941v-5h6q38 2 38 9l-3 3h-25q-13 0 -16 -7zM259 931 l-4 -6l4 -3h9v7zM112 904l2 -1q120 11 120 19v3q-45 0 -120 -17l-2 -2v-2zM336 885v-28l3 -3h2q7 0 9 21l-4 45h-3q-6 0 -7 -35zM84 906v-3h5v3h-5zM310 899l-2 -9v-33q0 -13 7 -16h3l2 6l-5 52h-5zM91 880v-2h17l4 4l-2 1h-16zM296 787v-9h7l1 7l-1 6h-4zM345 458v-26h5 l3 28l-1 12h-2q-5 -1 -5 -14zM345 414v-21h1l6 6v5q0 9 -6 10h-1zM325 211q-8 -22 -8 -70v-8l3 -4h2q10 0 10 72l-1 10h-6zM283 84v-14q0 -21 7 -21h2q8 0 12 35v5q0 19 -14 19q-5 0 -7 -24zM73 -27v-1l6 -6h22l46 6v5l-44 2q-30 0 -30 -6zM182 -35v-4h86l12 2v3l-51 7 q-29 -1 -47 -8zM49 -84v-9l7 -7h14l3 3v4q0 10 -14 19h-5q-5 -2 -5 -10zM154 -79q0 -5 23 -7v2l1 5h13v2l-4 3h-23q-10 -1 -10 -5z" />
<glyph unicode="^" horiz-adv-x="853" d="M296 590q-14 0 -83 9v2q4 3 4 6l-4 5v1l1 1l8 4q0 3 -14 5v1h1q8 5 8 6v2l-2 2v2q14 9 25 9q8 0 8 -3q7 0 28 53q5 2 13 33l11 23v2q-3 3 -3 5q9 11 24 34q6 24 10 28q6 0 14 25l30 39q14 8 22 8l12 -7q16 -1 16 -10h-1v-4q0 -4 2 -4q1 0 38 -70l17 -46q39 -63 44 -76 q17 -36 20 -40l23 -4q0 -9 10 -17q0 -3 -7 -13q0 -19 -28 -19q-61 0 -77 6q-14 0 -12 49h2q49 -9 4 66l2 6q0 5 -10 22q-15 35 -37 71q-11 27 -14 27h-2q-12 -3 -46 -74q-14 -14 -31 -71q-24 -47 9 -48q3 0 10 4h4l4 -4q-3 0 -4 -3q0 -5 6 -11l-6 -7v-7l-4 -3q0 -11 -45 -15 zM278 599q0 -3 6 -3h8q7 0 18 4v1h-22q-10 0 -10 -2zM248 615h8l1 2q0 2 -8 3h-4v-3zM463 594q26 -5 66 -5q10 0 10 2v1h-1l-1 1q-71 3 -71 6h-1l-3 -2v-3h1zM457 608q0 -4 2 -4t7 13v1l-1 1h-1q-7 0 -7 -8v-3zM232 636h2l7 1v2h-9l-1 -2zM476 609h4v1q0 1 -4 2l-3 -1z M542 615q0 -2 5 -2h4q9 1 9 3q0 1 -9 2l-9 -2v-1zM270 651q8 6 -2 2l1 -2h1zM508 663q8 -30 17 -30q4 3 4 9l-3 1v1l2 2v4l-1 1q-7 0 -8 2q-5 12 -9 13h-2v-3zM508 680v2h-2v-2h2zM498 678q4 -13 7 -13l1 1v2q-2 12 -6 12h-2v-2zM486 701q0 -6 6 -10h3v3q0 6 -7 11h-2v-4z M297 695q2 0 3 6v1q-3 0 -3 -7zM476 726q2 -14 9 -14v1q-2 7 -8 13h-1zM474 732h1v2l-2 2l-2 -1zM466 740q0 -5 2 -5l2 2v1q0 4 -3 4l-1 -1v-1zM339 755q5 1 13 23v1q-6 0 -14 -22v-2h1zM427 843q0 -6 15 -30q10 -28 17 -31h1l-1 8q-27 53 -30 53h-2zM442 783v1q0 3 -3 6 q-3 12 -21 37l-1 -1q0 -4 22 -43h3zM377 829q7 7 11 14l-2 1h-1q-9 -9 -9 -14v-1h1zM360 830q9 5 12 11l-1 1h-1q-11 -5 -11 -10v-2h1zM397 842q14 -2 16 -4h1v1q0 5 -7 15q-7 0 -10 -10v-2zM427 847q0 5 -2 5q-3 22 -16 22v-2l15 -25h3zM380 849q8 0 14 9l-1 2 q-7 0 -15 -10zM374 859l3 2v2h-2l-2 -3v-1h1z" />
<glyph unicode="_" horiz-adv-x="497" d="M459 128q8 -1 3 -110h2q-2 -15 -144 -8q-161 -14 -207 -9v4q2 12 120 12q51 6 52 12v1l-14 2q-164 8 -168 -26l-11 -4q-47 6 -36 103q3 26 112 25q1 3 15 2l27 -8l12 -2l230 7zM413 109l-1 -4l12 -1l9 1l1 3l-13 1h-8zM350 100l17 -2q14 -1 17 5v2l-4 1q-29 0 -30 -6z M275 97v-4h2q13 -2 16 5v2l-6 1q-11 0 -12 -4zM362 71l30 -4q45 -3 50 7v3l-6 3q-73 -2 -74 -9zM208 92l-1 -5h2q29 -4 47 7v1l-4 1q-15 2 -44 -4zM79 102l-2 -17l3 -4h2q4 -1 9 16v6l-3 3l-3 1zM121 97l-1 -1l7 -1l4 3l1 3l-6 1zM333 72l-1 -3l7 -1l-3 4h-3zM314 31l1 -1 q124 -9 125 -2v2q0 4 -7 9l-2 1q-45 5 -117 -8v-1zM74 66v-4h4l3 3l1 3l-4 1z" />
<glyph unicode="`" horiz-adv-x="296" d="M145 677l1 -3l3 -2l3 -4q-85 33 -122 111q21 15 55 25q39 -20 57.5 -40t72.5 -52q4 0 9 -11q0 2 -1 4l75 -67l-75 -27l-16 12l-65 47l-2 4q-2 10 24 -10l9 9l-1 2l-14 2h-13zM120 750l-23 -15q20 5 21 0q8 7 21 14l1 1v2l-5 2l-15 1l-7 1v1l9 8l-1 3h-3q-24 1 2 -18z M147 717l1 -1l3 -1q15 -1 12 9l-6 3h-5q-8 -1 -5 -10zM166 665l1 -5l5 -3l4 4l-1 2l-6 5zM196 648l-4 -10h3l7 7l-2 3h-4zM159 732l1 -3l5 -1q2 1 2 7l-4 1zM152 668l6 -10l6 6q-5 2 -12 4zM178 694v-3h4l3 2v4h-4z" />
<glyph unicode="a" horiz-adv-x="742" d="M363 757q24 0 93 -20q81 -77 95 -119q29 -30 49 -127q22 -21 22 -99l2 -33l-5 -138q0 -40 51 -104q46 -45 61 -45v-2q0 -17 -49 -54q-36 -35 -46 -35h-1q-21 1 -112 82q-81 -30 -165 -66q-55 -16 -122 -16h-7q-76 13 -128 58q-9 9 -40 70q-25 30 -25 75v40q0 38 21 72 q19 55 63 108q22 27 44 34q73 38 143 38l63 2h7q55 0 76 -16h8q6 0 6 7q-14 63 -49 125q-30 51 -114 51l-56 7q-74 -14 -74 -30q-28 -36 -35 -93q-3 -7 -50 -7l-9 -2q-5 0 -14 -24q-39 6 -39 16q5 12 11 101q22 63 105 117q40 23 47 23zM342 725l6 -5h7l3 3l-5 6h-7z M449 718v-3q10 -11 19 -11h2v4q-10 10 -19 10h-2zM229 711v-3q1 -6 14 -6t35 9v5h-6q-29 0 -43 -5zM104 664h2q12 0 37 26v5h-2q-13 0 -37 -29v-2zM290 671l5 -7h18l3 3v2l-7 7h-12zM89 561v-21h1q6 1 6 10v11l-4 3zM596 453v-3q1 -11 5 -11l2 7q-3 7 -5 7h-2zM561 401v-4 q6 -21 12 -21h2q0 18 -9 28h-1zM143 389v-6h3q10 0 14 9v4h-1zM143 264q9 -84 23 -84l14 -17v-2l-13 2v-4q29 -35 109 -68q11 -5 28 -7q28 0 192 81q11 6 11 16v7q-12 56 -21 133l-2 1q0 15 -31 25q-102 29 -140 29q-104 -24 -146 -70q-24 -26 -24 -42zM558 357v-5h3v2z M559 327v-5l4 -3l3 3v5h-7zM519 289l4 -5l5 1v4l-4 3h-1zM568 289v-2q2 -52 11 -52l3 3v2q0 28 -9 49h-5zM516 242v-7l5 -6h2l5 6v7l-4 3h-5zM633 114v-9q5 -17 12 -17h4v3q-6 23 -13 23h-3zM122 107v-2l3 -3h7v3l-5 5h-2zM589 88q4 -10 11 -13h1l6 6v3l-7 7h-7zM391 72v-2 h7q20 0 51 16v2h-5q-48 -7 -53 -16zM621 63v-3l5 -6h7l3 4v2l-7 7h-5zM276 53q3 -7 12 -7q14 1 14 7v1l-3 4h-18zM125 33v-1q7 -14 70 -32q23 -10 55 -10v1q0 6 -53 16q-34 12 -63 30h-5z" />
<glyph unicode="b" horiz-adv-x="685" d="M41 1006l2 -2v-2l-4 -3q2 -6 11 -6h2l3 4l-5 7l2 2h56q47 0 47 -30l5 -5h4l3 3v2l-3 12l1 2h2q35 0 35 -75q0 -172 21 -249h4l87 5q158 -10 158 -28q4 0 54 -43q78 -64 101 -130q25 -26 25 -152l2 -42q-41 -85 -41 -102q0 -52 -112 -133q-14 -32 -168 -36q-70 12 -96 12 h-31q-23 0 -23 -18l-30 -38q-21 -7 -38 -7q-16 0 -67 26v5q9 13 9 23v5l-5 25l3 19v26l-5 27q16 89 16 122l5 14l-2 18l11 99v6q0 29 -18 225v2l-2 2l2 9v5q7 97 7 157l-2 104l-1 7h-2q-53 -28 -77 -28q-16 0 -21 75q0 5 9 17v4h-2l-5 -2l-2 2q0 52 12 52q17 6 63 6z M164 1004v-4l-7 -1l-2 1v2l2 2h7zM76 983v-2h4v2h-4zM102 978v-2h11v7h-5zM-22 978v-2q0 -5 30 -11q28 1 28 7v2q-16 4 -42 4h-16zM118 953v-23l4 -3q12 8 12 23q0 9 -5 10h-4zM73 934l5 -5h14l7 7v7l-5 5h-2q-19 0 -19 -14zM-1 946l-2 -9v-12q0 -5 14 -7q21 0 23 12 q-19 16 -33 16h-2zM41 941v-2l5 -5h11v3l-4 4h-12zM120 829q4 -30 10 -30h2v2q-2 33 -9 33q-3 0 -3 -5zM389 643v-3q3 -7 16 -7h2v3l-7 7h-11zM288 628l3 -4h9l12 4v7l-7 1q-13 0 -17 -8zM225 587v-5h2q35 7 35 12v4h-2q-14 0 -35 -11zM438 593q0 -14 39 -25q29 -37 40 -37 v2q-7 29 -24 40q-37 20 -49 20h-6zM185 316q0 -41 3 -63l-2 -35v-63q0 -18 65 -37q18 -5 53 -5q72 0 173 44q34 28 75 112l9 33q0 70 -44 149q-9 44 -44 77l-63 45q-98 0 -201 -43q-12 0 -16 -97q-8 -48 -8 -117zM612 461v-5q0 -10 10 -10h2v1q0 10 -9 14h-3zM564 425v-4 l4 -3h3v3l-3 4h-4zM577 134v-2q20 0 28 63h-9q-5 0 -16 -52q-3 0 -3 -9zM543 157v-2l4 -3q16 7 16 17l-4 4h-5q-11 -7 -11 -16zM445 124v-4l4 -3h2q19 2 19 8l-5 6h-7q-10 0 -13 -7zM197 125v-1q2 -6 10 -6v2q-1 5 -10 5zM143 120v-9l3 -3h2l3 3v2q0 9 -5 11zM487 85v-5 q45 13 49 21v3q-12 0 -49 -19zM62 87v-4l4 -3h3v3l-3 4h-4zM417 75v-4h13l5 5v2h-14zM319 54l2 -2h14q32 2 37 10v4h-5q-34 0 -48 -12zM195 59v-4q0 -5 23 -7h3v4q0 5 -17 7h-9zM129 34l5 -1q12 4 12 12h-7q-10 0 -10 -11zM95 34v-5l6 -5h7v5l-7 7zM431 22v-3h4v3h-4z" />
<glyph unicode="c" horiz-adv-x="840" d="M440 771q16 -13 56 -20q28 0 116 -64l19 -6h7l25 -12q37 -28 42 -42v-2q0 -8 -16 -21q-4 -22 -58 -91v-5l2 -14q-19 -2 -40 -10q-9 0 -16 19q-39 24 -39 40l16 44q0 27 -91 38l-91 6q-47 0 -128 -37q-45 -24 -70 -98q-21 -68 -33 -79l-14 11q-10 -12 -10 -32h1l18 9 q4 0 5 -9l-9 -63q6 -3 27 -83l-5 -9v-5q7 -7 11 -46q12 -41 80 -75l74 -54q122 0 217 54q94 81 94 108l-5 21v2q1 6 61 67q4 0 23 -21v-4l-7 -2l-11 2h-1v-5q52 -5 52 -28q23 -31 47 -89q7 0 13 -32q18 -8 21 -16q0 -12 -18 -14q-33 -12 -59 -45q-48 49 -51 49l-77 -49 q-38 -20 -70 -46l-144 -47l-22 -2q-46 0 -132 27q-94 40 -103 63q-117 139 -117 217l-4 47q12 49 12 120l37 89q0 39 52 100q29 64 152 119q50 16 161 23v2zM208 687l71 28l46 21q26 5 26 10v2q-60 0 -142 -54l-1 -2v-5zM472 739l-2 -2v-3l4 -4h7v7zM341 695v-7l17 -3 q80 0 91 14q0 4 -23 5q-66 -3 -85 -9zM461 695v-3q0 -8 28 -9l4 4q0 8 -16 8h-16zM505 683v-3l5 -6h4v4l-5 5h-4zM288 667v-5h5q32 6 32 14l-4 4h-3q-30 -9 -30 -13zM181 673v-4h4l7 7v2h-5zM365 653l14 -3h2q45 2 47 10v4h-16q-47 0 -47 -11zM456 662v-2q0 -5 37 -8v3 l-25 7h-12zM579 645v-6h3l4 4v2h-7zM237 634v-2h6l5 6l-4 3zM654 611v-1l9 -2h1l7 7v7l-3 3q-14 0 -14 -14zM167 597h4q19 12 19 23q-15 0 -23 -23zM124 543v-2l3 -3h2q16 12 16 23v3h-4q-17 -10 -17 -21zM127 513l-24 -43v-7l5 -6h3q8 0 21 46v10h-5zM75 332v-5 q0 -14 13 -16q8 0 2 45l-1 7h-4q-5 0 -10 -31zM117 307q-7 -7 -7 -22q0 -8 13 -28q7 -23 21 -23v3q0 22 -25 70h-2zM721 243v-6q0 -16 53 -106l8 -2l4 5q-21 36 -40 86l-20 23h-5zM693 215v-2q10 -30 18 -30l3 4v5q-7 23 -21 23zM112 197v-7q8 -14 18 -14q0 10 -14 21h-4z M604 145h3q8 3 18 19v3q-14 0 -21 -22zM144 166v-7q5 -13 15 -13h2v6q-7 14 -17 14zM119 131v-2q0 -21 44 -44h12v2q0 16 -49 44h-7zM728 101v-7l4 -4h8q5 0 21 20v1q0 4 -24 11q-9 0 -9 -21zM520 76l2 -1h1q35 14 35 29h-1q-39 -18 -39 -28h2zM170 64q12 -20 100 -63l29 -9 h2v6q-88 37 -108 64q-8 7 -14 7h-6q-3 0 -3 -5zM217 69v-1q0 -11 51 -28l68 -21h14l5 5v3h-1q-29 0 -51 20l-23 8h-2l-8 -7h-2q-10 0 -46 21h-5zM499 24h2q29 9 49 28v2h-2q-13 0 -49 -30zM460 45v-2h2q13 0 16 7v2q-18 -2 -18 -7zM383 -16v-2q0 -8 28 -9v5l-1 2l5 5l-5 6 h-9q-18 -2 -18 -7z" />
<glyph unicode="d" horiz-adv-x="721" d="M616 1049q58 -11 58 -17q3 0 5 -41q16 -16 16 -24q-7 -66 -13 -271q-3 0 -3 -13q-11 -8 -11 -17v-21q0 -26 -14 -65l-1 -19q0 -7 14 -9l1 -10q-21 -176 -21 -230q0 -63 -8 -63v-3q7 0 10 -19l-2 -9v-5q0 -25 -17 -128v-33q70 -13 70 -39l-7 -7v-14l7 -9v-1 q-11 -30 -79 -30h-9l-7 12h-15l-37 -9l-53 2q-5 0 -12 70l2 46q-17 0 -56 -32q-117 -62 -203 -68q-80 20 -145 79q-22 24 -44 66q-25 35 -25 42l2 5h4q13 -11 36 -47l6 -2l1 2v18q0 28 -28 66h-8q-7 0 -9 -24h-5l-2 7q2 54 5 70h7l2 -13h3q7 3 7 16v26l-3 4q-4 0 -5 -12 l-7 -9q-3 0 -6 10q0 103 69 223q33 58 64 89q44 40 140 40h13q147 0 241 -77l9 -5h5q12 60 25 311q4 9 10 9v2q-43 28 -61 28q-13 0 -16 96q3 3 23 5v4q-1 7 -12 7q-6 4 -6 10q0 14 32 14v4l-5 7v2l7 1zM555 984v-1h17v1l-3 4h-11zM632 970v-1h21v3l-9 2h-9zM591 948l4 -4 q33 2 33 7l-5 5h-18q-9 0 -14 -8zM553 949v-3l9 -2q9 0 10 5l-3 4h-13zM243 587v-7l4 -3h7l7 7v3l-6 5h-7zM329 577l3 -4h60v4q-4 8 -44 10h-14q-5 -2 -5 -10zM661 587h6v-7h-6v7zM152 550v-5l4 -3h5q49 13 49 31q-1 5 -14 5h-7q-20 0 -37 -28zM432 563h-3v-4q35 -14 43 -14 h2q0 14 -23 19zM581 557q0 -13 5 -14l2 2v4l-2 8h-5zM290 529l2 -1h7l4 3v2h-9zM91 435v-4h5q6 1 18 32q42 58 56 58l5 10h-9q-6 0 -45 -28q-26 -41 -30 -68zM245 519v-2h14l3 4v1h-14zM320 515l2 -1h3l30 3v4l-9 1q-26 -1 -26 -7zM390 519l5 -5h7l4 3q-2 5 -11 5h-1z M451 521l6 -6l3 4l-2 2h-7zM472 512q0 -6 41 -16h1v4q-10 12 -26 12h-16zM100 241v-20q0 -21 52 -112q41 -21 84 -21q98 0 186 46q38 56 66 56q15 16 33 105q11 22 11 51v14q0 59 -16 59q-31 29 -31 33l5 9q0 8 -40 16l-9 7l2 2h21v1q0 14 -151 16l-21 4q-110 -10 -110 -30 q-52 -60 -67 -149q-15 -51 -15 -87zM500 456v-11l7 -7h4q5 2 5 11t-7 12h-3zM77 311q0 -4 5 -4q9 0 14 28v7h-5q-7 0 -14 -31zM520 101v-7q8 0 8 -13h2l7 7v11q-5 4 -5 14h-5q-7 -3 -7 -12zM415 90v-5h1q14 5 23 17v4l-3 3h-2q-10 -5 -19 -19zM276 73v-4h18q91 5 101 26v4 h-5q-105 -18 -114 -26zM593 92l-2 -9v-19l4 -4h2l3 4v14q0 13 -5 14h-2zM98 80v-4q0 -7 44 -12v5q-31 12 -39 12zM131 55q0 -15 82 -30h7l2 2v2q0 13 -80 30h-7zM521 48v-3h4l5 5v3h-3zM311 41v-2l4 -3h9q43 2 43 9l-3 3h-26q-27 0 -27 -7zM597 43v-4l3 -3h7v3l-3 4h-7z M217 1v-4l3 -3h18q20 0 65 9v3l-41 4q-45 -2 -45 -9zM626 -1q1 -5 14 -5h28l9 2v3q0 5 -16 7q-35 -2 -35 -7z" />
<glyph unicode="e" horiz-adv-x="719" d="M356 697q58 0 142 -49q71 -53 71 -73q55 -120 55 -140l1 -11q-21 -48 -21 -66l-8 -2h-119q-17 0 -39 -5q-201 16 -280 16h-30q-17 -25 -17 -34q10 -18 10 -49q0 -54 16 -63l2 -7v-1l-9 3v-3l14 -14q0 -20 25 -46q45 -81 99 -100q43 -15 105 -15q9 0 39 17q27 8 105 91v4 q0 3 -18 5l-3 7q32 62 77 80q5 -6 51 -38q31 -49 82 -112v-5q-45 -58 -65 -58h-5q0 31 -37 35q-8 0 -61 -46q-29 -23 -110 -47q-93 -19 -128 -19l-79 28q-66 0 -122 72q-24 24 -39 61q0 9 -31 115q-9 45 -9 77v2q0 187 110 324q16 34 65 51q29 8 80 15q12 5 81 0zM228 666h2 q26 0 84 17q12 1 12 6l-3 3h-2q-39 0 -91 -21l-2 -2v-3zM172 645v-2l4 -3h1q28 7 28 14v8l-5 6h-3q-25 -8 -25 -23zM345 659v-4q0 -5 56 -8l2 1v4q0 5 -17 7h-41zM288 638v-2q0 -5 57 -14l2 2v5q-11 16 -37 16h-5q-17 -2 -17 -7zM372 629v-2q79 -45 85 -45h2l14 5l7 -2l2 2 v2q-7 5 -23 9l-28 12q-10 24 -45 24h-4q-10 -1 -10 -5zM207 589q13 11 56 24v2l-2 2h-14q-40 -8 -40 -28zM134 498v-4q0 -18 252 -35l14 -5l17 2q59 -19 75 -19q0 -4 9 -6q9 11 9 23v26q0 19 -70 81q-30 31 -72 37l-47 7q-115 -22 -151 -56q-14 -26 -36 -51zM149 580v-3h2 q19 5 19 10v2h-7q-9 0 -14 -9zM480 561q4 -11 14 -11h2l3 4v9l-7 7q-12 0 -12 -9zM120 550v-1h3l4 3v2h-4zM510 542q14 -44 23 -49h5l3 3q-11 44 -24 44l-2 2h-5zM135 519v-2q7 3 7 12v2q-7 -3 -7 -12zM559 477v-9l3 -5q7 2 7 10v4l-3 3h-4zM120 461v-5l3 -4h2q10 6 16 16v4 h-6q-10 0 -15 -11zM62 470q-11 -10 -18 -56h2q8 0 25 49q-2 7 -9 7zM204 452v-3q27 -18 96 -18h12l18 2v5q-64 13 -126 14zM454 416v-4h5v4h-5zM190 405v-3q33 -7 147 -13l1 -1v-2l-29 -4q0 -5 36 -5q58 0 58 7q0 14 -213 21zM44 396l-1 -8q1 -9 5 -9q5 0 7 14l-5 3h-6z M156 391v-7h7v5l-1 2v2zM118 382v-1h2l24 3v2l-5 5h-4q-13 0 -17 -9zM456 379q0 -5 24 -5l14 1v2q0 7 -28 7q-10 -2 -10 -5zM44 344l-1 -2v-3l1 -2q-3 -7 -3 -19v-6q0 -23 14 -45h3q0 68 -14 77zM64 223v-3l3 -4h4v4l-4 3h-3zM78 199l-2 -2v-2q8 -23 16 -23l1 2v2 q0 11 -15 23zM531 186l3 -3h6q9 0 10 5l-5 5h-2q-9 0 -12 -7zM499 106l2 -2h2q14 0 19 19v2q-15 0 -23 -19zM596 109l1 -1h4q9 4 9 14v1h-4q-10 -7 -10 -14zM645 123l-2 -1v-2q5 -18 12 -18h2l3 4v2q-3 15 -15 15zM564 94l4 -4q21 7 21 19v2h-2q-20 0 -23 -17zM456 62h3 q8 4 12 14l-1 2q-14 -8 -14 -16zM538 55h5q14 13 14 19h-2q-17 -6 -17 -19zM139 43v-5q1 -8 24 -16l6 -5v1q-17 22 -25 25h-5zM239 38v-2q0 -6 29 -12l2 1v2q-20 11 -30 11h-1zM317 22v-4h6v4h-6zM466 1q14 0 23 21h-4q-19 -11 -19 -21zM370 -13l-30 3h-5q-13 0 -14 -5v-2 l5 -5h25q46 0 101 14v2q-2 7 -16 7h-7q-32 0 -59 -14z" />
<glyph unicode="f" horiz-adv-x="563" d="M387 941l7 2q34 -2 131 -35q9 -9 18 -9l8 3l65 -84q23 -33 23 -49q14 -43 14 -80t-51 -37q-14 0 -44 12h-1q-5 0 -9 -15h-4q-7 0 -21 54q-39 112 -45 114q-19 12 -81 12h-3l-107 -26q-38 -27 -38 -35q0 -189 14 -189q33 -21 122 -21q16 -5 16 -14q26 -23 26 -48 q0 -59 -84 -59h-3q-21 0 -46 16l-9 1q-28 -3 -28 -8v-188q0 -44 7 -87l-3 -40v-39q0 -8 82 -21q73 0 88 -14l5 -5q-8 0 -18 -79q-38 5 -57 7l-18 -2q-101 13 -156 13l-113 -2q-6 6 -6 21v30q0 42 -5 61q0 10 23 10q14 0 54 -12h21q14 0 18 9v2q-13 30 -13 101q-7 34 -7 56v4 q0 39 18 175q0 5 -25 7h-5q-60 -18 -100 -18l-21 4q6 129 18 129q2 5 10 5h7q107 2 107 7q0 88 -1.5 125t-1.5 57v6l-7 24v2q17 32 38 54l65 67q59 26 126 26zM280 888v-1q53 0 77 22v4h-3q-40 0 -74 -25zM490 890q22 -28 44 -28v11q-18 22 -39 22h-1q-4 0 -4 -5zM389 885 v-2q1 -5 10 -5h19l4 3q0 6 -21 6zM369 846v-1h4l3 3v2h-3zM523 780v-2q0 -17 13 -33h5l2 9q-3 26 -18 26h-2zM553 694l4 -3h5l2 8v16h-2q-9 -7 -9 -21zM49 549v-5l4 -4h7q8 4 12 12l-5 6h-4q-10 0 -14 -9zM110 537v-2q0 -10 9 -14q9 0 25 12q0 5 -25 9h-3zM280 526v-3 q6 -11 21 -11h9v4q-8 10 -23 10h-7zM352 510v-3h5v3h-5zM214 509v-11l3 -3l2 1v9l-4 4h-1zM121 496l-4 -5v-2l9 -1h4l3 3q0 4 -12 5zM355 474l6 -2q40 7 40 16v3h-9q-37 -3 -37 -17zM63 481q-9 -14 -9 -21v-6l4 -3h14l3 3q0 16 -12 27zM151 470v-2h17l4 4v2h-18zM207 433 l-4 -40l2 -23h3l2 21v42h-3zM222 395v-5h4v5h-4zM219 370l-2 -8v-4h2l5 5v7h-5zM215 348l-1 -2v-2l1 -9h6v11zM200 321l5 -15l-2 -18q4 -44 11 -44h1q8 0 9 49v7q0 27 -16 27h-5q-3 0 -3 -6zM208 176v-5l4 -4h3l-1 9h-6zM208 139q-3 -15 -3 -42v-1h7l5 5v19q-3 19 -7 19h-2z M110 90v-5q0 -5 23 -7l14 2v3q-22 7 -33 7h-4zM362 47v-2l13 -2q28 2 28 7l-2 2h-25q-13 0 -14 -5zM105 29v-2q0 -8 58 -12l2 2v2q-19 14 -48 14h-8zM182 33v-4q13 -14 23 -14h10v2q-18 16 -33 16zM387 15v-3l10 -11h4l3 4v10l-5 5h-7zM235 19v-4q0 -6 26 -9h23l3 4 q0 7 -31 9h-21z" />
<glyph unicode="g" horiz-adv-x="809" d="M307 726h46q33 0 108 -28q27 0 88 -36h7q15 0 66 56q12 0 42 -39q15 -7 32 -26v-4q-79 -86 -79 -96q-37 -125 -49 -140q-24 -28 -75 -49q-61 -61 -109 -61l-43 -2l-90 9h-17q-10 0 -30 -91l11 -4h5q20 0 47 18l33 2h56q133 0 219 -25q9 -8 61 -31l48 -34q54 -46 68 -85 q51 -99 51 -165q0 -51 -81 -129l-84 -60q-67 -42 -159 -42l-39 -5q-247 0 -334 100q-65 40 -65 101q-24 42 -24 116l-4 31l4 18h5q5 -32 12 -32h4q17 81 31 117l-1 2h-2q-40 -64 -40 -75h-2q-5 0 -7 16q4 27 52 96q53 51 53 58q14 117 21 143q-35 68 -35 114l-2 23 q0 23 18 87q13 13 59 75q73 77 124 77zM255 691v-1q49 13 49 21v1h-4q-20 0 -45 -21zM622 683v-2q2 -5 11 -5h7v3l-9 7h-5zM290 663v-5h2l43 14v7h-12q-33 -7 -33 -16zM208 520v-7q21 -105 31 -105q33 -32 56 -32q105 0 151 48q34 30 50 66q11 19 11 30v21q0 24 -33 68 q-75 32 -104 32q-68 0 -126 -56q-36 -45 -36 -65zM615 602v-7h4q27 21 40 42v4h-2q-14 0 -42 -39zM222 606l5 -2q9 0 23 19v4h-9q-19 -11 -19 -21zM521 618v-2q9 -26 24 -26q4 0 4 5q0 8 -21 23h-7zM138 544v-1h3q7 4 23 28l-4 3q-9 0 -22 -30zM120 501q0 -29 14 -46h5 q4 0 4 5q-5 58 -14 58q-6 0 -9 -17zM484 425v-1h7q27 0 33 57v7l-1 2h-4q-35 -55 -35 -65zM187 481v-1q0 -24 15 -42h2v5q-2 36 -14 42zM551 431l-4 -7v-2h4q3 0 5 9h-5zM456 394h4q17 7 26 19l-4 4q-24 -16 -26 -23zM398 376v-3l7 -7h6q8 0 28 21v3h-13q-16 0 -28 -14z M139 383v-5q15 -23 41 -31v3q-13 33 -35 33h-6zM446 376v-5h3l11 9v2h-9zM197 369v-1q7 -14 18 -14q4 1 8 8q0 7 -22 11zM362 361q0 -4 24 -6l12 2q0 6 -19 9h-12zM232 355l-2 -1v-11l6 -5h24v5q-23 12 -28 12zM274 336q0 -12 46 -12h40q9 0 10 5q-26 11 -78 11h-13z M171 317v-9q0 -13 12 -16l4 6v22l-4 4h-5zM363 208v-3q0 -11 142 -16l30 -10h2q5 0 12 5l40 -2v4q-7 12 -31 12h-14q-6 0 -13 -5h-1l-32 15q-34 4 -91 4h-14zM283 208v-1h5v1h-5zM211 168q0 -3 44 -5q19 1 19 5q-6 11 -16 16h-17q-30 -5 -30 -16zM447 163v-2q0 -5 34 -7l1 2 v3l-33 4h-2zM577 158l5 -4l5 2v7h-5zM150 145l7 -5h9l7 7v9l-6 5q-13 0 -17 -16zM94 119v-3l3 -4q34 9 34 23v10l-4 4q-15 -6 -33 -30zM600 142q0 -8 33 -16l5 2v2q-12 14 -30 14h-5l-2 -2h-1zM244 135l4 -4h9l1 6l-5 3h-3zM439 131q0 -6 70 -10q56 -17 99 -46l18 -1l7 5v2 q-12 20 -89 43q-78 13 -98 13zM355 119l1 -2v-3l-22 -4l-30 4l-103 -2q-63 -58 -63 -82l-9 -9v-2q11 -143 28 -173q2 -7 51 -42q0 -11 82 -33q126 -19 203 -19q104 19 142 59q68 71 68 114v7q0 26 -54 93q-8 18 -42 38q-59 40 -123 49l-87 2l1 9l-1 1h-16q-18 0 -26 -5z M645 116v-2l54 -49h2v2q-17 39 -47 49h-9zM138 88v-4h3l18 5v6h-4q-17 -3 -17 -7zM118 74v-6h4l9 9v5q-9 0 -13 -8zM80 39l2 -6h3q6 0 16 41h-2q-19 -15 -19 -35zM638 68q0 -7 40 -56v-1h2v5q-18 52 -38 52h-4zM762 -35v-3l4 -4l2 2h1l-1 5h-6zM729 -44v-3l5 -5h2l5 5l-5 3 h-7zM31 -59v-9l5 -5l2 1v16h-4zM759 -84v-2q0 -12 5 -14h2q12 20 12 41l-2 1h-3q-14 -9 -14 -26zM110 -65l-2 -28q1 -29 7 -29h2q5 1 5 10v18q0 33 -7 33h-2zM38 -82v-4q1 -10 5 -10l4 3v4l-7 7h-2zM671 -178v-2l4 -4q35 12 35 37v9h-4q-35 -27 -35 -40zM94 -177 q3 -10 7 -10l7 7q-1 5 -9 9zM153 -198v-3l6 -5h7v3q-2 5 -11 5h-2zM132 -212v-3h13v7h-9zM488 -273q-167 11 -193 21l-37 2v-2q17 -14 46 -19l42 2l10 -7l2 1h2q33 -8 79 -8h31q60 0 84 17q58 20 58 23v2q-80 -18 -124 -32zM551 -318h5q10 0 68 33v2h-5q-68 -15 -68 -35z M512 -313v-2h5q27 4 27 16h-6q-21 -5 -26 -14zM300 -301l-1 -2v-1l5 -4h3v2zM323 -311v-2q1 -5 14 -5h16q0 7 -26 7h-4zM437 -315v-3q2 -6 10 -6h9l18 4v5l-25 4h-9z" />
<glyph unicode="h" horiz-adv-x="740" d="M78 1019q177 -7 177 -33l10 -203q0 -26 -30 -142q-7 -38 -7 -57v-9h4q94 72 213 72q35 0 128 -39q17 -17 46 -58q10 -8 12 -17l-2 -14q39 -33 39 -110q5 0 7 -137v-2q0 -21 -23 -154l-4 -26h28q46 -3 46 -12q0 -6 -44 -9v-2q0 -4 32 -12l5 -7v-3q-26 -5 -26 -7 q26 -6 26 -18q0 -66 -37 -66l-12 -2q-54 0 -54 16q0 4 -56 7q-18 11 -41 19l-1 5q0 57 19 177q5 68 24 145l-3 49l5 6q-19 14 -19 40q-9 20 -28 47q-47 21 -58 21q-69 23 -139 -6q-90 -62 -90 -90l-9 -91l4 -93q-9 -103 -21 -103l-2 -6l5 -3h7l23 10q33 -5 33 -21l-9 -8v-7 q1 -4 18 -9l2 -7q-7 -72 -21 -72h-4q-21 13 -149 19q-92 8 -92 28v23q-2 5 8 19v9q-17 24 -17 28q7 5 68 7q9 0 14 54q11 8 16 44q9 11 9 23v2q0 21 -16 43l16 34q7 0 10 304l19 205v61q0 30 -19 30l-45 2l-30 -9q-8 0 -9 37v15q0 60 16 60zM80 998v-5q17 -12 47 -12l3 5 q-27 12 -49 12h-1zM207 984q4 -8 13 -12h1q10 0 13 7v4l-7 7h-14zM59 979v-10h1l4 3v4l-4 3h-1zM92 970v-3l3 -4h18v4l-16 3h-5zM101 946v-2q1 -5 10 -5h11l8 2v5l-8 2h-13zM179 853v-10l4 -4l5 5v7l-5 6zM178 811v-3l5 -6l5 2v5l-5 6h-2zM169 774q-5 -9 -5 -50q17 0 17 -25 h2q3 8 3 28v19h-1l-6 -15h-5l-2 8q2 11 6 11l8 -2q-1 7 -17 26zM458 633v-2q0 -5 17 -9v2q0 5 -16 9h-1zM533 601v-3q5 -11 19 -11v4q-6 10 -19 10zM382 557v-3l4 -4h10v2l-5 5h-9zM267 519h5q15 8 16 14h-4q-13 -7 -17 -14zM419 529v-7q28 -14 39 -14l5 6q0 9 -35 17z M400 512h5v3h-2zM556 515v-5q31 -33 40 -63q7 -9 12 -9v11q0 27 -40 65l-7 1h-5zM508 496v-2q0 -14 13 -14v2q-2 14 -13 14zM323 487v-3h3l6 5v4h-4zM634 475v-2l7 -7h4l3 4l-8 9h-2zM199 442v-9h3q14 0 19 25l2 1v6h-2q-12 -6 -22 -23zM590 470v-3l-12 -30l2 1h2q-4 8 -7 9 zM214 417l4 -3h9q9 0 10 5l-3 4h-6q-13 0 -14 -6zM643 297l4 -4h3v4l-3 3zM622 153h4q10 0 26 105q0 14 -9 18h-5q-10 0 -16 -123zM97 115q0 -9 47 -14h2l4 3v11q-2 5 -11 5h-28q-13 0 -14 -5zM566 92v-5h12l4 3v7l-4 4q-8 0 -12 -9zM228 85v-4h6v4h-6zM32 73v-4l9 -2h49v2 q0 10 -42 11q-13 0 -16 -7zM220 66v-6l7 -7h8l6 6v1l-9 9h-9zM540 45l14 -2l44 2l1 1v2q-14 9 -45 9q-13 0 -16 -12h2zM48 27v-2h2q15 0 68 -17q84 -4 121 -11h3l6 6v1q0 14 -133 14q-21 14 -55 14q-12 -1 -12 -5zM536 25v-1l4 -4h3l2 5l-5 4zM529 10v-4q4 -9 18 -9h14v4 q0 5 -16 9h-16z" />
<glyph unicode="i" horiz-adv-x="426" d="M257 987q48 0 77 -49l9 -46q-2 -23 -30 -68q-19 -18 -56 -18q-87 0 -108.5 27t-19.5 77q-5 0 -5 3v2q41 65 86 65q11 4 47 7zM182 946v-1q47 6 47 12l-7 3q-40 -6 -40 -14zM208 906l7 -2h2q17 0 21 11l-2 2h-16q-12 0 -14 -11h2zM301 911v-5h2l5 5v6h-2zM273 873v-5h5 q10 0 16 10v5h-4q-9 0 -17 -10zM238 843v-3h24l4 3l-4 4h-21zM70 715q12 -9 28 -9l17 8q189 0 189 -11l2 -9v-24q11 -26 11 -54v-21q-14 -193 -21 -368q-5 -8 -6 -28q3 -7 13 -7h5q75 0 75 -17l-2 -2v-9q16 -33 16 -105l5 -56l-3 -3l-61 -2h-139q-157 0 -157 24q0 15 -7 30 q4 11 14 16h3q7 -5 13 -5h3q46 0 96 7v3q-119 7 -119 18l-1 12v16l-4 35q0 15 105 15q14 0 14 62l16 365h-2q-52 0 -36 10q-83 0 -83 19q-5 2 -5 11l7 17q0 5 -9 14v2q12 8 16 44l2 2h5zM88 687v-4h7q36 0 36 5l-3 4h-4q-36 0 -36 -5zM273 694l5 -5h2v5l-4 4zM93 667v-3 q0 -5 19 -5h16h5h44q22 0 22 6v1q0 9 -82 3zM229 668v-3q8 0 23 -14h3q4 0 4 5h2q4 -1 8 -14h2l19 16v7l-29 1h-20zM236 589l7 -22l-9 -23q6 -14 9 -14h2l2 9v8q0 51 15 51l4 5v6l-4 3h-8q-18 0 -18 -23zM189 278q2 -11 5 -11q4 0 5 13l-1 21q6 7 15 56v8l-3 20q9 5 9 10 q-6 16 -6 30v2q6 0 13 157q-4 11 -7 11h-2q-19 0 -23 -137zM255 577v-7q0 -9 7 -12h4l5 5v7q-3 6 -10 9zM248 353q-12 -48 -12 -77h2q7 0 17 58v10l-1 9h-6zM227 222v-9h4q7 2 7 16v10h-4q-5 0 -7 -17zM226 196v-7h5l5 5v3l-3 4h-2zM338 166q8 -5 29 -7v3q0 5 -17 7h-9z M331 106q2 -17 24 -17h5v3l-3 6q0 2 12 7v7q0 9 -7 12h-5q-4 -1 -9 -14zM73 120v-1q10 -11 86 -13h9q13 0 14 6v3q-52 7 -100 7zM212 105l5 -6h2q12 0 12 13h-7q-10 0 -12 -7zM339 73v-3h2l5 5v2h-3zM219 68h-20v-5l20 -2l40 3v4h-7l-16 2zM373 17v-3h7l3 3v2l-3 3h-2z" />
<glyph unicode="j" horiz-adv-x="351" d="M177 898q49 0 81 -26q19 -32 22 -63q-12 -105 -50 -105q0 -3 -16 -4q-84 5 -84 16v2l-19 52l-2 14q0 75 19 86q21 28 49 28zM137 786l7 -7q17 23 28 63v7h-5q-15 0 -30 -61v-2zM221 819v-5l5 -5q7 2 7 10l-5 4h-4zM207 783v-4l3 -3h13q8 3 8 12v3l-5 6q-11 0 -19 -14z M168 779v-3l4 -4l5 5v6h-5zM193 725v-2h7q17 0 26 14v4q-15 0 -33 -16zM216 716h3q18 4 18 9v2h-2q-19 -3 -19 -11zM102 581h5l25 -7h43q22 0 44 -15q14 0 14 -6q-5 -6 -5 -12v-3l5 -6l14 4h2q26 -13 33 -131q11 -36 21 -233q6 -250 12 -250q0 -8 -12 -32q-7 -22 -7 -44v-1 q-30 -73 -80 -118l-67 -40q-28 -9 -38 -9q-128 0 -235 86l-17 54q-11 0 -20 53l4 26v4l-2 28q0 31 61 42q36 12 53 12q15 0 19 -51q14 -100 37 -100q31 -14 72 -14q23 0 75 74q9 18 9 37v7l-6 80l2 49q-22 340 -35 340l-3 3v2l5 7v5h-7l-19 -17q-62 23 -72 29q-11 25 -11 35 q5 105 14 105l21 4q8 0 20 -7q16 10 26 10zM58 529v-2h5v2h-5zM77 496v-2l6 -5h3q19 8 74 21l10 5v5h-14q-79 -4 -79 -24zM210 399v-5h4q5 2 5 11v5l-3 3q-6 -1 -6 -14zM265 382q0 -40 14 -102h1q4 0 4 6q-6 98 -14 98zM282 228v-26l4 -4q7 3 7 12v6l-4 15h-3zM291 144v-11 l3 -3h2v14h-5zM188 79l-2 -9v-68l5 -112h2q5 0 7 18l-5 171h-7zM-64 -57v-2q0 -20 15 -23q6 7 6 16v10l-6 6h-3q-9 0 -12 -7zM-117 -73v-7h4l5 5v2l-4 3h-1zM-64 -115v-2q2 -17 7 -17h1q4 0 4 5q-5 12 -11 14h-1zM214 -126v-3h3l6 5v2h-6zM226 -133v-10h4q8 4 8 17v2 q-8 0 -12 -9zM175 -150l4 -4l7 7v4h-4zM135 -187v-3h2q37 9 37 29l-6 2q-16 -9 -33 -28zM-47 -189v-1l2 -7h7v1q-2 7 -9 7zM21 -192v-2q0 -13 27 -30h10v2q0 17 -30 30h-7zM212 -236h5q25 24 25 39v1h-2q-24 -20 -28 -40zM123 -225v-7h7q17 0 42 31l-4 4q-45 -19 -45 -28z M83 -238v-1l8 -2h16l4 3l-4 4h-21zM-70 -243q0 -11 42 -23q4 0 4 6q-15 22 -39 22zM109 -294v-5h2q26 0 52 30v3l-3 4h-2q-20 0 -49 -32z" />
<glyph unicode="k" horiz-adv-x="781" d="M15 1049h11q123 -14 145 -35q10 0 18 -54l-6 -12v-5q13 -19 20 -174q0 -282 14 -358h7q72 60 231 168q14 0 21 124q0 30 28 30l56 3q125 0 150 -26v-2l-5 -5q-27 9 -39 9l-3 -4v-2q0 -8 40 -14q11 0 11 -64q0 -27 -21 -27q-7 0 -20 -19l-5 -2l-28 2h-5q0 -17 -32 -31 q-5 0 -5 -6l4 -10l-132 -91l-1 -5q1 -10 136 -282q19 -39 25 -63l-7 -2l-9 9h-4q0 -16 53 -16q93 0 93 -16l-11 -15q18 -30 18 -90q0 -19 -21 -19l-11 -2q-39 6 -163 6h-8q-17 0 -25 42q-9 78 -28 133q-22 52 -93 192q-23 70 -36 70q-23 -1 -76 -42q-16 -16 -26 -16 q-7 3 -7 6v1l4 6v3h-9q-7 0 -18 -38l2 -9q-12 -7 -12 -23l3 -149q0 -17 60 -24q12 -10 42 -19l7 -14l-2 -20v-15l4 -20v-3q-6 -12 -21 -19l-2 1h-7v-5q0 -10 19 -16v-3q0 -5 -17 -7l-65 16q-128 7 -175 17l-19 -5q-18 9 -18 45v7l-2 2q0 25 21 40h6v-22l5 -6h17l-5 7v4l12 2 h13v1l-16 16l19 4v3q-1 5 -14 5h-5l-30 -3v2q0 10 63 19q13 5 47 9l4 5v2q0 3 -19 3q-11 0 -11 119q-9 142 -26 198q-9 341 -23 413q0 5 -49 9l-40 -11q-15 16 -16 26l-3 86l-2 5q3 21 7 21l14 -3v3q0 7 -11 21v6q11 1 11 5l-5 9v7zM136 969v-4q8 -14 16 -14q10 13 10 25 l-5 2q-13 0 -21 -9zM49 946v-2q0 -6 21 -10v-4q-27 -2 -27 -8v-6l4 -3h14q22 0 30 24l7 7q0 7 -34 7h-5q-10 -1 -10 -5zM159 824l-4 -6v-28q0 -33 7 -33h2l4 4v19q-2 44 -9 44zM516 727v-3l3 -4h6l3 4v2l-3 3zM491 649q2 -18 7 -18h9q4 0 4 5l-7 16l7 25v5h-2 q-18 -8 -18 -33zM617 638q0 -5 46 -7q14 2 14 7v4l-9 1h-28q-23 0 -23 -5zM155 622v-7l4 -3l5 5l-5 5h-4zM486 617l5 -5h2q9 0 12 7v3h-5q-13 0 -14 -5zM472 552h2q5 0 42 25q14 4 14 9v5h-7q-18 0 -51 -37v-2zM470 493v-4h2q49 12 131 81l2 5h-2q-70 -25 -133 -82zM231 391 v-3h5q18 0 30 16v5q-19 0 -35 -18zM399 395q11 -28 21 -28l1 2v1q-4 30 -19 30q-3 0 -3 -5zM189 384v-1h3l4 3v4h-2zM287 360l1 -2h2q25 8 49 30v2q-52 -24 -52 -30zM190 320v-13l4 -3h3q7 2 7 16v3q0 13 -5 30h-2q-7 0 -7 -33zM448 321v-1q14 -54 50 -118h6v6q0 29 -53 113 h-3zM189 265v-19l3 -3q12 0 12 14v22l-3 4h-4q-8 -4 -8 -18zM521 271v-4l5 -5h2v5l-3 4h-4zM199 213l-2 -9v-14h2q5 1 5 14v9h-5zM509 188v-3q10 -32 24 -44h4q0 11 -25 46l-1 1h-2zM190 129l7 -7h2q7 3 7 12q-1 9 -5 9q-11 -5 -11 -14zM565 96v-4l5 -5h11l5 5v2q-3 7 -12 7 q-9 -2 -9 -5zM325 71v-2l5 -5h2v4l-3 3h-4zM278 54q11 -18 30 -18h1l4 4q-7 19 -14 22h-7q-10 0 -14 -8zM733 57v-7l3 -3h4v7l-4 3h-3zM185 54v-4h5l-3 4h-2zM231 50h7l-4 4zM84 38v-2l1 -2v-1l65 -2h9q44 0 44 7v2q0 4 -30 5q-74 -2 -89 -7zM645 36l6 -5h7l5 5l-4 4h-10z M673 34v-1l6 -6h7v7h-13zM736 13v-24h2q5 0 5 28v10h-1q-6 -1 -6 -14zM241 24v-4l21 -3l9 2v1q0 6 -25 6zM124 12l150 -21v5q0 19 -85 19h-62zM287 -4v-4l3 -3h11l3 3q-2 6 -10 6zM637 -32l1 -2h6l29 -2l32 2h5l4 4v1l-9 2h-54q-13 0 -14 -5z" />
<glyph unicode="l" horiz-adv-x="439" d="M95 1042l57 -14l91 4q35 0 35 -21q-8 -51 -8 -140v-219l-2 -208l2 -56l-7 -264q38 -11 143 -18l2 -2v-19q0 -8 14 -23q-16 -35 -35 -98l-12 -10h-4q-9 12 -35 12l-227 32q-104 0 -104 12q17 33 25 108h3v2l13 -2h14q11 6 40 11q13 -7 21 -7h16q14 0 14 28q5 48 14 304 q-9 83 -16 459q-7 9 -14 9l-63 -4q-16 2 -16 11q7 108 18 108zM79 1009v-3q0 -13 14 -13h5q16 0 30 16v2h-40zM156 1007l10 -3h14l6 5v2h-27zM203 957v-2l4 -4h5q15 12 31 18q7 10 7 16l-3 3h-4q-13 0 -24 -16q-16 -4 -16 -15zM74 972v-10l5 -5h28l9 1v4l-25 12l-7 5h-3z M186 862v-5l3 -4h2l3 4v5l-3 4h-2zM182 785v-2h7v6h-3zM243 692v-1l6 -6h1v4l-3 3h-4zM245 673l-3 -28l1 -17h2q5 0 5 19v21zM177 636v-5l3 -3l4 3v7l-2 2q0 4 12 9v3h-7q-10 -6 -10 -16zM243 617l-1 -9v-1h3l4 3v7h-6zM198 460v-4h2q8 0 8 56q-6 0 -10 -52zM229 395l-3 -4 l-2 -87v-117l2 -53l2 -2h10q4 0 5 13q-3 250 -14 250zM172 188v-5q1 -10 5 -10l7 7v10q-2 18 -7 18t-5 -20zM86 94v-2q0 -10 10 -10h2v10l-5 5h-4zM354 96v-2q4 -9 24 -9l7 5v6l-9 1h-14zM46 89v-4l5 -2l3 4l-1 5h-4zM116 78v-2l8 -1h9l4 3v4l-9 1h-2q-10 -1 -10 -5zM289 59 v-2q0 -8 47 -9h37l9 2v4l-13 1zM102 48v-1l3 -4h21q23 0 23 5v2q-15 4 -39 4h-3zM324 20l5 -3h28q13 0 14 5v4l-9 1h-21q-17 -2 -17 -7zM28 20l4 -3h7l3 3l-5 6h-4zM355 -8v-5l9 -2h4l8 2v5l-8 2h-4z" />
<glyph unicode="m" horiz-adv-x="1123" d="M240 708q16 -2 16 -5l-6 -9v-3h2l72 2q121 0 161 -60q27 -35 35 -49l5 -2q12 0 158 76q19 8 31 8q56 0 119 -42q117 -95 117 -159q11 -24 44 -284v-39q0 -13 6 -14h5q12 0 45 11q23 0 23 -81q2 -33 2 -63h-16h-3q-64 -10 -104 -10l-43 5l-81 -2h-14q-3 0 -3 11l-18 17v2 l4 14v3l-7 37v18q0 19 29 19q49 -7 41 37q-2 108 8 163v2l-3 84q0 21 -37 51l-12 3h-9l-11 -7q-3 0 -3 14q-31 41 -103 41q-89 -8 -107 -53q-5 -15 -7 -66l3 -32v-100l-1 -40q0 -64 35 -72q15 -3 15 -10q-14 -66 -19 -77l-35 -7l-119 10l-14 -3q-23 0 -23 72v5q0 8 42 21 q11 0 11 10q-7 31 -7 79l2 152q-7 31 -7 49q1 35 8 35h2l11 -7h3v2q0 31 -96 88q-27 10 -49 10q-38 0 -88 -35l-1 -7v-112l3 -292l7 -5h5q4 0 6 10h3q37 0 44 -19v-12l3 -32q3 -58 -30 -58q-11 -4 -75 -5l-180 12q-14 0 -26 83v3q0 11 56 28q0 11 56 18q10 4 10 14l9 325 l2 77q0 12 -26 12q-30 0 -65 -7q-23 13 -23 27q11 7 11 22v11q-6 37 -16 37l-2 1v2q9 5 19 26q82 12 200 21zM217 687v-3l5 -5q11 0 11 10l-2 2h-10zM112 677l4 -4q29 2 29 7l-8 2q-25 -1 -25 -5zM245 661l5 -2l90 16v2h-41q-54 0 -54 -14v-2zM215 661v-2l4 -3h2l5 3l-2 6 h-5zM385 663v-4q29 -8 40 -8h2v3q0 8 -35 9h-7zM58 645v-5l3 -3q56 0 56 7l-3 3h-30zM737 640q0 -2 24 -10q13 -18 30 -18h28v4q0 14 -72 31h-1q-8 -3 -9 -7zM284 624v-1l71 7q33 0 63 -27h4v6q-8 28 -28 28h-14q-94 0 -96 -13zM632 602v-2h2q10 0 47 33v4q-49 -14 -49 -35z M170 626v-2h3l4 4v2h-4zM243 626l-3 -5l3 -4h2l4 4v3zM732 626v-3q1 -6 14 -6h5l3 4q-1 5 -14 5h-8zM53 607q0 -14 24 -14q33 0 67 21v3l-6 2q-85 0 -85 -12zM450 612v-5q13 -20 23 -25h3v2q-5 14 -24 28h-2zM317 602q0 -3 40 -13q28 -14 46 -14h1l4 4q-33 28 -72 28h-9 q-10 -1 -10 -5zM431 602q0 -13 12 -13v2q0 10 -9 14zM593 586l2 -2h7q19 2 19 12l-5 2q-20 -5 -23 -12zM180 581v-70q0 -21 -7 -41l9 -15l-3 -21v-14l3 -4h2q8 0 12 152v2q0 15 -10 21q-6 -2 -6 -10zM242 584v-3h7q17 2 17 7v3h-10q-14 -2 -14 -7zM712 582v-3q4 -7 9 -7 q56 0 61 7q-5 12 -45 12h-2q-20 0 -23 -9zM455 579v-2q0 -15 25 -24h1v14q0 4 -24 12h-2zM536 560v-13l5 -5q17 0 44 25v1h-35q-10 0 -14 -8zM842 560v-9q8 -17 28 -32v-5h9v2q0 18 -32 44h-5zM770 528q30 -33 56 -33l4 3v6q-9 14 -30 28h-26zM219 528q-4 -17 -4 -47v-18 l2 -8h2q9 0 9 38v11q0 24 -7 24h-2zM495 509q0 -11 11 -11h3v4q-3 7 -12 7h-2zM537 481l-1 -5q1 -11 5 -11h3l7 7v4q-1 5 -14 5zM873 479v-3q10 -37 20 -37h1v2q0 19 -19 38h-2zM896 418l16 -25h5l2 9v12q0 9 -5 11h-13q-4 0 -5 -7zM217 416v-7l7 -7h2l3 4v7l-7 7h-1z M182 409v-7l4 -3h1v7l-3 3h-2zM151 155q1 -21 7 -21h3q17 0 19 21q16 0 -29 0zM492 341l-2 -12v-51l2 -26h5q5 15 5 35v1q-1 53 -8 53h-2zM891 325l-2 -5l4 -54v-4l5 -5h2l7 7v54l-7 7h-9zM201 150v-2q0 -28 18 -28h7q3 0 3 6zM893 201v-5l3 -4h4v14h-2zM536 162v-3l5 -2 l3 5l-3 4h-2zM527 131l5 -5h9l7 7v1l-4 4h-10zM68 105l2 -20h2q12 15 28 20v5l-12 2h-14q-5 0 -6 -7zM898 161v-1l5 -6l4 6v3l-4 4zM278 105v-7l9 -2l4 5l-4 4h-9zM44 99q0 -13 -12 -24q10 -48 20 -48h5l-8 71l-2 1h-3zM133 94v-5l9 -2h12l9 2v5l-9 2h-12zM228 77v-4h26 l21 2v5h-11zM942 125v-2l5 -5h4l7 7v8l-4 4h-5q-7 -3 -7 -12zM499 73v-3l9 -2l7 2v3l-4 4h-9zM93 66q0 -16 48 -6q8 -10 16 -10q43 2 72 7v5l-68 4v3l19 4l31 -2h13v2q-15 -15 -114 -7l-7 5h-5zM245 64q0 -11 26 -14l7 6v5q0 6 -28 7zM1021 102v-16l5 -5q4 0 5 21l-2 5h-3z M75 60v-10l3 -4h4v9l-5 5h-2zM980 77l2 -1h5q9 0 11 5v2q0 9 -5 10q-7 0 -13 -16zM903 76v-4h18q40 1 40 9l-5 3h-4q-49 0 -49 -8zM239 27v-2l4 -3q11 4 19 14v3q-12 0 -23 -12zM847 56v-3h37q13 0 16 7q-2 5 -11 5h-22q-6 0 -20 -9z" />
<glyph unicode="n" horiz-adv-x="802" d="M19 703q35 -5 66 -5h114l3 -4q-7 -26 -7 -40v-24q5 -39 21 -39q9 15 56 30q111 49 184 49q47 0 102 -42q40 -16 77 -65q56 -89 56 -213v-11l-9 -100l9 -73l-14 -65v-2l1 -12l53 -2h23q23 0 29 -5q-8 -101 -22 -101q-26 -16 -60 -16h-28q-64 0 -140 -18q-49 6 -49 49 l-2 48q0 47 23 68q12 66 30 124l9 123q3 0 3 31q0 36 -59 107q-44 19 -53 19q-79 0 -145 -68q-5 0 -67 -68q-21 -16 -21 -93q3 -140 11 -140q54 -10 54 -21v-7l-30 3l-22 -3v-4q0 -6 54 -14q9 -10 9 -33v-2q0 -32 -14 -70l-161 -3q-26 0 -35 24q-7 28 -13 102q0 8 42 17l7 9 v2q0 7 -12 23l2 43v79l5 128q0 131 -12 131h-7l-65 -9q-10 0 -26 18v5q7 9 7 23l-2 51l21 63zM22 658v-4q0 -4 21 -5q91 0 91 12l5 9v3h-3v2zM412 649v-2q10 0 34 -17l15 -4l44 2l2 2v3q-3 7 -16 7h-5l-14 -3q-31 19 -44 19t-16 -7zM318 623l3 -4q65 16 65 23v2h-2 q-33 0 -66 -20v-1zM50 623l4 -4h3q18 2 18 7l-6 2q-19 0 -19 -5zM62 591l27 2h5q13 0 16 -7v-4q-7 -7 -7 -14q8 -5 17 -5q4 0 4 5l1 46l-1 5h-4q-10 -7 -56 -23l-2 -1v-4zM293 610l2 -1v-2q12 4 12 7v2h-3q-11 -2 -11 -6zM12 609v-2q0 -4 8 -7q9 0 25 12v2h-23 q-10 -1 -10 -5zM491 586q0 -7 25 -9q7 6 7 12q0 7 -23 11q-9 -5 -9 -14zM211 575v-5q20 0 42 25v1l-2 2h-1q-15 0 -39 -23zM540 589q2 -7 11 -7h8l6 6v1q-2 6 -14 6h-6zM390 581v-4h7q21 3 21 9v3h-9q-19 -2 -19 -8zM155 588l-2 -9v-25q0 -15 -5 -21v-8l5 -20l-1 -10 q0 -11 8 -16q3 0 9 32q19 14 19 24q0 7 -15 30q-4 23 -11 23h-7zM24 565v-2h14l5 5v2l-7 2q-12 -3 -12 -7zM512 565l-2 -2v-2l6 -3h1l4 3zM414 551l2 -2h2q31 0 31 5l-12 4q-23 -2 -23 -7zM213 497v-4q35 4 100 60v1h-9q-7 0 -33 -19q-58 -20 -58 -38zM542 551v-4 q0 -5 19 -38q0 -12 5 -12l6 5v7q0 21 -27 42h-3zM113 535l2 -5h3l4 19h-4q-4 0 -5 -14zM463 525v-4h35l4 4v5l-6 5h-7q-26 -5 -26 -10zM325 502q30 7 30 16l-4 3h-3q-20 0 -23 -19zM281 486v-2h4q22 19 22 30h-3v2q-12 0 -23 -30zM174 500l2 -9q0 -11 -12 -21q7 -7 7 -14 q0 -70 9 -70h3q9 23 9 65q-1 52 -12 54h-2q-4 0 -4 -5zM565 483v-6q18 -63 21 -64l3 10v12q-11 48 -24 48zM626 479q3 -73 14 -73h3q-5 73 -15 73h-2zM255 465v-2l3 -3h6l3 16h-3zM222 460l3 -5l5 1v4l-3 3h-2zM617 299v-2l5 -17h7q-1 19 -12 19zM565 199l1 -2h2q5 1 5 14 v16h-1q-4 0 -7 -28zM558 176q7 -10 7 -26h3l4 16v24q-14 0 -14 -14zM615 189v-6h4v6h-4zM650 183l-3 -29v-34h2q17 22 17 41v1q0 21 -16 21zM614 117v-2h1l6 16v3h-2q-5 0 -5 -17zM75 108v-2q2 -26 19 -26h7l5 5v2q-14 14 -14 25h-14zM612 92v-5l5 -5h2l3 3v2l-5 5h-5z M692 61v-4q63 1 63 9v4h-19q-44 -2 -44 -9zM136 47q0 -7 37 -7q68 0 68 7q0 9 -46 9q-54 0 -59 -9zM509 43v-8l3 -4h4l3 4v1l-7 7h-3zM705 33v-5q2 -7 12 -7q23 0 28 10v4q-3 7 -16 7h-7q-14 0 -17 -9zM542 7q5 -11 16 -11q75 3 75 9q-10 12 -35 12q-56 -2 -56 -10zM503 -25 v-3q0 -9 37 -9h7l12 2v1q-15 14 -45 14h-5z" />
<glyph unicode="o" horiz-adv-x="700" d="M423 646h12q74 -35 147 -94q70 -60 70 -91h-2q-11 19 -23 19h-1q-4 0 -4 -5q5 -18 25 -53h3q3 0 7 14h2q3 -1 10 -40l11 -28l-2 -18l4 -50q-7 -22 -18 -91q-6 -27 -129 -198q-54 -52 -109 -52q-54 -7 -110 -7h-26q-25 0 -124 40q-126 114 -126 173q-18 39 -30 70 q0 16 38 119q0 64 30 89q64 141 165 182q86 32 141 32zM400 627q5 -18 30 -18l15 -1l2 1v6q0 17 -28 19q-19 -2 -19 -7zM173 550v-5q7 0 85 58l11 5l7 -2q94 9 94 18v1l-22 4q-96 0 -172 -72zM494 594v-2q13 -18 30 -18q0 15 -24 23h-2zM426 583l-2 -2v-1q26 -20 41 -20l1 2 v2q-22 19 -40 19zM283 575v-6q107 12 107 16l-11 4h-2q-65 0 -94 -14zM412 585v-3l4 -4l-14 -12v1q-2 6 23 18h-13zM285 527v-1l3 -4h19l98 23v3l-26 4q-94 -11 -94 -25zM517 536v-2q6 -17 40 -35h4l3 4v1q-6 9 -47 32zM188 526q12 0 23 17v4q-23 -7 -23 -21zM472 517 q9 -13 19 -13l3 4v2q0 12 -12 12q-10 -2 -10 -5zM134 221v-9q16 -33 42 -80q0 -14 53 -40q25 -28 94 -44l25 -3q58 12 91 26l50 42q77 83 75 139v13q-8 23 -8 73q0 36 5 61q0 8 -53 49q-40 54 -82 67h-16q-162 -6 -162 -26q-36 -36 -51 -72q-44 -45 -44 -61 q-12 -51 -19 -135zM543 494v-2q8 -17 41 -30h5l3 4v2q-22 26 -43 26h-6zM187 487v-5h3l4 3v2h-7zM159 454v-9h3q19 16 19 26l-1 2h-6q-10 -7 -15 -19zM103 445h1q6 2 6 11h-2q-5 -2 -5 -11zM75 398q8 0 12 9v3q-12 0 -12 -12zM659 349v-7l3 -4l6 5v6l-4 3h-2zM640 254 q2 -43 8 -44h2q0 15 12 34v3l-15 21h-2q-4 0 -5 -14zM106 272v-2h4l3 4v3h-2zM29 244q2 -14 5 -14l2 2v7l-2 8h-1zM629 177l2 25l2 -9h2q8 4 6 -19l-5 3h-7zM607 153l1 -2q9 0 18 23v2h-4q-8 0 -15 -23zM61 178v-11q2 -45 26 -52l2 1v2q-11 65 -23 65zM113 87v-2 q4 -7 11 -11h5q0 10 -10 16h-2zM138 41v-5q20 -19 65 -19h15v1q-7 8 -71 23h-9zM241 24v-4q0 -9 40 -9l2 2v2q-19 9 -42 9zM213 4v-1h18l3 3l-3 4h-4q-13 0 -14 -6zM451 -19v-1h2q24 9 24 15l-2 2q-20 -7 -24 -16zM376 -10v-3q0 -5 21 -7q24 1 24 7v3q-3 7 -10 11h-12 q-15 0 -23 -11z" />
<glyph unicode="p" horiz-adv-x="719" d="M105 709h3q46 0 74 -20q24 -3 24 -8v-4q-21 0 -21 -10q4 -6 26 -7q3 -7 20 -11l35 2l15 -4l107 23h4q105 -26 189 -93q89 -89 101 -134q14 -49 14 -65q-19 -166 -33 -166q-50 -82 -63 -93l-12 -11l3 -5v-2q-25 -30 -51 -38q-12 -9 -15 -26q-19 -20 -65 -20 q-101 -33 -138 -33q-16 0 -60 23q-35 7 -66 7l-9 -5q9 -14 9 -74v-19l10 -63l2 -98v-14q0 -33 24 -33l9 -9v-2q-9 0 -9 -10q20 -19 20 -51l8 -26q-21 -7 -50 -7l-97 7q-25 -20 -29 -20q-31 9 -60 69l-2 1l2 6q9 2 9 5v2q-11 14 -11 21l2 5h4q3 0 3 -5l2 -2h7l3 3v16 q9 14 30 14q5 5 5 67v99q0 33 -8 126v525l-2 44h-35l-5 5l-2 77q0 35 35 35q9 5 44 6zM42 682q0 -8 8 -12h7q10 0 13 7v5q-3 7 -13 7h-3q-10 0 -12 -7zM190 647v-5l4 -3h2l3 3v5l-3 4h-2zM406 651v-5q14 -7 28 -7h7v1q0 8 -32 11h-3zM57 646v-7q0 -11 11 -18h3l2 9v5 q0 13 -5 14h-7zM232 633l4 -3h7l5 5l-3 4h-2q-11 -2 -11 -6zM456 633l-1 -1v-2q16 -18 38 -23h5q0 18 -42 26zM316 618q0 -5 58 -13q0 -3 12 -3h21l6 5l-4 4h-5l-16 -2l-7 2v1l5 7v6l-12 1h-23q-33 -2 -35 -8zM98 549q0 -21 8 -33v-2l-10 -26l9 -23q-13 -113 -13 -173v-100 q0 -38 7 -71l-7 -42v-14l4 -119l2 -2h1q14 5 14 16v3l-7 12q5 0 9 118l-2 96q7 221 7 325v2q0 82 -12 82q-10 0 -10 -49zM521 590v-2q1 -6 11 -11l5 2v4q-3 7 -12 7h-4zM332 535q0 -4 18 -5l10 2v3l-5 7v2l77 9l7 5l-5 7h-11q-91 -10 -91 -30zM582 560l-1 -2q9 -17 22 -24h2 q0 13 -23 26zM474 553v-2l5 -5h4v3l-4 4h-5zM210 535v-3h5l7 7v3h-5zM432 539v-2q7 -10 30 -10h10l4 3q-3 7 -34 9h-10zM145 523v-9q5 0 7 23h-2q-5 -1 -5 -14zM287 530q0 -9 -28 -23v-3h7l1 2h2l2 -2v-2q-60 -28 -72 -51q-5 0 -12 -259l-2 -19q0 -5 61 -51l58 -26 q3 -8 7 -9h5q42 0 95 30q20 19 61 33q72 58 72 109v21l-4 19v2l11 14v5q-12 5 -12 33q0 49 -28 79q-14 36 -48 61q-10 17 -73 32h-12l-65 -5h-4q-12 0 -19 10h-3zM612 525v-4l4 -3h3v3l-3 4h-4zM497 518v-2q0 -16 29 -28h4v2q0 23 -28 33zM143 462l-3 -96l1 -7h4l3 3v103h-1 zM626 455l11 -19h5v3q0 10 -12 19zM539 455v-7q0 -11 21 -47h3v7q0 33 -17 47h-7zM561 380v-7l6 -2l3 3l-2 6h-7zM614 215h2q28 44 28 98v19h-4q-12 0 -26 -117zM575 331v-20l6 -5h1l4 4q0 13 -9 21h-2zM561 255v-1h2q16 2 16 15v11l-4 3h-1q-13 -11 -13 -28zM512 154l2 -2 h2q16 9 19 18l-2 1h-1q-17 -9 -20 -17zM187 149q3 -16 17 -16v3q-4 8 -12 13h-5zM514 108v-7h2q19 6 19 16h-3q-14 0 -18 -9zM350 58v-2h5q79 16 79 28v2q0 3 -6 3q-78 -20 -78 -31zM477 63h2q29 9 32 16v1l-4 4h-2q-28 -10 -28 -21zM197 70l-1 -2v-3q0 -14 82 -21l28 14v1 l-5 6h-7l-39 -7q-37 12 -58 12zM99 -98v-21q0 -23 6 -23q12 22 12 53v7q0 4 -7 5q-11 -5 -11 -21zM112 -177l-4 -7v-17q0 -11 5 -25h7l2 9v17q0 23 -5 23h-5zM143 -319v-3l5 -5h4l3 3v4l-5 5h-3zM80 -319v-3q2 -5 11 -5l3 3l-5 5h-9zM178 -324v-2l5 -5h6l3 4v3l-3 4h-7z M56 -354v-1q0 -4 19 -6q23 2 23 6v3l-13 2h-26z" />
<glyph unicode="q" horiz-adv-x="742" d="M413 669q59 0 126 -72q28 -21 37 -46h2q14 0 14 109l1 2q0 5 4 5h2q0 -9 10 -11q44 6 96 6h11l3 -4q-14 -28 -14 -38l-1 -48q0 -220 21 -673v-16q0 -96 -13 -145v-32q0 -17 23 -24v-2q-12 -1 -12 -5v-4h3q17 0 67 19h7q23 -4 47 -50l2 -7l-4 -55v-5q0 -14 -10 -14h-16 q-79 0 -208 -9q-28 4 -28 23l7 44v3l-4 27l6 12q-9 42 -9 93v10q0 13 9 44l-6 35l4 10l-4 13l4 12q-7 37 -7 145v42l2 33q-3 9 -6 9q-13 0 -140 -108q-35 -25 -89 -25l-26 -3q-122 0 -231 106l-67 147l-10 93q9 77 75 205q22 42 102 98q14 15 159 44zM392 655q0 -4 21 -6 q12 2 12 6l-14 3h-15zM261 627v-4h2q24 2 24 7v2h-5zM404 627q41 -14 69 -28h5l5 5v2q-15 24 -33 24h-42zM324 620v-2q13 0 14 5v2h-9zM287 609h12q14 0 16 7l-3 4h-9zM630 602v-3q5 -18 12 -18h9l5 5v9q0 7 -17 12q-9 -1 -9 -5zM502 590v-4l4 -3h5v5l-5 5zM128 347v-37 q0 -63 19 -109q11 -61 39 -89q86 -65 115 -65h12q69 0 98 37q128 115 128 165q12 47 12 85q0 132 -56 188q-74 57 -143 57q-17 0 -107 -43l-65 -53q-49 -59 -49 -89q-3 0 -3 -47zM459 567v-5l5 -5h7q0 10 -11 10h-1zM191 555v-4l3 4h-3zM207 530v-1h3q10 0 18 10v2 q-21 -5 -21 -11zM551 525v-3l6 -6h3v4l-5 5h-4zM138 513v-2l4 -3h5l5 5v2l-3 3h-5zM544 499v-4q0 -15 16 -15h4l5 5v5q0 6 -19 9h-6zM112 474v-1h5l6 5l-4 3zM669 446v-28l1 -17h6l3 30v19q0 9 -5 10q-5 -1 -5 -14zM93 453v-8h7l2 8l-6 4zM557 441v-10q0 -13 5 -14h3v5 q-2 19 -7 19h-1zM51 382v-4h2q19 17 19 28v4q-14 0 -21 -28zM670 371v-10q1 -11 6 -11h5v2l-4 23h-3zM89 362v-3h2l5 5v2h-3zM571 308v-5l3 -4h2l3 4l-1 9h-4zM467 107v-5h6q52 47 89 106l16 58v2l-6 5h-3q-8 0 -26 -72q-34 -49 -76 -94zM53 249v-7q0 -18 14 -32h1l4 4v14 q0 16 -18 21h-1zM102 228q0 -13 8 -14l6 10q-2 16 -7 16q-7 -3 -7 -12zM121 203v-9l3 -3h4l2 7l-2 5h-7zM63 201l-2 -5q13 -52 21 -52h4v7q-8 50 -18 50h-5zM334 -5v-5h13q43 0 87 31q9 9 16 26q4 0 21 16q15 2 79 58q26 29 26 40v5l-4 4h-7q-11 -7 -38 -46 q-49 -34 -105 -68q-42 -36 -88 -61zM112 116v-2l2 -11q-2 -7 -7 -7v-7q31 -40 51 -40h1l2 2v5l-38 54l-7 6h-4zM674 88v-20l3 -3q6 0 6 16q-2 10 -6 10zM168 44q0 -14 14 -14h2v3q0 9 -11 14h-1zM312 18h3v3zM217 12v-3q0 -12 86 -25h3q15 0 18 13h-2zM698 -121l-1 -8v-9h5 l2 9v8h-6zM655 -133l5 -5l3 5l-3 4h-2zM648 -238l-2 -2v-12h5v11zM613 -245v-3q0 -4 8 -6l6 7l-6 6h-5zM623 -268l-3 -5v-5l3 -4h2l2 9v2zM651 -317l-2 -5l6 -3l3 3v2l-3 3h-4zM786 -334v-2q0 -8 28 -21q9 0 10 5v2q-6 23 -10 23q-28 -2 -28 -7zM733 -336v-3l4 -4h12l4 4 l-4 3h-16zM651 -362v-5h2l5 5v3h-3zM676 -380v-1q42 5 87 5v5l-26 4h-26q-29 0 -35 -13zM812 -392v-5q0 -14 11 -21q5 1 5 14v3q0 13 -5 14h-6zM707 -404l60 -9h19l3 4v1q-2 9 -22 9h-32q-28 0 -28 -5zM606 -411l-2 -9v-7h5l2 12v4h-5z" />
<glyph unicode="r" horiz-adv-x="694" d="M539 648q54 0 91 -77q8 0 20 -18l19 -103q-12 -16 -74 -16h-14q-52 7 -52 35q0 20 -32 53q-4 7 -59 7t-128 -28q-50 -51 -70 -86q10 -252 7 -298q0 -12 17 -12h34q22 -1 22 -7v-2l5 -19l-3 -77l-8 -11l-65 -6h-6l-28 -9q-159 5 -159 12q-28 0 -28 25q-3 19 -3 52 q0 26 54 35q0 11 37 11l5 1v2l-9 380q0 35 -17 35h-9q-17 0 -56 -14l-2 2v3q0 3 11 7v2q-14 0 -14 79q-2 0 -4 24q57 44 116 44h35q18 0 70 -14l2 -5q-13 -17 -13 -28v-9q112 51 308 30zM116 648v-7l9 -9h12v3l-16 13h-5zM210 644v-7h6l5 5v2l-5 2zM58 620q8 -11 23 -11l2 2 v10l-7 6q-18 -2 -18 -7zM207 616v-2l3 -3l6 5v5h-4zM463 632v-3h9l5 5l-3 4q-11 -2 -11 -6zM333 588v-3q12 0 32 40v7h-1q-37 -10 -31 -44zM551 629v-2l3 -3h6l3 3v2l-3 3h-6zM418 629v-2l3 -3h14q9 0 11 5l-2 2h-9zM498 624v-2h6l3 3v2h-5zM385 618l6 -28h12l-1 30l-3 4h-4 q-10 -2 -10 -6zM594 583v-4q8 -12 19 -12h3v4q-9 12 -19 12h-3zM511 543h6q9 3 28 33v2q0 3 -6 3q-24 -10 -24 -30q-3 0 -4 -8zM79 565v-3h5q14 0 16 7l-3 3h-2q-14 0 -16 -7zM238 555v-4l4 -3h5l4 3v4l-7 2zM186 511l-7 -28q0 -9 9 -14h1q6 0 7 19l-5 23h-5zM550 506v-4h3 l6 6v3h-2q-7 -3 -7 -5zM175 438v-7q7 -12 7 -30q-3 -6 -5 -56l4 -56h1q6 0 11 128q3 0 3 29q-2 13 -7 13h-3q-11 -7 -11 -21zM210 179v-11h5l6 5v7l-4 4h-2zM212 152v-5h3v5h-3zM243 47v-3v3zM79 37l2 -2h77v4l-48 1h-28zM44 37l-4 -5v-6l4 -3h5v9zM198 30l3 -4h21l6 6 q0 4 -7 5q-23 -2 -23 -7zM74 16v-2q0 -7 40 -7h42l9 2q0 7 -74 10z" />
<glyph unicode="s" horiz-adv-x="767" d="M307 838q37 0 207 -42q82 -37 94 -37q11 13 11 39v2l-2 10q0 18 26 18q17 12 47 12q42 0 42 -9l13 -131v-40q0 -50 -14 -60q-13 -12 -20 -12q-77 6 -77 21q-12 34 -49 49q-134 66 -192 66l-39 2q-69 0 -82 -26q-17 -23 -17 -60v-1q0 -76 80 -126q77 -32 137 -32 q0 -13 63 -31q13 -21 54 -21q44 -17 124 -105l5 -7v-4q0 -3 -8 -3v-2q19 -39 19 -49q0 -126 -40 -158q-16 -36 -76 -73q-67 -60 -134 -60h-48q-110 17 -110 28q-62 44 -73 44q-68 33 -95 67h-5q-18 -48 -28 -48q-88 13 -88 30q-7 19 -10 121l14 86q0 47 12 47l88 10 q10 0 19 -77l40 -70q0 -5 123 -84q32 -35 87 -35h49q72 0 100 48q34 35 47 101v4q0 41 -70 101q-32 35 -79 35q-22 12 -124 26l-112 58l-54 46q-34 53 -37 75l2 23l-5 54q0 19 24 45q0 17 67 76q62 33 73 54zM300 817v-5q0 -5 18 -9q38 2 38 9v5q0 11 -40 11q-9 0 -16 -11z M662 821v-4q15 -24 27 -24q10 1 17 14v5q0 9 -44 9zM708 773l3 -3h6v7h-6zM339 758q7 -7 14 -7q15 0 29 15l-7 7h-15q-21 0 -21 -15zM528 759v-1q0 -5 17 -7h4v1q0 5 -21 7zM398 735q0 -10 49 -12v3q0 7 -42 14h-2zM209 696l2 -1h5q32 21 32 35l-2 1h-2q-16 0 -35 -33v-2z M612 717q18 -13 45 -19l2 2v2q0 9 -42 19h-2zM199 716l1 -2v-2l6 2v5h-4zM545 707l-2 -2v-2q43 -26 55 -26v2q0 10 -53 28zM158 703l-3 -10v-4l3 -3l6 14v2zM146 667q2 -21 7 -37h5v2l-3 38h-5zM183 653v-4h3l6 5v4h-4zM648 618q9 -7 39 -7l28 1v6q-17 3 -51 3h-12zM242 541 v-2l4 -4h14v4q-1 5 -14 5zM179 535v-1l4 -4h3v5l-3 4zM206 530v-3q10 -30 19 -30h5l7 7v2q-17 24 -30 24h-1zM276 530l-2 -2v-8l9 -9h3l4 3v7q-5 9 -14 9zM321 497l-2 -2v-2q17 -17 53 -29l3 5q0 7 -54 28zM398 462q0 -7 98 -28l18 -2h5v2q-43 30 -103 37q-18 -7 -18 -9z M277 458l-1 -1q0 -8 19 -16l2 2q0 7 -20 15zM414 422v-6l23 -7h15v4q-27 9 -38 9zM550 402v-3q6 -7 74 -42q27 -25 42 -25h2l3 4q-32 42 -108 66h-13zM596 318v-7q0 -14 24 -33h7v11q0 17 -29 29h-2zM90 299v-5l4 -4l5 4l-2 5h-7zM43 187l2 -35h1q9 8 9 67v10l-3 4h-2 q-5 0 -7 -46zM615 210v-7l5 -2l4 4l-2 5h-7zM690 199v-8l4 -4h3q9 3 9 23h-5zM148 163v-6q21 -26 40 -26h2v4q-29 28 -39 28h-3zM582 112v-5h3q12 8 21 24l-3 4q-11 -6 -21 -23zM81 115v-5l6 -5h1l4 3v2l-5 5h-6zM610 61v-2q0 -3 5 -3q18 0 46 44h-4zM286 40v-2q0 -6 37 -14 l5 -5h7q-3 18 -9 18zM367 23v-7h5v3l-4 4h-1zM358 3v-1l5 -6h11v2q-2 5 -14 5h-2zM517 0v-4l4 -3h5q26 2 26 7l-3 3h-28zM388 -5q19 -11 52 -11h2l61 2v3q-4 11 -96 11q-19 0 -19 -5z" />
<glyph unicode="t" horiz-adv-x="620" d="M322 1116q32 0 51 -16q-16 -40 -23 -140l-12 -127q0 -11 54 -11q165 0 165 -14q5 0 17 -9q-14 -20 -14 -26v-5l4 -28l-18 -61q0 -9 20 -28v-2q-30 -11 -53 -11q-23 2 -23 7v2l13 2h10l5 5v4l-5 1l-93 -1l-78 1q-6 0 -14 -78h-2l-19 21l-4 -14v-9q2 -40 9 -42q5 0 10 26v9 h4l2 -5l-11 -132q18 -288 30 -288q5 -44 35 -44q17 -9 38 -9h25l82 4q6 0 11 -74q6 -44 -49 -44l-107 -3q-90 0 -147 49q-39 15 -39 84q-5 55 -10 222l17 189l4 82v11q-9 58 -33 58l-41 1h-49q-20 0 -43 -10q-14 2 -34 37l28 124q0 5 168 7q0 19 20 45q5 216 14 216v5 q0 3 -6 3v4q0 5 91 12zM268 1079v-8h5v5l-3 3h-2zM324 1071v-2l4 -33h3q16 17 16 29v6l-5 5h-13zM275 1029q-3 -10 -3 -37v-5h3l4 24v14zM280 966l-5 -137v-2l4 -3h3q9 0 9 35v31l-2 69q-3 7 -5 7h-4zM44 808q0 -10 11 -10h21q51 0 106 5v2q0 8 -68 8h-59q-11 -1 -11 -5z M459 805l-18 1h-22v-5q30 -9 52 -9h32q3 0 3 6q-2 15 -16 15h-14zM511 796v-2l4 -3q13 0 16 7v1h-16zM62 777v-7q0 -14 94 -14q46 0 46 7q0 15 -121 17h-16zM357 764v-1q0 -7 51 -9l23 2l31 -6h6q10 0 10 9h-2l-105 9h-10zM506 733v-2l5 -5h6q13 0 17 9l-5 3h-18zM72 728 q0 -6 7 -6l35 -1l37 1l2 2v2q-18 7 -63 7h-13zM72 710v-3q0 -9 105 -9l12 2v1l-3 4zM378 701v-3q2 -5 48 -14h3v2q-20 15 -44 15h-7zM455 687q39 -12 67 -12l5 5v9l-3 4h-32q-37 0 -37 -6zM263 637v-11l3 -3q6 1 6 10v5l-2 9h-2q-5 -2 -5 -10zM307 617v-3l5 -5h2v3l-6 5h-1z M266 610l-1 -8v-6l1 -8h6l1 12v7l-3 3h-4zM268 514v-12l4 -4h3v4l-2 12h-5zM205 337l5 -38l-1 -49l1 -14h4q9 0 9 65v33q0 63 -7 63q-9 0 -11 -60zM293 227l-2 -9v-10q0 -10 7 -12h2q5 1 5 10q-3 21 -9 21h-3zM307 169l-6 -17q0 -31 14 -39l4 6v12q-4 35 -12 38zM249 159 v-21l2 -9h1l4 4v22l-4 4h-3zM294 71l-1 -1v-9q3 -7 10 -11h9v2q0 15 -18 19zM447 43l5 -1q52 9 52 19l-3 3q-54 -14 -54 -21zM256 63v-6q4 -35 30 -35h14l3 4v2q0 5 -26 10l-18 25h-3z" />
<glyph unicode="u" horiz-adv-x="819" d="M126 689l95 -31q3 -23 17 -46l2 -14q-12 -85 -6 -370q0 -41 32 -53l10 -23q0 -9 93 -15h5q28 0 72 63q35 35 44 52h7v9l-2 7q7 12 12 37l2 1v13l25 264v24l-4 14v2q16 11 16 35q0 13 10 16l32 -16h31q55 0 79 -24v-6q-16 -1 -16 -5l14 -33h4q2 21 5 21q5 -7 7 -23 l-14 -173l2 -2v-2q-9 -27 -19 -168v-40q0 -91 8 -91h6q28 0 80 12q8 -1 25 -17q-5 -124 -16 -124l-16 12l-42 -4l-154 4q-12 0 -24 56q-9 8 -9 17l2 13h-4q-11 0 -82 -37q-4 -9 -96 -42q-23 -12 -56 -21q-21 12 -67 24q-87 86 -107 153q-35 50 -35 218l15 163v3q0 5 -95 19 q-9 13 -9 69q0 38 14 38q0 16 107 21zM98 670v-4h9v4l-4 3h-1zM130 659v-1q0 -4 21 -13q0 -19 3 -19h9q35 0 40 11v3q0 9 -42 16q0 4 -16 5h-7zM25 623v-4l3 -3h4l12 3v4h-19zM32 609v-4q2 -7 15 -7l2 2v2l-7 7h-10zM558 641q0 -14 21 -14h9l3 3v2q0 7 -31 9h-2zM79 591 q0 -9 45 -23h14q4 0 6 9q-16 16 -39 21h-10q-14 0 -16 -7zM54 593v-4l2 -1v-2q11 3 11 7v3h-6zM184 581v-27l3 -3q9 4 9 17v16q0 9 -5 11h-2q-5 -2 -5 -14zM25 581l3 -4h11l3 4l-5 5h-7zM567 592v-2q2 -5 10 -5h2q9 0 11 5v2q-2 5 -14 5h-4zM123 519v-12l21 7v30l-4 3 q-6 0 -17 -28zM591 445v-6h2q14 0 14 32q-2 14 -5 14q-4 0 -11 -40zM642 401l-2 -5q3 -7 6 -7h1v12h-5zM142 364l-4 -5v-4l4 -3l5 5v5zM572 313l7 -7q6 2 9 28l-2 2h-2q-12 -8 -12 -23zM175 315v-9q0 -17 19 -29h4v1q0 51 -9 51h-5q-9 -4 -9 -14zM565 292v-12l5 -5 q8 4 13 12v5l-6 6h-7zM124 278v-5q0 -55 58 -170q9 -7 16 -7v7l-41 112q-20 64 -28 67h-1zM598 238v-2l4 -3l5 3l-2 6h-3zM450 175l1 -2h2q33 43 33 51v2h-3q-16 -17 -33 -51zM201 224v-2q4 -8 11 -8v1q0 9 -11 9zM598 221l-1 -9q0 -25 7 -56h5q5 23 5 40v9q0 16 -14 16h-2z M520 214q-9 -10 -9 -16l7 -5h2l5 5v10zM570 194v-10h2l4 3v4l-4 3h-2zM240 152v-3l3 -4h2v4l-4 3h-1zM660 151l-14 -20v-5h14l5 5v6q0 12 -5 14zM530 128v-2h4l8 9v5q-12 0 -12 -12zM567 126v-16q0 -98 10 -98h6q8 3 8 9q-8 18 -12 102l-7 8zM227 124v-5q4 -7 11 -7v7l-5 5 h-6zM262 114v-2q0 -14 49 -44q55 22 55 28v2q-35 0 -100 16h-4zM334 63v-3h16q53 13 72 38v4h-7q-9 0 -81 -39zM700 86v-5l9 -2h5q31 2 31 10v2h-1zM737 67v-7h7l3 3v2q0 3 -5 3zM626 42v-3q3 -7 16 -7h16l3 3v2q0 6 -19 9h-12zM308 32h-12l-56 5h-2l-5 -5v-2q0 -12 77 -28 q23 0 92 35l2 2v5h-9q-39 -12 -87 -12z" />
<glyph unicode="v" horiz-adv-x="743" d="M144 696q102 -12 102 -37l7 -9v-17l15 -18q-15 -13 -15 -26q3 -7 10 -7v-2l-9 -9h-10q-14 11 -23 11q-73 -4 -19 -121q39 -140 69 -175q76 -176 105 -184h3q6 0 32 69q49 88 82 176q23 41 23 55l-4 14q100 185 -10 163h-4q-5 122 26 122q36 14 174 14q63 0 63 -47 q15 -24 15 -33q-22 -19 -22 -42l-51 -9q-7 -11 -46 -98q-11 -34 -98 -189l-38 -114q-83 -173 -86 -173t-3 -9v-11l1 -1q0 -22 -36 -25l-27 -16q-19 0 -49 20l-68 96q-17 61 -31 61q-9 11 -23 70q-34 58 -53 84q0 6 6 12v6l-23 57q-20 75 -30 81q-47 131 -63 131q0 -6 -18 -7 q-24 0 -56 23v3l4 6v5q0 3 -18 14l-2 2v1q32 6 32 13l-19 10l-2 2v3l9 13q0 6 -9 15v4q156 23 187 23zM102 673q0 -5 23 -5h51v3q-25 9 -41 9h-17q-14 0 -16 -7zM30 627v-5l7 -2q20 3 20 9l-4 4h-17zM519 686h-2v-7l6 -6h1q0 8 161 14l2 2h2v4q0 5 -23 5q-89 0 -147 -12z M505 651v-9q0 -19 16 -19h2l3 3v2q-12 33 -16 33q-5 -2 -5 -10zM-3 578l4 -3h19v3l-16 4h-3zM542 644v-2l5 -2q9 2 9 5v4h-9zM696 633v-3l19 -4q21 1 21 5q0 5 -19 7h-11q-10 -1 -10 -5zM83 545l-2 -5q23 -12 5 5h-3zM621 516v-9h3q9 3 19 32q4 5 20 5l1 2v10l-3 5v4l7 2 q0 14 -11 21q-19 0 -36 -72zM615 472v-3h4v3h-4zM596 477v-4h5q9 0 14 28v6l-1 1v2q-9 0 -18 -33zM570 419v-9h5q14 13 14 28v6h-5q-14 -9 -14 -25zM145 435q2 -18 7 -18l1 2v2q-3 14 -7 14h-1zM549 360h2q13 13 17 31v2q-16 0 -19 -33zM537 337l3 -4l5 6v5h-1zM524 323v-2 l4 -3q7 1 7 10v4l-5 5q-6 -1 -6 -14zM237 286v-3q18 -55 32 -55v2q-17 54 -28 56h-4zM439 69h3q7 0 67 130l3 21v1h-2q-15 -10 -40 -78q-31 -58 -31 -74zM465 216q-51 -96 -51 -105l4 -3q39 63 47 92q5 7 5 14v2h-5zM323 102v-1q1 -14 21 -35h2l3 3q-7 17 -24 33h-2z M285 101v-4q0 -13 26 -26h2l1 2v1q-6 15 -26 27h-3zM370 67q7 -26 23 -26q16 25 16 37v3h-2q-6 -5 -37 -10v-4zM432 59l-35 -62v-5h1q28 0 35 54q4 0 4 13h-5zM327 52q19 -25 35 -25l1 5q-12 23 -31 23zM316 29v-2l5 -7h4v4l-5 5h-4z" />
<glyph unicode="w" horiz-adv-x="917" d="M746 763q205 -2 205 -27l6 -45q-10 -18 -14 -60l-9 -5l-60 9h-4q-6 0 -31 -101q-19 -119 -47 -240q-11 -142 -30 -172q-12 -38 -33 -152l-6 -2q-4 4 -15 4v2l-21 -2h-62q-40 2 -43 10v2q0 5 87 11q23 6 23 10v2h-2l-117 -11q-17 20 -26 67q-27 82 -27 136q-5 0 -17 56 q0 37 -30 142q0 5 -3 5q-5 -1 -37 -110q-54 -170 -74 -220q-8 -11 -28 -23v-4q21 -13 21 -24q-5 -11 -49 -14q-85 -16 -96 3q-7 11 -7 44l2 16q0 106 -33 252q-7 54 -18 79l4 47v2q0 176 -11 176q0 3 -98 6q-22 0 -37 47v3q6 25 30 55l35 -2h16q66 0 111.5 -6t45.5 -10v-10 q13 -23 13 -111q10 -170 10 -232v-121q0 -98 18 -114q26 0 43 107q58 152 104 262l24 30l-9 11v1q0 8 39 13q72 6 81 -39t13 -101q27 -180 42 -321q5 -11 11 -14h9q24 0 24 34q11 25 23 110q31 149 49 539h5zM851 724v-1h21q55 -2 58 5l-3 3q-73 0 -76 -7zM32 705v-5l5 -2 q62 3 62 11q0 7 -35 7q-32 -2 -32 -11zM849 688v-4l9 -9h9l5 6v1l-2 21l52 4v1l-50 2q-23 -11 -23 -22zM76 665v-2l35 -2h37l8 2v4l-12 1h-65zM37 663v-3q5 -9 14 -9l6 5l-7 7h-13zM174 588v-23q3 -66 10 -66h4v17q0 35 -9 72h-5zM470 493l-2 -1v-11l3 -3h2q4 0 4 5 q-5 10 -7 10zM218 492v-18q0 -40 17 -157h4v21q0 101 -16 154h-5zM568 479h3v-5h-3v5zM429 406l6 -4l3 4v2l-3 3zM190 388v-12l1 -9h4v21h-5zM531 366v-2q0 -63 17 -89h2v1q-10 90 -17 90h-2zM344 154v-9l7 -2v-1q0 -14 -39 -55v-3h2q42 13 42 42q28 77 38 128v1h-5 q-22 -11 -45 -101zM690 93v-4l2 -2v-1q11 0 17 57q9 0 20 95v12h-2q-11 -12 -21 -73q0 -25 -16 -84zM225 182q0 -23 5 -23h2q5 16 5 40q-1 13 -5 13q-6 0 -7 -30zM225 110v-5q6 -11 15 -11v11l-7 7zM281 84h8l4 3v7q-12 0 -12 -10zM571 91v-21q0 -5 7 -5q25 2 25 10v7h-2 q-11 -7 -16 -7q-4 0 -7 18l-2 1h-1zM673 56v-2l7 -7h7q6 0 8 19v9h-1q-21 -6 -21 -19zM641 59q0 -3 5 -3q13 2 13 7l-2 2h-2q-13 0 -14 -6zM228 40l5 -3l6 1v7h-6z" />
<glyph unicode="x" horiz-adv-x="867" d="M152 757q172 0 172 -14q0 -7 -65 -7l-3 -4q0 -3 59 -5l21 -14l-16 -30v-1l104 -177l5 -2q15 10 72 95q23 23 24 29q11 0 35 37q0 29 21 47l4 -3q0 -12 -11 -25v-3h2q28 27 28 40v9l-2 2q0 13 33 15h37q194 -8 194 -31v-26l-5 -6h-35l39 -14l1 -8v-16l-5 -5h-10 q-53 -2 -53 -7v-2q67 -3 67 -9v-2l-11 -10l12 -7v-2l-3 -5q-70 14 -205 14q-61 -64 -115 -135q-60 -62 -60 -73q10 -28 56 -102q8 -23 72 -129q0 -19 70 -41q12 -7 28 -7l98 4l10 -18v-17q-5 -7 -5 -12q0 -7 4 -20.5t-11 -56.5q-8 -7 -17 -7q-97 10 -202 10h-17l-21 -5h-12 l-9 2v1q12 15 12 27l-2 1h-3l-14 -12h-5q-13 2 -13 67q0 5 2 33q5 4 5 10q-45 122 -85 170h-7q-19 -6 -46 -73q-26 -39 -47 -86q-13 -28 -26 -28l14 -28l14 -16l-6 -19l4 -14v-4l-28 -33v-2l2 -12l-6 -2l-43 4h-13q-34 0 -112 3.5t-78 -10.5l-2 -2h-7l2 23l-6 16q8 0 11 61 q6 8 14 10q0 16 12 16l110 19q9 4 18 23q8 0 24 35q20 25 23 25q12 1 12 5v2h-12l-12 1v4q12 10 12 23q34 51 53 71l63 91q0 5 -39 60q-84 142 -107 157q0 3 -94 9q-63 7 -63 14q5 76 5 98q14 16 89 16zM135 736v-4h16v2l-6 5h-7zM753 692v-5l21 -2h14v4l-30 3h-5zM72 689 l-4 -6v-1q0 -9 42 -13h4l21 4v3q0 5 -63 13zM250 683q2 -5 11 -5l3 4v1l-5 6h-3zM289 685v-5q8 -12 17 -12v8l-8 9h-9zM646 666v-5h2q11 0 21 14v8h-6q-8 -4 -17 -17zM168 671l-2 -2v-1l6 -6h5l2 6zM723 657v-3l21 -2l30 2v5h-34zM249 613v-3l3 -4h4v4l-4 3h-3zM567 587h4 q7 4 10 12l-2 2q-12 -6 -12 -14zM259 598v-2q0 -11 14 -21h2l3 3q0 12 -14 20h-5zM462 444v-2h2q19 16 19 28q-21 -14 -21 -26zM324 309l2 -2h1q41 50 41 60v1h-2q-28 -24 -42 -59zM291 151v-3h3l5 5v5h-1zM208 137v-3q11 0 14 10l-1 2q-11 -4 -13 -9zM616 143l-2 -2v-9 q0 -8 25 -9h17l4 4zM569 92q3 -7 10 -11h11v2q0 14 -16 14zM765 78v-2h12l9 2v3q0 4 -5 4q-16 -4 -16 -7zM630 64h46l17 2v3l-9 2h-28q-26 0 -26 -7zM68 60v-3q5 -9 16 -9l42 4v3q0 7 -47 11q-11 -3 -11 -6zM597 66v-4h7v4h-7zM275 25v-5h14v2l-4 3h-10zM763 17v-6 q17 -5 32 -5l1 2v2q0 4 -17 7h-16z" />
<glyph unicode="y" horiz-adv-x="763" d="M257 643q18 -89 -1.5 -89.5t49.5 -159.5q32 -80 49 -112q38 -98 53 -98q3 0 14 -18l2 -2h14q16 0 52 121q145 267 70 252q7 55 4 96l7 4q180 -3 180 -13q8 0 8 -72q-10 -41 -25 -41q-29 2 -11 -4h-9q-54 -92 -54 -119q-18 -67 -44 -96q-44 -126 -66 -171q-9 -10 -20 -72 l-59 -98q-44 -97 -119 -186l-67 -45q-42 -11 -66 -11q-103 0 -103 20q-11 7 -18 40q-19 17 -51 145v2q0 14 28 14q24 0 83 26q18 0 50 -128q10 -29 16 -29h11q12 4 22 33q7 0 55 72q22 46 45 82l4 16v28q-1 21 -30 63q-30 54 -44 89q-66 179 -148 325q-7 5 -13 5l-85 -3 l-4 3l-2 47l-4 60l25 10l137 13h2l24 -2zM592 607l33 -14l20 4h3l23 -2v3q0 6 -28 7h-21q-12 0 -12 -3zM704 604v-1q1 -4 9 -7l24 3v4q-1 5 -10 5h-19zM50 552l-2 -1v-11l6 -5h19q28 1 28 7q0 7 -51 10zM174 535q0 -19 20 -44h1v16q0 24 -12 31h-5zM687 559v-4l5 -5h2 q47 11 47 18v1l-4 4h-5q-41 -4 -45 -14zM664 562v-6q4 -8 16 -8l2 1v7l-9 9h-5zM655 518v-7h7v7h-7zM652 478q-51 -103 -58 -111v-8q0 -6 11 -20l-9 -28h3q21 33 55 144l3 23h-5zM454 79h7q21 0 58 133q0 3 14 15q0 12 7 16v2l-4 10q20 39 -49 -87q-4 -22 -33 -82v-7z M302 296v-2q30 -82 35 -82l2 1v2q-27 81 -35 81h-2zM547 173h2q22 0 36 105h-1q-6 0 -14 -35q-21 -49 -23 -70zM293 236v-3l4 -4h1l4 4v1l-5 6zM335 201v-2l9 -8q3 0 3 5q-3 8 -7 9h-1zM440 -11v-3h7q11 0 39 70v2q-18 0 -46 -69zM388 33v-3h1q11 0 11 10v9h-5q-7 -3 -7 -16 zM416 -77l3 -4q12 9 12 20h-3zM108 -93q9 -13 12 -28l10 -10l6 1v6q0 20 -18 35h-7zM293 -177v-2q14 0 28 34v1h-2q-18 -9 -26 -33zM136 -158v-3q0 -15 12 -23l3 4v3q0 11 -12 19h-3zM314 -224l2 -2h2q37 18 45 39q-6 5 -12 5h-5q-14 0 -20 -25zM167 -210v-4l7 -7h12l4 4 q0 5 -14 7h-9zM242 -236l25 -18h7q5 2 5 11v7q-2 5 -10 5h-13q-13 0 -14 -5zM192 -252q5 -11 19 -11h19l4 4v3q0 5 -18 7h-21z" />
<glyph unicode="z" horiz-adv-x="725" d="M607 713q0 -7 40 -10q7 -33 7 -91q0 -8 -17 -28q-30 -30 -60 -76q-129 -123 -225 -200l-71 -51q-28 -41 -84 -115q-11 -20 -11 -27l4 -3l119 -4h143q111 0 111 7l1 -17v43l7 64q87 12 103 0q28 0 25 -128q17 -85 -94 -79v4h12l21 15h-28q-14 -8 -109 -14q-70 -8 -197 -8 q-192 0 -240 22q-25 0 -25 35q-4 14 -10 118l140 117q212 141 272 221l43 51v7q-194 14 -236 14h-80v-10q0 -7 -11 -28l-5 -21v-2l2 -39l-7 -3l-51 -4q-70 13 -70 25q9 0 21 147q2 38 7 52h2l52 -10q87 8 467 17zM533 683v-3h20l24 3v6h-14q-13 0 -30 -6zM82 659v-2l3 -3h6 l3 3v2l-3 3h-6zM406 648v-3h7v3h-7zM553 643v-3l5 -6l5 2v4l-3 3h-7zM225 631v-4l13 -1h22q0 5 -29 7zM171 627v-19l4 -3h12q28 0 28 5q-39 1 -39 7v2q3 7 13 7v3l-9 2h-5zM308 599v-3l38 -2h37l23 -2l24 2h44q21 0 21 5q0 9 23 9q15 7 15 18l-8 3q-68 0 -97 -16 q-14 -4 -120 -14zM66 545l-7 4q-7 -16 -7 -34v-12l4 -3h1l6 5v12q0 15 17 19q28 42 28 76v12l-9 2q-24 0 -24 -42q0 -39 -9 -39zM119 545v-2h1q7 1 23 51l4 25l-2 5h-4q-22 -41 -22 -79zM435 463q4 0 41 30q18 0 26 19q38 27 51 51q5 0 5 8v4l-5 10q0 11 10 25v3 q-14 0 -37 -45q-91 -93 -91 -105zM115 507v-4l4 -3h15l6 5v3q0 27 -7 27q-9 0 -18 -28zM535 503v-5l4 3v2h-4zM449 423v-4h2q22 14 39 37h-4q-9 -3 -37 -33zM434 403h1l4 4h-2zM244 285v-5h4q81 54 99 100v1h-3q-37 -24 -100 -96zM179 229v-9q20 0 55 55h-2q-19 0 -53 -46z M660 184l-3 -37q0 -24 4 -39h5q3 13 5 49l-6 27h-5zM45 147q0 -9 8 -14h2q11 0 65 49v3h-2q-5 0 -58 -33q-15 -1 -15 -5zM92 121v-6h3q14 7 27 27v5h-4q-6 0 -26 -26zM664 112v-5h4v5h-4zM50 96v-9h3q4 0 6 13l-2 1h-2zM585 87v-3l4 -4h7l5 6v8l-3 4h-7q-6 -2 -6 -11zM64 52 h3q13 0 41 42l-2 2q-42 -29 -42 -44zM472 89l-2 -2v-1h5zM151 58q0 -4 6 -4l197 2l6 -2v-2l-6 -7v-1q212 5 212 14v14l-5 7q-63 -9 -404 -16zM643 61l-3 -10v-7l5 -6h9l3 4v9q-7 10 -14 10zM381 56h10v-2q-2 -5 -10 -5l-4 3zM512 28v-4h23q12 0 15 6l30 -4h7q14 9 14 18h-3 q0 -6 -55 -7zM88 31v-1l4 -4h2q9 0 10 5v6h-10z" />
<glyph unicode="{" horiz-adv-x="441" d="M326 1065l41 -8v-6q-76 -3 -76 -17q-18 0 -42 -91l-3 -44h2q35 63 35 109q5 2 24 22q47 11 84 11q11 -3 11 -16l-7 -30v-12q0 -24 7 -44v-3q-10 -16 -20 -23h-3q-8 9 -16 9h-7q-7 0 -31 -12q-18 0 -27 -25l-5 -3q-3 0 -3 5h-4l-5 -5l2 -2q0 -5 8 -5l2 -6 q-35 -213 -35 -283v-70q0 -42 -28 -49q-32 -23 -45 -61v-6q0 -8 42 -70v-12l-9 -89l14 -51v-3l-7 -48v-12q0 -109 26 -164q43 -41 119 -41h33q38 0 70 7q11 0 13 -14v-1q-14 -20 -14 -35l-13 1h-7q-45 -2 -45 -10q0 -4 5 -4l25 -1l49 3v-9q0 -7 -53 -7l-63 -1h-63l-14 -2 l-14 2h-23q-54 0 -54 17q-18 54 -35 77q-12 23 -12 40l3 4q6 0 11 -21l-2 -7q13 -6 21 -26l7 -6h5v9l-21 68q-8 21 -31 44l-4 19q0 6 7 16v2q-12 39 -12 59q0 22 19 34v1l-7 14l2 55v19l-5 24l9 11v3q0 15 -35 51q-26 32 -41 63q-26 29 -42 63q1 4 14 9v9h4l19 -2q7 0 30 33 q18 9 70 65q23 9 23 44q21 162 33 294q8 0 10 50q21 59 48 76q22 15 36 15zM393 1062l2 -2v-2l-7 -5h-6v4q2 5 11 5zM365 997q3 -8 7 -9h2q12 0 14 11l-11 3q-6 0 -12 -5zM300 990v-5l5 -2l4 5v4l-4 3zM330 978l3 -4h9l4 4v2l-4 3h-2q-10 -1 -10 -5zM295 948v-10l3 -4h6 q14 0 17 12q-7 14 -17 14h-2q-7 -3 -7 -12zM237 876l2 -35v-15l-5 -44v-12l3 -4q11 0 11 114l-2 2h-2l-5 -6h-2zM223 679l-14 -55v-1l9 -9h5q5 2 5 10v49zM220 549l1 -5h6v3l-4 4l-2 -2h-1zM179 507v-7h7q11 4 11 14l-4 4q-9 0 -14 -11zM167 434l7 -4q23 12 23 25h-4 q-26 -7 -26 -21zM141 420v-2q0 -14 9 -18h3v2q0 14 -9 21zM171 339v-3q29 -36 29 -46h4v28q0 17 -32 21h-1zM193 222v-7q1 -42 11 -42h9l3 3l-16 60h-1q-6 -1 -6 -14zM155 143v-7l5 -2l2 2v2l-5 5h-2zM151 99v-3q1 -11 6 -11l1 2v18h-1zM199 84l-2 -9v-25q0 -47 10 -57h2v7 q0 50 -7 84h-3zM155 54v-7h5l4 3l-4 4h-5zM155 12h2v-7h-6v3zM225 -76l-2 -1v-4q0 -5 21 -9l7 -5l14 5v6q0 5 -40 8zM209 -114l-2 -2v-2q0 -23 21 -28h18l3 4q0 3 -31 21q0 7 -9 7zM251 -119v-4q3 -9 39 -10q42 2 42 8q0 5 -72 9h-5z" />
<glyph unicode="|" horiz-adv-x="244" d="M86 1028l91 4q35 0 35 -21q-8 -51 -8 -140v-219l-2 -208l2 -56l12 -377l-144 -5q13 116 13 144q5 48 14 304q-9 83 -16 459zM90 1007l10 -3h14l6 5v2h-27zM137 957v-2l4 -4h5q15 12 31 18q7 10 7 16l-3 3h-4q-13 0 -24 -16q-16 -4 -16 -15zM120 862v-5l3 -4h2l3 4v5l-3 4 h-2zM116 785v-2h7v6h-3zM177 692v-1l6 -6h1v4l-3 3h-4zM179 673l-3 -28l1 -17h2q5 0 5 19v21zM111 636v-5l3 -3l4 3v7l-2 2q0 4 12 9v3h-7q-10 -6 -10 -16zM177 617l-1 -9v-1h3l4 3v7h-6zM132 460v-4h2q8 0 8 56q-6 0 -10 -52zM163 395l-3 -4l-2 -87v-117l2 -53l2 -2h10 q4 0 5 13q-3 250 -14 250zM106 188v-5q1 -10 5 -10l7 7v10q-2 18 -7 18t-5 -20z" />
<glyph unicode="}" horiz-adv-x="434" d="M208 971q49 0 64 -26v-5h-7q-12 10 -19 10h-3l-4 -3v-2q14 -32 26 -32l13 4q15 -50 15 -75v-70l-3 -142q0 -32 49 -93q0 -11 72 -94l1 -6q0 -27 -40 -84q-44 -71 -44 -105q-8 -49 -14 -138q-23 -137 -40 -191q-67 -91 -191 -91h-3q-43 0 -67 20v5l16 3v4q-9 9 -9 14 q0 11 18 33l-2 12q14 0 14 20l7 5h4l82 -12h3q52 22 67 59q0 8 17 40q9 20 25 142q0 124 10 144q-10 10 -14 22l30 39q11 15 11 40q-44 29 -49 39q-35 61 -35 89l-2 17l7 83l-9 154q0 12 16 12v3q-11 25 -23 42v9h-5q0 -7 -16 -7q-41 0 -105 -9q-14 19 -14 62v3q0 47 16 47 q7 7 135 9zM101 950v-5q39 -16 82 -16v2q0 9 -77 19h-5zM73 919v-6l3 -3q14 0 16 7v2q0 4 -12 5q-7 -3 -7 -5zM248 905v-2l3 -4h2v6h-5zM206 891v-4l3 -3l4 3l-5 4h-2zM94 871l3 -3h9q35 0 53 12v4h-4q-61 -5 -61 -13zM241 695v-2l3 -4h2l4 4v2l-4 3h-2zM251 555v-44 q0 -10 7 -12h4v10q0 25 -7 46h-4zM318 387v-6h7l7 7l-5 6h-2zM271 338v-9l5 -5h2q7 2 7 12v5l-4 4h-3zM279 308l-1 -5l1 -6h2l4 4v3l-4 4h-2zM274 282v-20h5v16l-3 4h-2zM232 -18v-1h4q8 0 22 29v6h-1q-25 -21 -25 -34zM218 -39v-7h5l2 2h2l-2 5h-7zM260 -60v-5h7l2 9l-2 2 h-2zM171 -70v-4h16q19 3 19 7l-7 7h-7q-15 0 -21 -10zM246 -84h4l7 7l-2 2v1q-9 -2 -9 -10zM50 -89v-7h11q38 1 42 10v4l-13 1h-17q-20 0 -23 -8zM162 -110v-4h4q17 2 17 7l-3 4h-2q-14 0 -16 -7zM55 -124q0 -4 72 -16q18 15 18 26q-2 5 -11 5l-79 -12v-3zM174 -133v-2h7 l6 5v2h-7z" />
<glyph unicode="~" horiz-adv-x="342" d="M22 675q8 3 20 19q22 18 28 18q9 7 16 7l20 -1l8 1q8 0 27 -8l17 -14l21 -27q13 -12 21 -34q22 -19 37 -19h1q24 5 38 14q17 8 16 26v12q1 0 -11 8q30 16 46 1q3 0 10 -28v-11q0 -18 -22 -36q-13 -14 -26 -19q-12 -11 -58 -13q-3 0 -18 4h-1q1 -2 0 -2h-1l-4 1 q-32 19 -38 30q0 11 -7 14q-7 16 -12 15q0 15 -6 18q-19 20 -46 19h-1q-13 0 -22 -5q-9 -4 -9 -22l1 -9q-5 1 -31 -16q-16 42 -16 52zM28 672q-4 -2 -4 -4q0 -11 4 -10l2 -1q3 0 3 10q-1 5 -3 5h-2zM55 647q-11 15 -11 10v-4l8 -18q5 4 5 8q0 2 -2 4zM61 630q-2 6 0 6h1 q5 -4 1 -4zM71 696q-12 -4 3 -23l-10 -2l1 -1q5 0 8 24v2h-1h-1zM64 697h2l1 1h-1h-1zM70 708h1l5 1l-2 1h-1l-3 -1v-1zM81 712v-2h15v1q-6 2 -14 2zM86 702v-1h1l2 2h-1zM127 690q5 -20 7 -20h1l-5 20l-1 1h-1zM129 705l1 -1h3v1l-2 1h-1zM133 699q0 -4 8 -7h1l3 2v1 q0 2 -11 4h-1zM137 666q1 -3 4 -3h2h1v1l-3 2h-3h-1zM145 671q7 -14 10 -14l2 1q-5 9 -11 13h-1zM157 651l-3 -4q2 -15 14 -25v1v5q-8 23 -11 23zM159 682q3 -4 5 -4h1q-3 5 -6 5v-1zM172 648q0 -3 3 -9h2l-1 4l-2 5h-2zM178 611q10 -18 25 -26l1 1q1 4 -9 10q-13 31 -16 32 l-1 -14v-3zM208 617q6 -21 12 -21h4l-1 16q-7 6 -12 6h-3v-1zM248 612h2l1 1v1h-3v-2zM249 579v-1q7 0 8 2v1l-1 1h-4zM283 624q-6 -3 -7 -6h1q5 2 9 5v1h-3zM289 592v-1q16 6 15 25q0 2 -1 2h-1zM310 686h2q2 0 4 -9l2 -2v-1q-6 0 -6 2zM317 665l1 -1h1v2h-2v-1zM324 668 q0 -4 2 -4h1v3l-2 1h-1zM324 627v-7l2 -1q1 0 2 7v1l-1 1h-1zM327 661q-2 0 -1 -6q0 -23 3 -23h1l1 15q0 9 -4 14z" />
<glyph unicode="&#xa1;" horiz-adv-x="314" d="M187 59h11q41 0 73 26l-3 85v9l11 152q0 73 -21 122v18l5 14l-8 22v16q0 21 9 34q-5 27 -11 27h-3q-6 -4 -13 -4q-60 27 -60 30l2 1q69 -5 69 -12h8l8 6q0 17 -130 27q-7 0 -13 -6q0 -8 21 -10h6v-3q0 -3 -19 -8l-2 -9q0 -5 21 -10q8 -9 8 -13v-2q0 -4 -35 -6 q-8 0 -18 -278q-6 -44 -6 -117v-32q0 -21 24 -31l-18 -19q0 -7 18 -9l1 -1v-5l-1 -1q0 -13 66 -13zM140 85v3l5 2h5l4 -2v-3l-8 -1zM225 105v2q0 12 7 14h3q8 0 10 -19q0 -6 -8 -7q-12 0 -12 10zM198 134l-3 1v1l6 5h2l5 -3v-3zM198 148l-3 1l-2 44v27q0 36 10 36h2l-2 -51 q0 -15 10 -21v-3q-12 0 -12 -32l-1 -1h-2zM122 178l-1 1v9l1 14h5v-1l2 -12q-2 -11 -7 -11zM122 215v58l2 9h6q4 -9 7 -38l-8 -28l-2 -1h-5zM219 278v9l4 3h4l2 -8v-5l-2 -8h-2q-6 2 -6 9zM124 298v6h5l5 -4l-2 -4h-3zM166 313v1l3 3h8v-6l-3 -3h-2zM169 367l3 4h2 q5 0 5 -18v-25q-7 0 -10 39zM231 334l-2 7l2 1h1l7 -4v-4h-8zM146 441l-4 7l-2 54q1 17 6 17q26 -12 26 -26v-4q0 -3 -12 -6q-4 -3 -6 -32l-2 -4l-2 -2q0 -4 -4 -4zM182 485l2 5h3l5 -3v-6h-5zM150 536v1h4q7 -2 7 -10v-2h-3q-6 0 -8 11zM216 552v4h1q27 0 30 -16v-4l-4 -3 h-3q-6 0 -24 19zM185 743q32 8 86 60v3q0 15 -87 69v1l25 3v3l-25 3q-41 0 -101 -32q-19 -19 -19 -34q0 -47 88 -70zM172 773q0 7 33 8h3v-4q0 -4 -24 -6h-8zM161 799v4h8q21 -1 21 -5l-5 -4h-11q-13 2 -13 5zM113 806l6 6l3 -3v-9l-3 -2q-6 1 -6 8zM182 821v2l3 3h5l5 -4 v-3l-3 -3h-5z" />
<glyph unicode="&#xa2;" horiz-adv-x="840" d="M349 820l85 3q33 0 33 -17q-6 -28 -16 -97q15 -5 37 -8q27 0 109 -50l18 -4h6l23 -10q35 -22 40 -33v-1q0 -6 -15 -16q-4 -18 -54 -71v-4l1 -11q-17 -2 -37 -8q-8 0 -15 15q-36 18 -36 31l15 34q0 21 -86 30l-14 1v-131l-2 -163l2 -43q1 -48 2 -90q42 10 81 28 q88 63 88 84l-5 17v1q1 5 57 53q4 0 21 -17v-3l-6 -1l-10 1h-1v-4q48 -4 48 -22q22 -24 44 -69q7 0 12 -25q17 -6 20 -12q0 -10 -17 -11q-31 -10 -55 -35q-45 38 -48 38l-72 -38q-35 -16 -65 -36l-94 -25q-3 -83 -4 -99l-102 -5q-6 62 -6 84q0 5 1 11q-32 6 -74 17 q-87 31 -96 49q-109 108 -109 169l-4 36q11 39 11 94l35 69q0 31 48 78q28 50 142 93q23 6 60 10q0 11 1 23q-6 7 3 90zM253 579q-42 -19 -66 -77q-19 -53 -31 -61l-13 8q-9 -9 -9 -25h1l17 7q4 0 4 -7l-8 -49q6 -2 25 -65l-4 -7v-3q6 -6 10 -36q11 -32 75 -59l69 -42h14 q3 59 7 155q-6 52 -1 286q-38 -6 -90 -25zM699 305v-5q0 -12 49 -82l8 -2l3 4q-19 28 -37 67l-19 18h-4zM219 651l66 22l43 16q11 2 16 4q1 1 0 6q-53 -3 -124 -42l-1 -2v-4zM404 272l-3 -3l-1 -68v-33l14 2q-2 102 -10 102zM184 165q11 -15 93 -49l27 -7h2v5 q-82 29 -101 50q-7 5 -13 5h-6q-2 0 -2 -4zM228 169q0 -9 47 -22l60 -16q0 3 1 8q-16 3 -28 13l-22 6h-1l-8 -5h-2q-9 0 -43 16h-4zM134 355q-6 -6 -6 -17q0 -6 12 -22q6 -18 19 -18v2q0 17 -23 55h-2zM136 218v-2q0 -16 41 -34h11v1q0 13 -46 35h-6zM397 764v-1l3 -3h5 q14 9 29 14q7 7 7 12l-3 2h-4q-12 0 -22 -12q-15 -3 -15 -12zM705 194v-5l4 -3h7q5 0 20 15v1q0 3 -22 9q-9 0 -9 -17zM143 516l-22 -34v-5l5 -5h2q8 0 20 36v8h-5zM95 374v-3q0 -11 12 -13q7 0 2 35l-1 6h-4q-5 0 -9 -25zM400 89l1 -20l2 -2h10q3 0 4 10v16l-15 -4h-2z M511 175l2 -1h1q32 11 32 23h-1q-36 -14 -36 -22h2zM491 134h2q27 7 46 22v2h-2q-12 0 -46 -24zM294 636v-4h5q29 4 29 11l-3 3h-3q-28 -7 -28 -10zM672 283v-1q10 -24 17 -24l3 3v4q-6 18 -20 18zM375 323v-3h2q8 0 8 43q-6 0 -10 -40zM456 657v-2q0 -6 26 -7l4 3 q0 6 -15 6h-15zM141 539v-2l2 -2h2q15 9 15 18v2h-4q-15 -7 -15 -16zM419 489l-3 -22l1 -13h2q5 0 5 15v16zM181 581h4q17 9 17 18q-14 0 -21 -18zM636 592v-1l8 -1h1l7 5v6l-3 2q-13 0 -13 -11zM159 245v-5q5 -11 14 -11h2v5q-6 11 -16 11zM451 632v-2q0 -4 35 -6v2l-24 6 h-11zM129 269v-5q8 -11 17 -11q0 8 -13 16h-4zM589 229h3q8 2 17 14v3q-13 0 -20 -17zM409 94v4l-1 2l5 4l-5 5h-8v-14q4 -1 9 -1zM353 803l9 -2h13l6 4v1h-25zM356 460v-4l2 -2l4 2v6l-2 1q0 3 11 7v3h-6q-9 -5 -9 -13zM455 151v-2h2q12 0 15 6v1q-17 -1 -17 -5zM466 692 l-2 -2v-2l4 -3h6v5zM417 445l-1 -7h3l4 2v5h-6zM194 640v-3h4l6 6v1h-5zM246 610v-2h6l5 5l-4 2zM497 648v-2l4 -5h4v3l-5 4h-3zM360 576v-1h7v4h-3zM566 618v-4h3l3 3v1h-6zM417 504v-1l6 -5h1v4l-3 2h-4zM343 657v-5q1 1 0 5z" />
<glyph unicode="&#xa3;" horiz-adv-x="717" d="M348 525q8 0 15 -108h2q0 -15 -87 -19q-39 -9 -71 -15l-2 -223v-23q0 -12 79 -12h266l45 -3q6 0 14 77q4 19 12 19q81 -2 81 -16q-5 -12 -16 -12v-4q14 -13 14 -24q0 -28 -10 -84v-21l1 -7q-7 -15 -7 -28q-3 0 -12 -18q-29 -10 -59 -10h-6l-120 10h-6l-273 -10l-192 17 q-11 9 -11 18q11 82 35 82q6 6 55 11q13 35 7 244q-17 -1 -28 -1v3q0 6 28 12q-1 8 -1 16q-38 -11 -38 -28l-10 -5q-48 0 -48 98q0 24 92 36q0 13 -1 28q7 73 14 289v14q0 21 -30 21l-12 2v5q24 12 40 12v6l-33 3h-19v-5q5 0 5 -4q-3 -7 -12 -7h-6q-14 8 -14 32v5 q0 31 18 39q4 0 10 14l16 5q111 0 437 -66l24 -2l18 2l3 -7l-1 -81q-3 -8 -11 -8l-17 15l-37 9q-3 -17 5 -17v-2q0 -5 -279 33l-7 -271v-28v-29l133 21h7zM184 18v-3q0 -10 65 -12q43 0 71 8v4q-59 5 -105 5h-1zM674 165q-12 -26 -12 -33l-11 -58v-5l5 -5h4q17 8 21 79 q-2 22 -5 22h-2zM163 80v-6q36 -5 250 -15l2 1v2l-245 18h-7zM572 31v-2q11 -12 28 -12h4q6 0 12 7q9 -7 16 -7h12q13 0 16 7v1q0 7 -44 7h-23zM154 160v-5q-7 -19 -7 -30q0 -20 11 -24h5q5 0 5 40v7q0 9 -7 12h-7zM150 898q7 -10 30 -10h10l59 -11q-46 18 -3 15l-85 11 q-11 -1 -11 -5zM270 417h1q70 -1 70 7v2q-2 4 -9 8h-2q-45 0 -60 -15v-2zM529 113v-4q0 -4 19 -7q0 -10 24 -12l27 4v5q-24 0 -56 14h-14zM151 512q6 -13 10 -14h3q8 3 8 48zM494 862v-4l9 -1v-2l-4 -4l2 -10q23 0 23 16q-10 8 -21 8h-5zM176 842l-1 -2v-19q2 -19 8 -19l7 7 v10q-3 23 -14 23zM242 412v2h-14l-21 -2v-14q35 9 35 14zM553 38v-2h4q16 0 28 12q-2 5 -11 5q-6 0 -21 -15zM284 461v-4h4q45 2 49 12v4l-7 2q-17 -6 -17 -12l-23 -5l-3 3h-3zM469 99v-2q1 -5 14 -5h30v5l-9 2h-35zM28 461v-18l4 -3h1q5 0 7 17v6l-3 3h-4zM490 52v-2l12 -2 h21v2q-1 5 -10 5h-19zM175 870v-3l3 -4h9l9 2v5l-9 2h-4zM364 13v-5h9l16 3v4h-16zM224 478v-3h2q13 0 16 7v2h-7q-11 -2 -11 -6zM32 78q12 0 12 10l-2 2h-2q-8 -2 -8 -12zM304 501v-4h12l9 2v4h-12zM26 66v-4l4 -3h5l4 3v2l-4 3zM70 461v-2h7l4 4v3h-6zM64 905v-2h7l4 4v2 h-7zM28 424v-3h4l3 3v4h-3zM152 15v-4h4v4h-4zM291 457l-1 1l-2 -1h3z" />
<glyph unicode="&#xa4;" horiz-adv-x="909" d="M344 939q24 -6 24 -19l-9 -30v-4l13 -17q0 -26 -35 -30q-16 0 -16 -5l30 -39q11 6 23 11q86 31 141 31l39 -10h9q-8 3 -8 7q11 18 11 28v7l-7 9v1l14 32l14 3h3l25 -5h135q60 0 98 -19l1 -7q0 -62 -17 -70q-15 -19 -75 -19q-20 -2 -20 -7q0 -4 14 -6v-3q0 -3 -24 -12 q0 -3 -17 -32l3 -2q70 -60 70 -91h-2q-11 19 -23 19h-1q-4 0 -4 -5q5 -17 25 -52h3q3 0 7 14h2q3 -1 10 -41l11 -28l-2 -17l4 -51q-7 -22 -18 -91q-5 -25 -112 -173q45 -85 69 -85q57 0 112 -38l-2 -21l-7 -16q0 -31 -5 -31l-37 1q-6 0 -33 -14l-54 -3q-81 0 -138 23l-13 29 l-10 11l10 -2l-21 28q0 15 52 33l2 2v4l-5 12q-23 -10 -46 -10q-54 -7 -110 -7h-26q-23 0 -106 33l-20 -31q-18 -14 -18 -19q37 -15 37 -42q-9 -56 -26 -56q-7 -20 -34 -20q-74 14 -91 14l-57 -1q-29 0 -37 50q0 21 17 39q1 7 27 31h1q17 -21 25 -21q42 14 42 42l59 76 q-69 74 -69 119q-18 38 -30 70q0 16 38 119q0 63 30 89q27 58 59 99q-5 9 -10 20q-43 70 -74 70q-54 0 -54 23q0 28 -5 28q30 56 93 56q100 19 126 19zM379 669l-5 -5q3 -5 5 -4q-32 -34 -46 -67q-44 -45 -44 -62q-12 -50 -19 -134v-9q16 -34 42 -80q0 -15 53 -41l94 -43 l25 -4q58 13 91 26l50 42q77 84 75 140v12q-8 24 -8 74q0 35 5 61q0 7 -53 49q-40 54 -82 66h-16q-162 -6 -162 -26l-2 -2q2 4 3 14q-6 -3 -6 -7zM421 703v-2l3 -3h19l34 14l59 13v4l-26 3q-94 -11 -94 -24v-2l3 -3h2zM389 783l11 5l7 -1q94 9 94 17v2l-22 3q-64 0 -119 -32 l4 -12q12 8 25 18zM192 358v-10q2 -36 17 -48q6 -7 14 -10l2 2v2q-11 60 -21 64q-4 5 -7 5zM414 755v-5q107 11 107 16l-11 3h-2q-65 0 -94 -14zM531 807q5 -17 30 -17l15 -2l2 2v5q0 17 -28 19q-19 -1 -19 -7zM197 353v-10q1 -30 12 -43q4 -3 9 -5l2 2v2q-8 46 -16 59h-2z M771 435q2 -43 8 -44h2q0 14 12 33v4l-15 21h-2q-4 0 -5 -14zM421 703h17l39 9l38 15q-94 -11 -94 -24zM507 171v-4q0 -4 21 -7q24 2 24 7v4q-3 7 -10 10h-12q-15 0 -23 -10zM679 669v-1q8 -18 41 -30h5l3 3v2q-22 26 -43 26h-6zM653 711v-1q6 -18 40 -35h4l3 3v2 q-6 8 -47 31zM594 860v-7q24 -14 37 -14h15v4q-1 4 -52 17zM557 764l-2 -2v-2q25 -19 40 -19l2 4q-22 19 -40 19zM95 22v-2h35l4 4v1q-2 6 -14 6h-7q-14 0 -18 -9zM372 204v-3q0 -9 40 -9l2 2v1q-19 9 -42 9zM290 634v-8h3q19 15 19 25q-1 1 -2 3h-5q-10 -8 -15 -20z M608 692q9 -12 19 -12l3 3v2q0 12 -12 12q-10 -1 -10 -5zM813 61l2 -1q33 3 33 8l-4 4h-7q-24 -4 -24 -11zM342 724v3q-3 -1 -5 -2q1 -3 1 -6q-14 -7 -14 -18q12 0 23 18v3q-4 -1 -8 -3q2 3 3 5zM608 77v-2l9 -1h14q9 0 10 5v2l-8 1h-11q-13 0 -14 -5zM616 800 q-16 22 -24 22q-14 1 -23 3q24 -11 47 -25zM588 61v-5l5 -5h2q12 0 12 12v2h-16zM738 333l1 -1q9 0 18 22v2h-4q-8 0 -15 -23zM246 32v-3q3 -9 12 -9q7 0 10 7l-5 5h-17zM206 578q3 0 6 2q-1 -3 -1 -7q8 0 12 9v4q-4 0 -7 -2q1 2 2 3v4q-12 0 -12 -13zM677 42v-3q2 -6 10 -6 l9 2v4l-3 3h-16zM645 42l4 -3h2q12 0 14 5v3h-9q-11 -1 -11 -5zM344 185v-2h18l3 4l-3 3h-4q-13 0 -14 -5zM198 74v-5h13l12 2v3h-25zM606 107v-2l4 -3h9l3 3v2l-3 3h-9zM680 757l7 7v5h-2q-8 0 -13 -6zM790 529v-7l3 -3l6 5v5l-4 4h-2zM582 162v-2h2q7 3 12 6l-3 7 q-9 -5 -11 -11zM160 424q2 -14 5 -14l2 2v7l-2 9h-1zM258 827v-9l5 -5h2v3q0 9 -5 11h-2zM727 100v-4l4 -3h7v3l-6 6zM234 626h1q6 1 6 10h-2q-5 -2 -5 -10zM237 820v-4l3 -3h6v2l-6 5h-3zM249 262v-2q16 -1 6 6h-2zM543 766v-4l2 -2q5 3 11 6h-13zM323 663v-6h3l4 4v2h-7z M242 447v-1h4l3 3v4h-2zM237 452v-1h4l3 3v4h-2zM244 267v-2q4 -7 6 6h-2zM277 165v-3h2l5 5v2h-3zM734 839v-3h5v3h-5zM186 867v-3h5v3h-5zM715 643h5l3 3v2zM349 197v2l-2 2q-2 -2 -3 -4h5zM701 885v-2h5v2h-5zM274 222v-2h1q2 0 4 1q-1 0 -1 1h-4zM212 580q2 1 4 4 q-3 -1 -4 -4zM382 662l-3 -2q2 0 3 2zM338 719h1h-1z" />
<glyph unicode="&#xa5;" horiz-adv-x="683" d="M440 463l17 -4l4 -2h1q5 0 8 1l33 3l-1 -1l12 -4h9l1 3l-12 3l70 7l7 -2q8 -2 26 -108q-58 -5 -147 -16v-38h142l7 -1q8 -1 -2 -110h2q-2 -10 -147 -8q5 -83 17 -83h2l39 -7l26 -3l3 -9l-1 -42v-11l12 -14v-5q-23 -33 -128 -33q-149 3 -149 16l-3 35l2 47q0 19 43 19 q37 2 37 7v2q-7 27 -8 85q-132 -6 -172 1q-44 10 -29 104q25 19 131 14l12 -2l63 -1l2 29q-122 -4 -161 6l1 3q3 12 120 -4q5 8 10 15q-132 22 -140 -8l-26 -2q-48 68 -6 106q6 26 114 10q1 2 15 0l25 -12l9 -3l-138 270q0 5 -60 89q-7 5 -16 5l-63 -2q-22 4 -22 13l10 14 q0 4 -12 5l-5 -2v-9q0 -9 -11 -14q-10 0 -14 28q-17 20 -23 20v7q14 5 14 14l-10 8q0 20 35 23h28q62 0 198 21l14 2q7 -3 7 -5q-4 -17 -7 -88q-3 -10 -32 -10q25 -52 98 -144l30 -63q17 -29 51 -58q20 16 63 79q36 53 89 119q23 33 23 49l-6 4h-28q-31 0 -36 75q0 17 36 17 q0 16 74 16h80q77 0 77 -12q4 -9 4 -32v-17q0 -37 -16 -37q-8 0 -14 -21h-3l-12 10q-116 -140 -163 -202q-106 -122 -111 -146v-6q-18 1 -19 -3zM310 202q47 3 52 8q1 1 0 3l-12 2q-150 14 -148 -15q26 5 108 2zM668 817q-65 -52 -65 -63q-5 -6 -5 -12v-2h1q7 1 16 19 q36 25 58 43l-4 15h-1zM467 384q51 -10 52 -5l1 2q0 5 -7 11h-1q-20 5 -45 7v-15zM470 203q123 -3 124 2v2q0 4 -7 10l-78 -1q-18 3 -40 3q0 -8 1 -16zM465 428l12 -3q44 -10 50 -1l1 3l-6 4q-40 4 -57 4v-7zM458 611v-6h1q51 63 51 76h-2q-17 -17 -50 -70zM469 246l2 -1 q121 -4 127 5v4l-6 3q-106 -1 -124 -2q1 -5 1 -9zM289 278l-1 -5l2 -1q29 -4 47 5v2l-4 1q-15 2 -44 -2zM262 670l-2 -2v-12l7 -7h10q6 0 6 7q0 8 -21 14zM332 33v-2l5 -5h12q18 2 18 7v2l-4 3h-21q-10 -1 -10 -5zM419 549v-1q5 0 30 36v6h-4q-26 -28 -26 -41zM167 873v-2h2 l10 2l32 -7l5 7q0 5 -19 5h-2q-28 0 -28 -5zM315 418l-1 -5l2 -1q22 -6 39 -2q-3 3 -6 7q-14 2 -34 1zM480 26v-2l25 -3q19 0 19 5l-10 4h-30zM189 445l-5 -17l3 -4h1q5 -1 12 15l1 5l-3 4l-3 1zM184 291l-3 -17l3 -4h1q5 -1 10 16l1 5l-3 4l-3 1zM405 485q0 -10 9 -14l9 1 v2q0 8 -11 14h-3zM549 847l5 -5h3q10 0 14 7v5h-10q-10 0 -12 -7zM164 810l-2 -2q6 -23 12 -24h4v2q0 12 -14 24zM366 470l-1 -4h1q13 -3 17 3l1 2l-7 1q-10 2 -11 -2zM382 175h6v16h-7v-7zM494 286l-1 -3l12 -2l85 1l1 3l-88 2zM462 457l8 1q2 1 4 4v1l-3 1q-7 1 -12 2v-1 q1 -2 3 -8zM356 280v-4h2q4 -1 7 -1v8q-8 0 -9 -3zM229 435v-2l7 -2l4 3l1 3l-5 2zM202 286l-1 -1l7 -1l4 2l1 4l-5 1zM729 856v-4h2l5 2v5h-4zM178 255l-1 -3l4 -1l4 3v4h-3zM179 410l-1 -4h4l4 2l1 3l-3 1zM155 826v-4l3 -3h2v7h-5zM290 647v-1l5 -6h2v4l-4 3h-3zM503 463 v-2l9 1z" />
<glyph unicode="&#xa6;" horiz-adv-x="244" d="M201 532l1 -88l2 -56l12 -377l-144 -5q13 116 13 144q5 48 1 382h115zM86 589q1 100 -3 324l3 115l91 4q35 0 35 -21q-8 -51 -8 -140v-219v-68zM90 1007l10 -3h14l6 5v2h-27zM137 957v-2l4 -4h5q15 12 31 18q7 10 7 16l-3 3h-4q-13 0 -24 -16q-16 -4 -16 -15zM120 862v-5 l3 -4h2l3 4v5l-3 4h-2zM116 785v-2h7v6h-3zM177 692v-1l6 -6h1v4l-3 3h-4zM179 673l-3 -28l1 -17h2q5 0 5 19v21zM111 636v-5l3 -3l4 3v7l-2 2q0 4 12 9v3h-7q-10 -6 -10 -16zM177 617l-1 -9v-1h3l4 3v7h-6zM132 460v-4h2q8 0 7 31q-7 0 -9 -27zM163 395l-3 -4l-2 -87v-117 l2 -53l2 -2h10q4 0 5 13q-3 250 -14 250zM106 188v-5q1 -10 5 -10l7 7v10q-2 18 -7 18t-5 -20z" />
<glyph unicode="&#xa7;" horiz-adv-x="750" d="M337 954q31 0 170 -36q68 -31 78 -31q9 11 9 33v1l-2 9q0 15 22 15q14 10 38 10q35 0 35 -7l10 -111v-34q0 -42 -11 -51q-11 -10 -16 -10q-64 5 -64 18q-10 29 -40 41q-110 56 -158 56l-32 2q-57 0 -68 -22q-14 -20 -14 -51v-1q0 -64 66 -107q63 -26 95 -25t115 -56.5 t101 -78.5l4 -6v-3q0 -3 -7 -3v-1q16 -33 16 -42q0 -106 -33 -133q-13 -31 -62 -62q-5 -5 -10 -9q16 -15 34 -36l4 -6v-3q0 -3 -7 -3q16 -35 16 -43q0 -106 -33 -134q-13 -30 -62 -62q-56 -50 -111 -50h-39q-91 14 -91 24q-51 37 -60 37q-56 27 -78 56h-4q-15 -40 -23 -40 q-72 10 -72 25q-6 16 -9 102l12 73q0 40 10 40l72 9q8 0 15 -65l34 -60q0 -4 101 -71q26 -29 72 -29h40q59 0 82 40q28 30 39 86v3q0 27 -37 66q-3 -1 -6 -1h-39q-90 15 -90 24q-51 37 -61 37l-91 94q-112 157 4 236q36 20 51 34l-34 30q-28 45 -30 64l1 19l-4 46 q0 16 20 39q0 14 55 64q51 28 60 45zM540 358q28 30 39 86v3v3q-31 5 -31 14q-10 29 -40 42q-111 56 -159 56l-31 2q-57 0 -68 -23q-14 -19 -14 -50v-1q0 -64 66 -107q63 -27 87.5 -32.5t76.5 -20.5q4 -7 10 -11q45 5 64 39zM412 635q0 -2 9 -5q13 -4 28 -7q2 -1 5 -3 q16 -3 39 -9l14 -1h4v1q-35 26 -84 32q-15 -6 -15 -8zM357 336q13 -5 68 -18h25q-35 24 -82 29q-13 -5 -14 -7q2 -2 3 -4zM345 -56q16 -9 43 -9h2l50 2v3q-3 8 -79 8q-16 0 -16 -4zM332 936v-4q0 -5 14 -8q32 2 32 8v4q0 9 -34 9q-7 0 -12 -9zM404 240q16 -9 43 -9h1l22 1 q-4 3 -7 6t-5 6h-39q-15 0 -15 -4zM629 939v-3q12 -21 22 -21q9 2 15 12v5q0 7 -37 7zM61 107l2 -29h1q8 6 8 56v9l-3 3h-2q-4 0 -6 -39zM363 886q6 -6 12 -6q12 0 24 13l-6 6h-13q-17 0 -17 -13zM516 218v-6q0 -12 20 -28h6v9q0 15 -24 25h-2zM257 834l1 -2h4q26 19 26 30 l-1 1h-2q-13 0 -28 -28v-1zM305 590q6 -6 11 -6q11 0 21 10l-17 9q-15 -1 -15 -13zM201 537h3q26 18 26 30l-2 1h-1q-13 0 -28 -27q1 -1 2 -4zM586 296v-2q0 -3 5 -3q14 0 37 38h-3zM349 665l-2 -1v-2q13 -14 38 -23l6 -2l2 4q0 6 -44 24zM528 1v-2q0 -3 4 -3q15 0 38 37h-3 zM254 693v-3q8 -25 15 -25h5l6 6v1q-15 21 -25 21h-1zM618 767q7 -6 32 -6l23 2v4q-14 3 -42 3h-10zM354 571q0 -9 40 -10v3q0 6 -34 11h-2zM412 866q0 -8 40 -10v3q0 6 -34 12h-2zM148 87v-5q17 -22 33 -22h1v3q-23 24 -31 24h-3zM320 278v-1q0 -6 30 -12l5 -4h5 q-2 14 -7 14zM262 -17v-2q0 -5 30 -12l4 -4h6q-3 15 -7 15zM533 843l-2 -2v-1q36 -22 45 -22v1q0 9 -43 24zM475 547l-2 -1v-2q35 -22 45 -22v1q0 9 -43 24zM588 852q15 -11 37 -17l1 2v1q0 8 -34 16h-1zM552 240q13 -10 22 -10h1l3 3q-6 8 -13 15q-7 -4 -13 -8zM205 809 q1 -18 6 -32h4v2l-3 33h-4zM452 -52v-2l3 -3h4q21 1 21 5l-2 3h-23zM652 413v-7l3 -3h3q8 2 8 19h-5zM594 117v-7l3 -3h3q7 2 7 19h-4zM505 43v-4h3q9 7 17 21l-3 3q-9 -5 -17 -20zM563 339v-4h3q9 7 17 20l-3 3q-8 -4 -17 -19zM311 693l-1 -2v-7l7 -7h3l3 3v6q-4 7 -12 7z M206 382v-5q4 -4 7 -8h3l5 6v1q-8 6 -12 6h-3zM284 702v-2l3 -3h11v3q-1 5 -11 5zM559 472q5 -4 16 -5l-4 8h-9zM519 887v-1q0 -4 14 -6h3v1q0 4 -17 6zM215 840l-3 -9v-3l3 -3l4 12v1zM320 -49v-1l5 -4h9v1q-2 4 -12 4h-2zM379 247v-1l4 -5h9v2q-1 4 -12 4h-1zM93 46v-4 l4 -5h2l3 3v2l-5 4h-4zM532 126v-6l4 -1l3 3l-1 4h-6zM591 422v-6l4 -1l3 3l-2 4h-5zM100 202v-5l3 -3l4 3l-1 5h-6zM667 899l3 -3h4v6h-4zM235 797v-3h3l4 4v3h-3zM232 697v-1l3 -3h3v4l-3 3zM156 544l28 -44l-24 39l1 2v2zM190 555l1 -2v-1l4 1v5h-3zM248 850l1 -1v-2l5 2 v4h-3zM386 263v-5h4v3l-3 2h-1zM328 -32v-6h4v3l-3 3h-1zM313 632l-1 -1q1 0 1 1z" />
<glyph unicode="&#xa8;" horiz-adv-x="853" d="M217 860q42 -7 59 -23q6 -12 6 -24v-20q0 -56 -65 -108l-18 -7q-29 0 -56 79v7q0 60 20 73q39 23 54 23zM171 799q4 -37 11 -37q4 2 12 49l5 9v5h-1q-27 -9 -27 -26zM208 790v-4q0 -13 7 -15h2q7 0 16 29v7l-4 4h-3q-16 0 -18 -21zM250 771l2 -2h5l2 9v3h-2q-3 0 -7 -10z M178 737q0 -8 9 -12h16q15 0 28 16v2zM459 853q42 -7 60 -23q5 -12 5 -24v-20q0 -56 -65 -108l-17 -7q-29 0 -56 79v7q0 60 19 73q39 23 54 23zM414 792q4 -37 10 -37q4 2 13 49l5 9v5h-2q-26 -9 -26 -26zM451 783v-4q0 -13 7 -15h1q8 0 16 29v7l-3 4h-4q-16 0 -17 -21z M493 764l1 -2h6l1 9v3h-1q-4 0 -7 -10zM421 730q0 -8 9 -12h15q16 0 28 16v2z" />
<glyph unicode="&#xa9;" horiz-adv-x="1202" d="M643 814q12 -9 42 -14q21 0 88 -47l14 -4h6l18 -8q28 -21 32 -31v-1q0 -6 -12 -16q-3 -15 -44 -66v-3l1 -10q-14 -2 -30 -8q-7 0 -12 14q-29 17 -29 29l12 32q0 20 -69 28l-68 4q-36 0 -97 -27q-34 -17 -53 -71q-16 -50 -25 -57l-10 7q-8 -8 -8 -22h1l13 6q3 0 4 -6 l-6 -46q4 -3 20 -61l-4 -6v-4q5 -5 8 -33q9 -30 61 -55l55 -39q92 0 164 39q71 60 71 79l-4 15v2q1 4 47 48q3 0 17 -15v-3l-6 -1l-7 1h-2v-4q40 -3 40 -20q17 -23 35 -65q6 0 10 -22q14 -7 16 -12q0 -9 -13 -10q-26 -9 -45 -33q-36 35 -39 35l-58 -35q-29 -15 -53 -33 l-108 -34l-17 -2q-35 0 -99 19q-71 29 -78 46q-89 101 -89 158l-2 34q8 36 8 87l28 65q0 28 40 72q21 46 115 86q37 12 121 17v1zM468 753l54 21l34 15q20 4 20 7v2q-45 0 -107 -40l-1 -1v-4zM667 791l-1 -1v-3l2 -2h6v5zM568 759v-5l13 -2q60 0 69 10q0 3 -17 4 q-51 -3 -65 -7zM659 759v-2q0 -5 21 -6l3 2q0 6 -12 6h-12zM692 751v-3l4 -4h3v3l-4 4h-3zM528 739v-3h4q24 4 24 10l-3 2h-2q-23 -6 -23 -9zM448 743v-2h2l6 5v1h-4zM586 729l11 -3h1q34 2 36 8v3h-12q-36 0 -36 -8zM655 736v-2q0 -4 28 -6v2l-19 6h-9zM748 723v-4h2l3 2v2 h-5zM490 715v-1h4l4 4l-3 2zM804 699v-2l7 -1h1l5 5v5l-2 3q-11 0 -11 -10zM437 688h3q14 9 14 17q-11 0 -17 -17zM404 649v-1l3 -3h1q12 9 12 17v2h-3q-13 -7 -13 -15zM407 627l-19 -31v-5l4 -4h3q5 0 16 33v7h-4zM368 496v-4q0 -10 9 -11q6 0 2 32l-1 5h-3q-4 0 -7 -22z M399 478q-5 -5 -5 -16q0 -6 9 -21q6 -16 16 -16v2q0 16 -18 51h-2zM855 431v-4q0 -12 40 -77l6 -1l3 4q-16 25 -30 62l-15 16h-4zM834 411v-1q8 -22 13 -22l3 3v3q-5 17 -16 17zM396 398v-5q5 -10 13 -10q0 7 -11 15h-2zM766 360h3q6 2 13 14v2q-10 0 -16 -16zM419 375v-5 q4 -9 12 -9h2v4q-6 10 -14 10zM401 350v-1q0 -15 33 -32h9v1q0 12 -37 32h-5zM860 328v-5l3 -2h6q4 0 16 14v1q0 3 -18 7q-7 0 -7 -15zM703 310l2 -1h1q26 11 26 22h-1q-29 -14 -29 -21h1zM439 302q9 -15 75 -46l23 -6h1v4q-67 27 -82 46q-5 5 -10 5h-4q-3 0 -3 -3zM475 305 v-1q0 -8 38 -20l52 -15h10l4 3v3h-1q-22 0 -39 14l-17 6h-1l-7 -5h-1q-7 0 -34 15h-4zM687 272h2q22 7 37 21v1h-2q-10 0 -37 -22zM658 288v-1h2q9 0 11 5v1q-13 -2 -13 -5zM600 243v-1q0 -5 21 -6v3l-1 2l4 3l-4 4h-7q-13 -1 -13 -5zM638 1030q179 0 335 -71l37 -116 q38 -30 75 -89q42 -35 79 -149l2 -40q0 -36 -52 -86v-9q0 -20 23 -20l-3 -59v-71q0 -50 -92 -147q-19 -27 -36.5 -66t-187.5 -69q-107 -46 -207 -46q-321 -27 -399 127v6l6 4h10l10 -4h10v4q-5 18 -30 18h-13l-3 -8q-34 7 -66 77q-13 7 -26 33q-22 72 -69 332l74 190 q0 17 71 119q107 140 452 140zM588 1014v-4q0 -9 70 -14h39v6q-10 12 -53 12h-56zM759 998l37 -6h13l6 4q0 6 -43 6h-6zM868 980v-1q69 -50 118 -58h3v4q-70 55 -118 55h-3zM815 964q17 -15 40 -15h16v4q0 8 -40 15h-9zM667 967v-3q27 -11 102 -17l3 2v4q0 7 -68 14h-37z M187 584l10 -12l-7 -24v-9l28 -188q33 -126 131 -183t176 -57q120 0 303 47q158 59 158 121q43 81 70 211v79q0 115 -103 201q0 14 -65 84q-103 75 -182 75l-111 16h-23q-147 0 -188 -94q-55 -27 -98 -69q-27 0 -56 -78zM243 873v-4q10 0 43 25v8h-4q-11 0 -39 -29zM183 849 h11l9 6v4q-20 0 -20 -10zM253 803h13q23 9 29 18v4h-22q-20 -6 -20 -22zM990 839v-2q0 -29 42 -105q29 -2 76 -72q1 -8 10 -8l10 5v7q-16 40 -118 151q-10 24 -20 24zM1118 616v-2l17 -29q0 -8 -24 -36v-2q0 -12 20 -20h6q-4 1 3 48q-15 29 -16 41h-6zM73 594h2l7 4zM66 566 l-7 -24l25 43q14 0 -11 -23v4h-7zM153 547l68 -232h6v2q-44 30 -60 178q-14 10 -33 63zM105 339v-6h7v6h-7zM976 187v-2h11q29 0 68 81v2l-6 6q-16 0 -73 -87zM123 251v-4q19 -5 50 -57l22 -9h17v1q-47 65 -62 81h-4q-15 -3 -23 -12zM291 171v-4q54 -130 158 -94q30 2 30 6 q-2 5 -81 -12zM212 178l-4 -5q4 -8 20 -8h4l6 4v4l-10 5h-16zM479 67q0 -10 46 -14h23q26 1 26 16h26q57 0 228 38v1l-4 3h-20l-112 -16q-62 0 -210 -26zM604 32v-3l7 -4h39q128 18 128 26q46 9 56 22v4h-4q-154 -22 -226 -45zM267 106q0 -14 24 -38l4 2q-2 36 -24 36h-4z M420 40v-8q92 -26 119 -26l26 22v8q-89 4 -145 4z" />
<glyph unicode="&#xaa;" horiz-adv-x="385" d="M184 757q11 0 43 -10q38 -39 45 -60q13 -15 23 -64q10 -11 10 -50l1 -17l-3 -70q0 -20 24 -52q22 -23 29 -23v-1q0 -8 -23 -27q-17 -18 -22 -18q-10 1 -52 42q-38 -15 -78 -34q-25 -8 -57 -8h-3q-35 7 -60 30q-4 4 -18 35q-12 15 -12 38v20q0 19 10 36q9 28 29 55 q10 13 21 17q34 19 67 19l29 1h3q26 0 36 -8h4q2 0 2 4q-6 31 -23 63q-14 25 -53 25l-26 4q-35 -7 -35 -15q-13 -18 -16 -47q-1 -4 -23 -4l-5 -1q-2 0 -6 -12q-18 3 -18 8q2 6 5 51q10 32 49 59q19 12 22 12zM174 741l3 -3h3l1 2l-2 3h-3zM224 737v-1q5 -6 9 -6h1v2 q-5 5 -9 5h-1zM121 734v-2q1 -3 7 -3t16 5v2h-3q-13 0 -20 -2zM63 710h1q5 0 17 13v3h-1q-6 0 -17 -15v-1zM150 714l2 -4h8l2 2v1l-3 3h-6zM56 658v-11q3 1 3 5v6l-2 2zM293 604v-2q0 -6 2 -6l1 4q-1 4 -2 4h-1zM276 577v-2q3 -10 6 -10h1q0 9 -4 14h-1zM81 571v-3h1 q5 0 7 5v2h-1zM81 508q4 -42 11 -42l6 -9v-1l-6 1v-2q14 -17 51 -34q5 -3 13 -4q13 0 90 41q5 3 5 8v4q-6 28 -10 67h-1q0 8 -14 13q-48 15 -66 15q-48 -12 -68 -36q-11 -13 -11 -21zM275 555v-2h1v1zM275 540v-3l2 -1l2 1v3h-4zM257 521l2 -3l2 1v2l-2 1zM280 521v-1 q1 -26 5 -26l1 1v1q0 14 -4 25h-2zM255 497v-3l3 -3h1l2 3v3l-2 2h-2zM310 433v-5q2 -9 6 -9h2v2q-3 12 -7 12h-1zM71 429v-1l1 -2h4v2l-3 2h-1zM289 419q2 -5 6 -6l3 3v1l-3 4h-4zM197 411v-1h3q9 0 24 8v1h-2q-23 -3 -25 -8zM304 407v-2l3 -3h3l1 2v1l-3 4h-2zM143 402 q1 -4 6 -4q6 1 6 4l-1 2h-9zM72 392v-1q4 -7 33 -16q11 -5 26 -5q0 3 -25 9q-16 6 -29 15h-3z" />
<glyph unicode="&#xab;" horiz-adv-x="566" d="M291 554q23 -19 31 -19v-7q-5 0 -5 -4l5 -5h4l7 2q4 0 8 -9q0 -24 -129 -136q-18 -10 -18 -21v-4q0 -16 35 -51q54 -68 121 -143v-4q-12 0 -75 -24q-24 0 -93 87q-117 125 -117 142l-4 4v3l2 2v2q20 -11 28 -11l25 42v4l-41 -7l-1 1v2q51 48 148 116q42 35 69 38z M270 467v-4q17 0 31 32v7h-3q-16 0 -28 -35zM236 474v-6h6q19 3 19 9v2l-4 3h-7q-9 0 -14 -8zM149 447h2q22 6 22 21q-14 0 -24 -21zM196 418l2 -2h2q13 3 31 28v5h-7q-28 -21 -28 -31zM250 208q9 -21 20 -28l3 3v9q-7 12 -19 19zM261 160v-7q4 -10 14 -10h2v2q0 10 -13 15 h-3zM482 542q23 -19 31 -19v-7q-5 0 -5 -4l5 -5h4l7 2q4 0 8 -9q0 -24 -129 -136q-18 -10 -18 -21v-4q0 -16 35 -51q54 -68 121 -143v-4q-12 0 -75 -24q-24 0 -93 87q-117 125 -117 142l-4 4v3l2 2v2q20 -11 28 -11l25 42v4l-41 -7l-1 1v2q51 48 148 116q42 35 69 38z M461 455v-4q17 0 31 32v7h-3q-16 0 -28 -35zM427 462v-6h6q19 3 19 9v2l-4 3h-7q-9 0 -14 -8zM340 435h2q22 6 22 21q-14 0 -24 -21zM387 406l2 -2h2q13 3 31 28v5h-7q-28 -21 -28 -31zM441 196q9 -21 20 -28l3 3v9q-7 12 -19 19zM452 148v-7q4 -10 14 -10h2v2q0 10 -13 15 h-3z" />
<glyph unicode="&#xac;" horiz-adv-x="676" d="M600 469q7 -1 3 -84q1 -24 1 -57q18 -103 15 -149h-3q-12 1 -14 62q-9 51 -15 52h-2v-14q-4 -108 30 -111l5 -10q-3 -48 -101 -42q-26 2 -23 97l1 12l-10 127q-13 0 -27 1q-162 -12 -315 -2v3q2 12 227 7q52 5 53 11v2l-13 1q-273 15 -277 -20l-12 -4q-47 6 -34 104 q3 25 221 20q0 2 14 2l27 -9l12 -2l225 3v2q2 0 3 -1h2zM528 213l6 -1v1q2 30 -10 47h-1l-1 -4q-1 -15 6 -43zM349 436l-1 -5h2q29 -4 46 6l1 2h-4q-15 2 -44 -3zM521 139l17 -1l4 4v1q1 5 -17 8l-6 1l-3 -4v-3zM112 452l-2 -18l3 -4h1q5 0 9 17l1 5l-3 4h-4zM454 373h1 q16 -1 30 -3l-1 10q-14 -3 -30 -5v-2zM584 321v2q1 15 1 28h-9q3 -14 7 -30h1zM583 415v3l-7 3h-8q0 -6 1 -13q11 2 14 7zM532 409q6 -1 11 -1v12q-7 -1 -13 -1q1 -5 1 -10h1zM416 440v-4h1q14 -2 17 5v2l-6 1q-11 0 -12 -4zM520 280l4 -1v2q1 13 -6 16h-2l-1 -7 q1 -10 5 -10zM513 368v3q1 7 -1 11q-3 -1 -6 -1v-12q4 0 7 -1zM580 369v2q0 5 -7 10h-2l2 -14q7 0 7 2zM541 368l1 15h-7q3 -15 6 -15zM153 446v-1l7 -1l4 3l1 3l-6 1zM523 181h2v7l-3 4h-3l-1 -5zM557 137h4v3l-3 4h-4v-3zM107 415v-3h3l4 3v3h-3zM473 415v-4l7 -1l-3 4z M541 338l4 -1v7l-3 -3z" />
<glyph unicode="&#xad;" horiz-adv-x="499" d="M446 491q8 0 16 -109h2q0 -15 -142 -24q-159 -33 -205 -33v3q0 12 117 26q51 12 51 18v2h-14q-164 -11 -164 -46l-11 -5q-47 0 -47 98q0 26 108 38q0 3 14 4l28 -5h13l227 33h7zM402 466v-3h13l8 2v3h-12zM341 451h18q13 0 15 7v1h-3q-30 -3 -30 -8zM268 438v-3h1 q14 0 16 7v2h-7q-10 -2 -10 -6zM357 423h30q45 1 49 12v3l-7 2q-72 -11 -72 -17zM201 426v-5h2q29 0 45 12v2h-3q-16 0 -44 -9zM72 421v-18l3 -3h2q5 0 7 17v6l-4 3h-3zM114 421v-2h7l3 4v3h-5zM327 421v-4h7l-3 4h-4zM313 377h2q124 5 124 12v2q-1 5 -9 9h-1 q-46 0 -116 -21v-2zM72 384v-3h3l4 3v4h-4z" />
<glyph unicode="&#xae;" horiz-adv-x="1190" d="M484 811h3q17 0 72 -10q74 0 190 -35q51 -35 79 -85q8 -29 8 -54v-2q0 -38 -35 -86q-21 -24 -60 -43q-15 -11 -47 -27q-16 -12 -16 -15q80 -104 111 -141q28 -41 50 -41q73 -4 73 -19q2 0 7 -41q-1 -4 -7 -4h-7l-54 -11q-7 9 -60 9q-52 0 -52 5q-2 15 -10 35v6v4 q0 7 -27 41q-3 17 -9 20q-25 33 -67 113q-9 9 -17 9l-60 -13q-41 0 -41 -21v-15q0 -109 18 -109l13 -2h10l24 5q6 -12 6 -37l-4 -9l1 -15q0 -8 -68 -16l-3 1l-74 1h-55q-9 0 -9 22v15q0 32 17 32l43 9l3 13q-8 189 -15 247q-1 189 -6 189l-3 1l-66 -11l-4 1l2 8h-11v2h-1 l1 11v5q0 6 -7 18q13 2 13 6l-6 7v1q0 6 83 16zM490 792v-1l3 -1h17v1l-14 4h-3zM498 769q1 -3 7 -3h2q27 0 28 5l-2 2h-20q-15 -1 -15 -4zM577 762l4 -2h10q9 0 11 4q0 4 -12 4q-10 0 -13 -6zM695 762l-1 -1v-1q5 -3 10 -3v1q0 2 -9 4zM338 749v-3l3 -1q7 0 11 6v5l-4 3h-4 q-4 0 -6 -10zM726 750v-1q29 -16 45 -29h3v4q0 13 -48 26zM500 740v-7l7 -56q-5 -89 -8 -96l-6 -6v-11l7 -44q0 -31 10 -31h1q74 9 74 16q46 15 69 27q43 0 101 53q16 29 16 54v10q0 8 -26 46q-50 50 -94 50l-32 2q-72 -7 -119 -7zM431 735v-18l4 -49h2l5 68l-1 1h-8z M740 719l5 -5h3v3l-5 4h-1zM487 688v-3q0 -6 3 -6l3 2v7l-3 3h-1zM460 663l-8 -58l4 -2h4l4 3v45q0 12 -4 12zM795 643v-6l3 -2h1l4 3v4l-4 3h-1zM433 622v-2l3 -2h2v2l-2 2h-3zM803 596v-3l-8 -15v-1l6 -7q8 0 9 17q-2 9 -5 9h-2zM782 554q2 -6 7 -8h1q11 8 11 15l-1 1h-1 q-13 0 -17 -8zM757 545v-3h3q7 3 7 7h-2q-7 0 -8 -4zM696 526v-2h8q6 5 21 12l1 1v2q-13 0 -30 -13zM455 533v-1l2 -3l3 3v1l-3 2zM651 504v-3q27 6 37 17l-2 1h-1q-28 -8 -34 -15zM727 516v-1h5v4h-2zM712 505l1 -1h1l6 4v2h-1q-5 -2 -7 -5zM607 489v-1h8q13 2 13 5l-1 1 h-3q-17 -1 -17 -5zM573 483v-1h3q15 0 15 4v1h-3q-5 0 -15 -4zM637 475l1 -1h1q24 5 24 10l-1 1h-1q-21 -4 -24 -10zM656 423v-1q0 -7 9 -12h3v2q-7 11 -12 11zM456 310v-9h4l2 9l-1 3h-1zM482 263v-1l3 -3h2q4 0 6 12v3l-2 5h-2q-4 0 -7 -16zM461 277l-2 -14v-1h5l3 4v2 q0 8 -3 9h-3zM556 256v-3h2l3 3v2h-3zM778 249v-1l4 -3h1l4 3v4h-5zM875 248v-3l6 -1h5l2 2v2l-3 3h-3q-7 0 -7 -3zM552 234l1 -1h5l3 3v1l-2 2q-7 0 -7 -5zM792 242v-1l4 -4h16v1q-1 4 -10 4h-10zM877 226v-1l4 -4h12q9 0 11 5q-2 3 -8 3h-12q-7 -1 -7 -3zM747 223 q0 -3 5 -3l5 2l-1 4h-6zM638 1030q179 0 335 -71l37 -116q38 -30 75 -89q42 -35 79 -149l2 -40q0 -36 -52 -86v-9q0 -20 23 -20l-3 -59v-71q0 -50 -92 -147q-19 -27 -36.5 -66t-187.5 -69q-107 -46 -207 -46q-321 -27 -399 127v6l6 4h10l10 -4h10v4q-5 18 -30 18h-13l-3 -8 q-34 7 -66 77q-13 7 -26 33q-22 72 -69 332l74 190q0 17 71 119q107 140 452 140zM588 1014v-4q0 -9 70 -14h39v6q-10 12 -53 12h-56zM759 998l37 -6h13l6 4q0 6 -43 6h-6zM868 980v-1q69 -50 118 -58h3v4q-70 55 -118 55h-3zM815 964q17 -15 40 -15h16v4q0 8 -40 15h-9z M667 967v-3q27 -11 102 -17l3 2v4q0 7 -68 14h-37zM187 584l10 -12l-7 -24v-9l28 -188q33 -126 131 -183t176 -57q120 0 303 47q158 59 158 121q43 81 70 211v79q0 115 -103 201q0 14 -65 84q-103 75 -182 75l-111 16h-23q-147 0 -188 -94q-55 -27 -98 -69q-27 0 -56 -78z M243 873v-4q10 0 43 25v8h-4q-11 0 -39 -29zM183 849h11l9 6v4q-20 0 -20 -10zM253 803h13q23 9 29 18v4h-22q-20 -6 -20 -22zM990 839v-2q0 -29 42 -105q29 -2 76 -72q1 -8 10 -8l10 5v7q-16 40 -118 151q-10 24 -20 24zM1118 616v-2l17 -29q0 -8 -24 -36v-2q0 -12 20 -20 h6q-4 1 3 48q-15 29 -16 41h-6zM73 594h2l7 4zM66 566l-7 -24l25 43q14 0 -11 -23v4h-7zM153 547l68 -232h6v2q-44 30 -60 178q-14 10 -33 63zM105 339v-6h7v6h-7zM976 187v-2h11q29 0 68 81v2l-6 6q-16 0 -73 -87zM123 251v-4q19 -5 50 -57l22 -9h17v1q-47 65 -62 81h-4 q-15 -3 -23 -12zM291 171v-4q54 -130 158 -94q30 2 30 6q-2 5 -81 -12zM212 178l-4 -5q4 -8 20 -8h4l6 4v4l-10 5h-16zM479 67q0 -10 46 -14h23q26 1 26 16h26q57 0 228 38v1l-4 3h-20l-112 -16q-62 0 -210 -26zM604 32v-3l7 -4h39q128 18 128 26q46 9 56 22v4h-4 q-154 -22 -226 -45zM267 106q0 -14 24 -38l4 2q-2 36 -24 36h-4zM420 40v-8q92 -26 119 -26l26 22v8q-89 4 -145 4z" />
<glyph unicode="&#xaf;" horiz-adv-x="529" d="M438 840q8 0 16 -109h2q0 -15 -142 -24q-159 -33 -205 -33v3q0 12 117 26q51 12 51 18v2h-14q-164 -11 -164 -46l-11 -5q-47 0 -47 98q0 26 108 38q0 3 14 4l28 -5h13l227 33h7zM394 815v-3h13l8 2v3h-12zM333 800h18q13 0 15 7v1h-3q-30 -3 -30 -8zM260 787v-3h1 q14 0 16 7v2h-7q-10 -2 -10 -6zM349 772h30q45 1 49 12v3l-7 2q-72 -11 -72 -17zM193 775v-5h2q29 0 45 12v2h-3q-16 0 -44 -9zM64 770v-18l3 -3h2q5 0 7 17v6l-4 3h-3zM106 770v-2h7l3 4v3h-5zM319 770v-4h7l-3 4h-4zM305 726h2q124 5 124 12v2q-1 5 -9 9h-1 q-46 0 -116 -21v-2zM64 733v-3h3l4 3v4h-4z" />
<glyph unicode="&#xb0;" horiz-adv-x="319" d="M191 705h5q28 -14 56 -37q27 -24 27 -36q-5 7 -9 7h-1q-1 0 -1 -2q2 -7 9 -20h2q1 0 2 5h1q1 0 4 -16l4 -11l-1 -7l2 -20q-3 -8 -7 -36q-2 -10 -50 -77q-20 -21 -41 -21q-21 -3 -42 -3h-10q-10 0 -48 16q-48 45 -48 68q-7 15 -12 28q0 6 15 47q0 25 11 35q25 55 63 71 q33 13 55 13zM183 697q2 -7 11 -7h6h1v2q0 7 -11 8q-7 -1 -7 -3zM96 667v-2q2 0 32 23l4 2l3 -1q36 4 36 7l-8 2q-37 0 -66 -28zM219 684v-1q5 -7 11 -7q0 6 -9 9h-1zM193 680l-1 -1q10 -8 16 -8v1q-8 8 -15 8zM138 677v-3q41 5 41 7l-4 1h-1q-25 0 -36 -5zM187 681v-2l2 -1 l-6 -5v1q0 2 9 7h-5zM139 658v-1l1 -1h7l38 9v1l-10 2q-36 -5 -36 -10zM228 661q2 -7 15 -14h1l2 1v1q-3 3 -18 12zM102 657q4 0 8 7v2q-8 -3 -8 -9zM210 654q4 -5 8 -5l1 1v1q0 5 -5 5q-4 -1 -4 -2zM81 537v-3q6 -13 16 -32q0 -5 20 -16q10 -10 36 -17l10 -1q22 5 35 10 l19 17q29 33 29 55v4q-4 10 -4 29q0 14 2 24q0 3 -20 20q-15 21 -31 26h-6q-63 -2 -63 -10q-13 -14 -19 -28q-17 -18 -17 -25q-5 -20 -7 -53zM238 645v-1q3 -7 15 -12h2l1 2q-8 11 -16 11h-2zM101 642v-2h1l2 1v1h-3zM90 629v-3h2q7 6 7 10l-1 1h-2q-4 -3 -6 -8zM69 626 q2 0 2 4q-2 -1 -2 -4zM58 607q3 0 5 3v2q-5 0 -5 -5zM282 588v-3l1 -2l2 2v3l-1 1h-1zM275 550q0 -17 3 -17h1q0 6 4 13v2l-6 8q-2 0 -2 -6zM70 557h1l2 1v1h-1zM41 546q0 -5 1 -5l1 1v2l-1 4zM271 520v10l1 -4h1q3 2 2 -7l-2 1h-2zM262 510h1q3 0 6 9h-1q-3 0 -6 -9z M53 520v-4q1 -18 10 -21v1v1q-4 25 -8 25zM73 484q1 -3 4 -5h2q0 4 -4 7h-1zM82 466v-2q8 -7 25 -7h6q-3 4 -27 9h-4zM122 460v-2q0 -3 15 -3h1v1q-8 4 -16 4zM111 452v-1h7l1 2l-1 1h-2q-5 0 -5 -2zM202 443v-1h1q9 4 9 6v1q-8 -3 -10 -6zM173 446v-1q0 -2 8 -3q10 1 10 3 v1q-1 3 -4 5h-5q-6 0 -9 -5z" />
<glyph unicode="&#xb1;" horiz-adv-x="598" d="M532 257q8 0 16 -109h2q0 -15 -142 -24q-159 -33 -205 -33v3q0 12 117 26q51 12 51 18v2h-14q-164 -11 -164 -46l-11 -5q-47 0 -47 98q0 26 108 38q0 3 14 4l1 -1q-6 27 0 116q-45 -6 -65 -6v3q0 9 66 19v1l-2 16q-75 -13 -75 -36l-10 -5q-48 0 -48 98q0 26 109 38 q0 3 14 4l4 -1q-2 66 1 93l4 -1q10 -1 10 -95l9 -1h8q1 103 -26 107l-4 11q6 47 103 34q26 -3 25 -113q2 0 1 -14l-4 -12l137 20h7q8 0 15 -109h2q0 -15 -142 -24q-12 -3 -24 -5l2 -131l150 22h7zM399 143h2q124 5 124 12v2q-1 5 -9 9h-1q-46 0 -116 -21v-2zM389 390h1 q125 5 125 12v2q-2 5 -9 9h-2q-45 0 -115 -21v-2zM275 240h1q5 0 10 8v1q5 39 -3 100q-4 -1 -6 -1q-9 -107 -2 -108zM318 317l-4 -29q-4 -45 6 -50l4 -1l2 7q-1 73 -8 73zM432 436h30q45 1 49 12v3l-7 2q-72 -11 -72 -17zM443 189h30q45 1 49 12v3l-7 2q-72 -11 -72 -17z M287 192v-5h2q29 0 45 12v2h-3q-16 0 -44 -9zM353 601l-17 2l-4 -3v-2q-1 -5 16 -9l6 -1l4 3v4zM147 434v-18l4 -3h1q5 0 7 17v6l-3 3h-4zM158 187v-18l3 -3h2q5 0 7 17v6l-4 3h-3zM348 329l-2 -17q-2 -13 5 -16l1 -1l1 4q1 30 -5 30zM417 464h17q13 0 16 7v1h-4 q-29 -3 -29 -8zM427 217h18q13 0 15 7v1h-3q-30 -3 -30 -8zM354 204v-3h1q14 0 16 7v2h-7q-10 -2 -10 -6zM488 232v-3h13l8 2v3h-12zM478 479v-3h12l9 2v3h-12zM356 267h-4l-1 -12v-9h4l1 12v9zM348 559h-2l-1 -7l3 -4h4l1 5zM200 187v-2h7l3 4v3h-5zM189 434v-2h7l4 4v3h-6 zM317 605l-3 1l-1 -4l3 -4h4v3zM147 397v-3h4l3 3v4h-3zM158 150v-3h3l4 3v4h-4zM277 439v-5h1h4v7q-2 -1 -5 -2zM320 347l-3 1l-1 -7l4 3v3zM413 187v-4h7l-3 4h-4zM403 434v-4h7l-4 4h-3zM343 451v-3h2q-1 2 -1 5q-1 -1 -1 -2zM279 367v-2q0 -1 -1 -2h3q-1 2 -1 3z M346 387l1 -1h1v1h-1h-1z" />
<glyph unicode="&#xb2;" horiz-adv-x="421" d="M237 959q24 0 76 -15q28 -12 28 -17q25 -22 25 -34l13 -38q-9 -26 -33 -70q-28 -21 -92 -53q-51 -41 -66 -42l-31 -24q-69 -51 -69 -53q-6 -11 -12 -32v-2q0 -5 37 -7v-2l-24 -1v-3q65 -10 87 -10q-2 3 -54 13v2h1q14 0 60 -10l42 -2l36 3h18q49 -3 54 -11l22 -6l5 -3v-2 l-12 -3v-1l3 -3h1l10 1l1 -1q-1 -28 -5 -28l-87 2h-18q-21 0 -51 -3q-113 12 -157 12q-13 3 -13 11q-6 13 -6 29v20q0 56 16 71l18 10q5 7 5 12q48 33 51 33q21 7 55 33h3q-9 -10 -15 -10v-3h4q11 5 19 14v2h-2v1l53 30q44 26 66 45q16 17 22 46q0 25 -24 38q-6 2 -68 7 q0 1 -11 1q-26 0 -48 -26q-6 -10 -6 -17v-4h2q0 -6 -25 -9l-31 -4v-1l-5 1h-5l-19 -1l-2 2q9 44 23 55q43 34 60 35q11 10 58 21zM242 953v-2l5 -4h7l3 3q-1 3 -8 3h-7zM202 943v-1h1q30 0 30 6l-4 2h-8q-19 -3 -19 -7zM294 945q0 -4 20 -8q0 4 -19 8h-1zM175 933v-1h9l3 2 v1l-5 1q-7 -1 -7 -3zM182 906v-1h5l3 3v1h-5zM313 906v-1q3 -4 8 -4h1q2 0 2 2q0 3 -8 5h-1zM326 898v-1q14 -1 14 -11l3 -5l1 1v4q0 15 -10 15q-7 0 -8 -3zM161 885l2 -1q11 5 11 10v1h-2q-4 0 -11 -10zM137 867v-2l2 -1h1v3h-3zM355 843v-3h1l3 3v2h-1zM337 820v-3 q5 0 5 -4h3v4l-4 3h-4zM327 797l1 -1v-1q5 2 9 7v2h-1q-6 -3 -9 -7zM307 784h1l10 1q0 5 -6 5q-5 -1 -5 -6zM306 771v-1q13 2 26 14l-2 1q-16 -7 -24 -14zM270 758v-2h2l1 2h-1v1zM155 680h3q4 0 20 12q5 0 8 7h1v2h-2q-9 0 -30 -19v-2zM109 685v-2h1q9 0 15 13h-3 q-13 -9 -13 -11zM74 673l1 -7q-10 -7 -10 -11h3q12 6 19 16v1l-3 1h-10zM137 665v-2h2l3 3v1h-2zM81 630v-3h2q8 6 8 11v1h-3q-7 -5 -7 -9zM58 559v-3l2 -2l2 2v3l-2 1zM78 557l1 -1h9v2l-4 1h-4zM278 553l3 -3h10l2 2v1l-9 1zM38 540v-1l1 -2h1l3 2l-3 2zM57 527v-1h4 q12 0 12 3v1h-11q-5 -1 -5 -3zM298 520h8q10 1 10 3v1l-2 2h-5q-4 0 -11 -6zM325 517l2 -2h9q11 0 11 3v1q0 1 -3 1q-18 0 -19 -3z" />
<glyph unicode="&#xb3;" horiz-adv-x="330" d="M29 965q42 -4 120 -10q10 -3 92 -11q33 -7 33 -16q-4 -8 -22 -28q0 -2 -28 -35q0 -5 -34 -34l-7 -9v-2q8 0 41 7q11 0 53 -24q11 -11 23 -45v-7q0 -77 -15 -94q-12 -32 -65 -66q-31 -14 -95 -27q-8 -3 -25 -3h-5l-3 -1q-29 0 -49 12v2q3 2 13 23h1v1l13 -1h7q53 0 82 26 l54 32q31 25 33 37q13 17 13 60q-1 6 -2 6l2 4q0 12 -13 19q-4 11 -19 11h-16q-12 0 -12 -2v-2q26 0 40 -11v-1l-2 -1q-7 0 -16 8h-5q-48 0 -115 -29l-7 -3h-2v5q0 4 -7 10q0 3 15 32q2 10 11 19l26 36q14 29 27 35q5 7 5 12v1q-6 5 -11 5l-117 2q-6 0 -8 10v2l2 2v3 q-3 7 -8 39zM53 958l-2 -3v-6h1h8h1l16 -1l3 2q-12 8 -27 8zM36 948q1 -3 5 -3l1 2v1l-2 2h-2q-2 0 -2 -2zM112 947v-2h1l2 2h-3zM220 939q0 -3 12 -4h1l3 2l-2 2h-14zM89 936q34 -4 74 -4h8q0 4 -46 6h-18q-18 0 -18 -2zM55 935q0 -5 31 -7l1 1v1q-8 6 -27 6h-3zM255 929 v-1q0 -2 4 -2h3q2 0 4 2q0 4 -7 4q-4 -2 -4 -3zM98 931v-1v-1q0 -3 21 -3h23q0 3 -44 5zM158 926v-2l32 -4l31 2v1q-13 3 -46 3h-17zM44 921v-1q0 -5 26 -5h26v2q0 2 -27 3q0 3 -16 3h-2q-6 0 -7 -2zM106 917q0 -2 17 -3l2 1q-1 2 -5 2h-14zM236 906q2 -9 6 -9q4 6 4 9v2 l-1 2h-4zM182 900v-1h3l1 1v2h-3zM186 889v-2h2q7 0 12 10l-1 1h-1q-12 -3 -12 -9zM231 890v-2h1l2 1v1h-3zM226 885v-2h2v2h-2zM189 846l2 -1q12 2 26 20l3 7l-1 1h-3q-8 0 -26 -24zM157 848h1q9 5 9 11h-1q-9 -2 -9 -11zM170 849v-1h2q5 3 5 6h-1q-3 0 -6 -5zM184 839v-3 h2l1 2v3h-1zM120 819h1h5l13 8v3v2l-1 1h-1q-11 -3 -17 -12v-2zM177 802v-1l25 8q28 -2 38 -5q2 0 3 3h1q15 -12 24 -12h2l2 2v1q0 7 -44 16q-2 0 -4 4l-3 2h-2q-15 0 -31 -13q-11 -2 -11 -5zM164 818v-1l1 -2h2v2l-2 1h-1zM111 801v-2h1q8 4 11 14h-1q-5 -3 -11 -12z M131 799v-3h3q7 0 11 11l-2 2q-6 -2 -12 -10zM136 780h2q42 10 42 13v1h-2q-20 -2 -42 -13v-1zM106 778l1 -1v-1q20 4 32 11l-2 2q-22 -4 -31 -10v-1zM262 789v-1q2 -8 8 -8h5q6 0 7 3q-5 6 -13 6h-7zM277 772q0 -5 10 -17l-1 -11v-14q0 -6 3 -6h1l2 12v20q0 10 -12 18h-2z M96 767v-1l2 -1h5q6 0 6 2v2q-1 3 -5 3h-1q-5 0 -7 -5zM251 769l4 -4h-2l-2 2v2zM264 753v-1l1 -1h2v1l-2 1h-1zM262 721v-2l1 -1q7 11 7 20v7h-1q-7 -8 -7 -24zM290 718l-6 -11q1 -3 3 -4h1q4 2 4 8q0 7 -2 7zM265 689h3l4 3v3h-3q-4 -2 -4 -6zM260 671l2 -1l12 8v1l-1 1 h-1q-6 0 -12 -9zM233 653h3q6 0 12 7v1l-2 6l3 6q-6 0 -11 -13q-5 -5 -5 -7zM275 667h3v2h-1zM255 651v-1l4 -1h4q10 1 10 7q-1 3 -5 3q-6 0 -13 -8zM157 612h1q56 23 56 32h-3q-12 -4 -45 -24q-9 -7 -9 -8zM256 636v-1h3q1 0 4 6l-1 1q-6 -2 -6 -6zM246 638h4l1 1l-1 2h-2z M232 618h1q6 0 14 6q0 1 -2 1q-13 -3 -13 -7zM184 608v-2h1q14 4 14 7v1h-1q-7 0 -14 -6zM221 606v-1h4l3 2v2h-4zM76 591l2 -2h11l1 2q0 1 -6 2q-8 -1 -8 -2zM132 591v-2q6 0 7 2v1h-5zM184 585l1 -1h1q13 3 15 6l-1 2h-4q-12 -2 -12 -7zM60 586v-1h6l2 1l-2 2h-3zM92 574 l-14 3h-5q-13 -1 -13 -5v-1q0 -2 40 -5q16 0 50 13l1 1v2h-1q-8 0 -37 -7z" />
<glyph unicode="&#xb4;" horiz-adv-x="296" d="M154 697l-10 -2l-1 -2l7 -11q19 23 17 12l-1 -5l-48 -53l-12 -14l-55 31l55 75q-1 -2 -1 -3q4 11 7 12q40 36 53.5 58.5t42.5 45.5q26 -11 41 -28q-28 -88 -90 -126l2 4l2 3l1 3h-10zM182 780q20 22 2 20h-3v-3l6 -9v-1l-5 -2h-11l-3 -3l-1 -2l1 -2q10 -7 16 -15 q0 6 15 0zM162 742q2 10 -3 12h-4l-4 -3q-3 -12 8 -11l3 1v1zM146 686l-5 -5v-2l3 -5l3 4l1 5zM123 664l-2 -4l6 -8h2l-3 12h-3zM150 764l-3 -1q0 -7 2 -8l4 1v3zM158 687q-4 -3 -8 -5l4 -6l5 11h-1zM137 719h-3v-4l2 -2h3v3z" />
</font>
</defs>
</svg>
